<?xml version="1.0" encoding="UTF-8" standalone="no"?><svg xmlns="http://www.w3.org/2000/svg" xmlns:xlink="http://www.w3.org/1999/xlink" fill="#000000" height="419.6" preserveAspectRatio="xMidYMid meet" version="1" viewBox="-2.8 -6.1 504.7 419.6" width="504.7" zoomAndPan="magnify"><g id="change1_1"><path d="M434.09,180.67c-17.32-16.87-36.46-31.56-56.79-44.63c-15.99-9.1-32.1-18.47-49.57-24.46 c-17.67-5.47-35.55-11.53-54.12-12.71c-37.26-2.43-75.04,3.5-109.51,17.96C124.33,134.65,90.17,163,59.82,193.87 c-13.69,14.6-28.16,28.41-39.07,45.33c-6.52,9.85-19.79,22.97-9.8,34.67c18.21,27.43,41.69,51.34,67.36,71.87 c17.01,13.14,35.77,23.37,54.89,33.04c37.78,18.43,79.2,31.64,121.31,34.46c2.94,0.18,5.86,0.26,8.79,0.26 c39.99,0,78.54-16.22,109.41-41.35c23.89-18.62,45.43-40.26,63.21-64.82c11.22-17.11,24.51-33,33.07-51.7 c4.17-10.68,12.96-23.66,5.39-34.67C461.62,206.85,447.45,194.17,434.09,180.67z M419.8,287.04 c-16.67,24.18-37.17,45.54-60.17,63.76c-24.4,19.89-53.46,34.79-85.22,37.31c-32.58,2.45-64.5-6.29-95.04-16.78 c-30.25-10.73-59.23-25.73-85.11-44.75c-22.61-17.89-43.63-39.13-60.23-62.94c33.91-48.51,77.48-91.81,130.2-119.53 c28.12-13.7,59.67-20.94,91.07-20.94c9.91,0,19.8,0.72,29.56,2.19c15.12,3.74,30.34,7.55,44.75,13.56 c19.25,8.88,37.69,19.5,54.7,32.18c15.47,10.74,29.05,23.97,42.23,37.37c8.79,7.72,17.06,15.96,24.89,24.66 C444.76,253.23,431.29,269.61,419.8,287.04z M356.37,253.2c0.33,20.55-5.32,37.32-15.27,55.07c-5.91,11.95-13.34,23.36-24.2,31.39 c-10.1,8.08-22.28,13.21-34.71,16.52c-7.65,2.01-15.53,2.71-23.42,2.71c-5.08,0-10.16-0.29-15.19-0.72 c-25.92-2.4-51.64-12.86-70.47-31.06c-9.59-8.69-17.59-18.98-22.82-30.85c-5.77-11.5-10.75-24-9.78-37.1 c1.64-27.96,14.42-60.36,36.02-78.8c19.98-16.39,46.03-27.48,72.2-25.51c6.87,0.69,21.33,3.53,17.18,13.31 c-3.07,4.91-9.82,3.86-14.79,4.69c-8.44,0.86-17.27,2.4-25.19,5.31c-20.25,7.05-39.96,19.93-49.31,39.81 c-7.22,14.55-12.13,30.2-11.8,46.18c0.83,8.75,5.41,16.57,9.06,24.41c4.61,9.7,12.35,17.22,20.24,24.29 c4.82,4.14,10.28,7.35,15.87,10.32c11.58,5.67,24.09,9.48,36.99,10.37c8.76,0.49,17.63,0.97,26.28-0.83 c19.25-4.23,35.34-14.16,43.87-32.44c10.24-18.24,15.2-30.44,14.29-51.78c-1.52-13.91-7.94-27.09-17.11-37.57 c-6.01-6.32-11.79-13.06-18.96-18.12c-2.84-1.9-5.71-3.74-8.63-5.51c-5.82-3.3-7.96-11.31-4.46-17.03 c3.38-5.78,11.23-7.99,17.03-4.47c2.12,1.29,4.2,2.63,6.28,3.97c7.59,4.56,14.07,10.62,20.15,17 C343.59,204.02,356.74,227.89,356.37,253.2z M273.06,230.85c4.78,5.3,8.34,11.6,9.3,18.73c2.63,19.36-11.28,38.35-30.71,38.35 c-1.71,0-3.47-0.15-5.26-0.46c-32.7-3.8-40.37-45.68-12.49-62.05C247.1,217.73,263.07,218.41,273.06,230.85z M21.6,151.34 c-6.49-6.24-14-11.63-19.83-18.46c-4.55-7.11,0.18-17.68,8.69-18.53c6.67-1.2,11.22,3.94,15.39,8.28 c6.86,6.55,13.87,12.93,20.72,19.48c4.52,4.85,11.1,9.08,12.27,16.02c1.29,8.21-7.53,15.28-15.2,11.84c0,0.01,0,0.03,0,0.04 C35.39,165.11,29.04,157.38,21.6,151.34z M93.21,77.79c-3.31-9.18-7.56-17.12-8.89-26.41c-0.35-11.22,15.03-16.39,21.66-7.39 c5.94,11.8,8.94,25.25,14.41,37.4c4.49,11.78,14.03,38.73-8.14,36.03c-7.37-1.76-8.29-9.7-9.98-15.86 C99.89,93.4,96.47,85.62,93.21,77.79z M186.26,16.85c-4.45-17.25,20.66-22.95,24.03-5.48c1.53,12.87,6.57,25.05,7.69,38.01 c0.46,5.61,1.17,11.47-0.43,16.95c-1.95,7.47-11.64,10.81-17.67,5.9c-4.97-3.54-4.17-9.9-5.35-15.18 c-2.14-9.08-4.41-18.18-5.29-27.49C188.01,25.38,187.02,21.14,186.26,16.85z M286.88,53.55c0.58-6.83,1.82-13.6,2.86-20.37 c1.04-6.4,2.18-12.78,3.26-19.18c0.4-4.88,2.22-9.85,6.73-12.33c7.72-4.89,18.16,1.67,17.95,10.6c-1.66,10.36-4.39,20.61-6.16,30.99 c-1.04,5.01-2.17,11.44-3.02,16.08c-0.39,2.58-1.3,5.05-3.27,6.86c-3.34,3.42-8.77,4.03-12.9,1.66 C287.17,65.14,286.2,58.82,286.88,53.55z M376.7,88.34c3.34-7.92,6.68-15.84,10.68-23.48c6.96-10.62,10.16-37.65,27.69-31.68 c16.16,8.26-0.08,28.62-3.81,40.38c-3.1,6.68-6.73,13.1-10.28,19.54c-3.23,7.81-10.96,15.79-19.77,10.56 C375.92,100.82,373.94,93.36,376.7,88.34z M494.36,116.27c-6.19,3.73-27.16,20.82-32.89,25.21c-6.33,4.21-13.4,11.45-21.59,9.87 c-4.77-1.16-8.26-5.92-7.73-10.96c0.25-2.36,1.31-4.44,2.86-6.02c-0.02,0-0.04,0-0.06-0.01c2.73-2.67,6-4.75,8.91-7.24 c4.62-3.73,8.97-7.8,13.65-11.45c2.66-2.07,20.69-16.64,23.34-18.72c5.06-3.97,12.56-3.21,16.6,1.85 C501.88,104.11,500.34,112.81,494.36,116.27z" fill="#000000"/></g></svg>