<?xml version="1.0" encoding="UTF-8" standalone="no"?><svg xmlns="http://www.w3.org/2000/svg" xmlns:xlink="http://www.w3.org/1999/xlink" data-name="Layer 24" fill="#000000" height="478.7" preserveAspectRatio="xMidYMid meet" version="1" viewBox="-0.5 -0.4 500.5 478.7" width="500.5" zoomAndPan="magnify"><g id="change1_1"><path d="M375.1612,216.5881c.0226.418.0565,1.0169.1017,1.7287-.0565-.5649-.1243-1.13-.2034-1.6835A.464.464,0,0,1,375.1612,216.5881Zm-.3277,12.5641c-1.1977.983-2.35,1.9885-3.4686,3.0054A15.5974,15.5974,0,0,0,374.8335,229.1522Zm66.7525-10.4174.0677-.0678c-.09-.2033-.1694-.4067-.2485-.6214C441.473,218.2716,441.53,218.5088,441.586,218.7348Zm4.0223-4.6889a.6892.6892,0,0,0,.1242-.1582l-7.6039-9.1519Zm53.8832,32.4723-19.0834-.3841.113,104.6029L480.3856,475.61l-8.1351.1243.0452-56.55-42.4829.1243-.3954,56.1656-7.8639.09-.5763-56.3238-42.1779.0113-.1355,56.55-8.2029.0452V321.3944l.0566-57.8717-.1017-17.0271-21.3884.3616.2486-8.5531,6.3611-.2373.1017-51.6348.1356-44.5732-6.7114-.1808-.0452-7.8526,150.17.1695.2711,7.48-5.4459.0791-.1243,35.5456-.2825,61.0579,5.6945.1808Zm-116.071-8.022a8.7993,8.7993,0,0,1,.1356-1.096,6.25,6.25,0,0,0,.0791,1.0395s3.4234.0226,3.4234,0v-.1017l2.3728-.1921-.4971-22.5634-12.4512.3616c.2147-.1017.3616-.1695.3729-.1695q-3.1185-21.3883-6.4967-42.72l-2.3162-15.0838a71.4782,71.4782,0,0,0,16.722,1.0621c-.0227,1.096-.1809,6.8358-.339,6.9713q2.2541,5.4234,4.5082,10.8354a103.07,103.07,0,0,1,.1694-15.1741l-1.13-2.9037q.5087-.0339,1.0169-.1017l-.0564-16.7333-26.631.09c.09,1.4462.2147,2.8924.3729,4.3274l-.7-3.7851-.4971,35.0936.3389,60.55s2.9151.0791,3.4461.0678a2.0555,2.0555,0,0,0-.09.2824S383.4883,238.4058,383.4205,238.4962Zm-5.0618,8.022.3728,55.1826,42.6638.0452V246.473Zm43.093,63.2386-43.0591-.0678.2712,101.6427,42.6976-.1017Zm.678-103.8121-27.5574-31.1842.3729,63.3967,27.1845-.0452Zm.1581-26.032-.2372-37.907-9.83-.0452-.0113-.1017-17.4452-.0113s-.0678,16.2249.0791,15.8972a40.6866,40.6866,0,0,0,11.3552-3.3557c.4519,1.5254,3.367,11.6941,3.4913,11.83A47.1726,47.1726,0,0,1,422.2878,179.9127Zm5.4234,58.3575,27.3427.0452.2147-96.6261-27.6478.2034.1921,51.1038,4.5308,7.2876.3954-.1694-5.1183,5.1182.2147,9.152c.4972.7005,1.0056,1.401,1.5028,2.1015a6.8609,6.8609,0,0,1,1.401,4.3726,7.2234,7.2234,0,0,0-1.04-3.5139,20.9463,20.9463,0,0,0-2.3163-3.0619Zm44.5619,71.351-42.7089-.1243-.0791,101.5749,42.7428.26Zm.26-63.08-43.3191-.0678.09,55.0358,43.0931.1469Zm15.8633-8.2028-.3277-96.4227-27.2862-.35-.0678,96.9764Zm-58.6175-13.4a5.871,5.871,0,0,1,.1809-.5876c.0791-.2146.1469-.4293.2146-.6439.0452-.1244.0791-.2486.113-.3729-.0791.2485-.1582.5084-.2485.757a10.783,10.783,0,0,0-.7345,3.0845,3.7211,3.7211,0,0,0,.9039,2.6778c-.1016-.2373-.1921-.4746-.2825-.7231-.0678-.2034-.1242-.418-.1807-.6214-.0113-.0791-.0339-.1356-.0452-.2034a7.68,7.68,0,0,1-.1582-1.5253c0-.2373.0113-.4633.0339-.7005A6.5388,6.5388,0,0,1,429.7788,224.9378Zm-17.6936-73.8819c-.339.2373-.6892.4633-1.0395.6892-.3615.226-.7231.4519-1.0847.6666-.2146.1356-.4406.26-.6553.3842-.305.1694-.5988.339-.9152.4972-.3841.2146-.7683.418-1.1637.61l-.1356.0677a18.9241,18.9241,0,0,0,5.5024-2.6664,1.4594,1.4594,0,0,0,.1017-.678.3.3,0,0,1-.0678.0566Zm33.0034,63.6c-.26.2938-.5537.6328-.8136.9265-.1016.1243-.2033.2373-.2937.339-.1469.1469-.2486.26-.3051.3163.4294-.09,1.514-1.5818,1.9095-2.1467-.0678.0678-.1921.2034-.35.3954A2.22,2.22,0,0,0,445.0886,214.656ZM353.2208,93.1415a12.73,12.73,0,0,0,4.0833-2.5547,82,82,0,0,0,7.6518,9.042,27.4327,27.4327,0,0,0,9.8438,6.4389,16.5651,16.5651,0,0,0,11.5988.0093c2.9221-1.1846,5.3674-3.3652,7.8112-5.9408a87.5738,87.5738,0,0,0,14.146-42.54,26.5283,26.5283,0,0,0-.9349-5.1886,8.8965,8.8965,0,0,0-2.8373-4.3608c-1.8608-1.4485-4.3271-1.7984-6.673-2.0385a143.8265,143.8265,0,0,0-23.1567-.4764c-3.4492.2914-6.2036-.0165-8.926.2134s-4.7111.4518-6.8748,2.12c-2.5257,1.947-4.0542,4.9074-5.2159,7.8773s-2.0494,6.0733-3.6648,8.823l-7.7577-14.9525-14.748,6.0208,1.1875,2.6237s12.23,23.3068,12.2137,23.2039a31.3736,31.3736,0,0,0,4.579,8.6239,8.79,8.79,0,0,0,3.32,2.9731A6.1444,6.1444,0,0,0,353.2208,93.1415ZM146.3578,197.2421l-19.1435-1.3551a4.0462,4.0462,0,0,0-1.3264,4.3758,4.3656,4.3656,0,0,0,3.945,2.7874,5.862,5.862,0,0,0-1.806,2.693,3.7868,3.7868,0,0,0,.4176,3.1531,2.9426,2.9426,0,0,0,3.1055,1.1661,5.5123,5.5123,0,0,0-.5468,3.9978,4.42,4.42,0,0,0,1.8161,2.1788,13.165,13.165,0,0,0,2.6124,1.2188s13.17-12.4429,13.13-12.2651A11.2181,11.2181,0,0,1,146.3578,197.2421Zm-82.17,121.0726c-.8039,1.1331-1.3943,2.4092-2.2325,3.5171a9.671,9.671,0,0,1-8.9073,3.6814s-3.1758,23.7646-3.1042,24.15a48.2833,48.2833,0,0,0,11.2384-15.5362,102.6536,102.6536,0,0,0,6.2749-18.2256A5.4777,5.4777,0,0,0,64.1878,318.3147ZM55.4416,290.226c-4.2839-.2743-8.66-1.8118-11.4881-5.041a18.9409,18.9409,0,0,1-3.6083-7.2387c-1.5341-8.6138-.526-17.4534.4856-26.1442,0,0-13.0211.6346-13.0825.9135a106.5465,106.5465,0,0,0-.337,38.6834,15.6673,15.6673,0,0,0,5.6471,9.7392,25.0734,25.0734,0,0,0,10.3176,4.8941A85.964,85.964,0,0,0,55.4582,307.6s-.991,10.4318-.9313,10.5553c2.5684-.6976,4.247-2.8846,5.2945-5.3312a15.5134,15.5134,0,0,1,1.798-3.8115,7.5387,7.5387,0,0,1,3.4439-2.1845c1.2981-.46,2.6527-.76,4.0889-1.335a80.4141,80.4141,0,0,0-.9511-16.6907C63.9928,289.6491,59.7255,290.5,55.4416,290.226ZM319.8037,92.8478q-13.88-.7337-27.7885-.3009l-41.4174-.8934-38.1608.5925-23.5809.9208a277.3661,277.3661,0,0,0-20.0289,86.7775,325.6314,325.6314,0,0,0,5.745,89.7326,370.8125,370.8125,0,0,0,14.5236,57.33A451.6729,451.6729,0,0,0,214.61,390.8662s9.1972,19.1526,9.3115,19.2979a5.6915,5.6915,0,0,0,5.3581,4.6833l19.7121-.2211s32.287-.2918,32.1362-.2138a6.3131,6.3131,0,0,0,5.6524-3.4369s12.19-25.6381,11.9821-26.0263a426.6739,426.6739,0,0,0,16.8415-41.4912,392.4629,392.4629,0,0,0,19.07-70.893,322.106,322.106,0,0,0,1.7827-119.5946A311.0487,311.0487,0,0,0,319.8037,92.8478Zm-213.4955,143.15s2.5965,10.9054,2.5333,10.6733a45.9608,45.9608,0,0,1,.8349,14.28,20.3968,20.3968,0,0,1-4.5619,11.4545,33.8291,33.8291,0,0,1-9.5543,7.9927,101.22,101.22,0,0,1-11.2793,5.4353l5.4554,12.8825,5.7449,18.6658-1.668,13.6174,5.4021-.946s1.9418,9.1114,2.1367,9.1586a92.135,92.135,0,0,0,5.0536-9.8216l-4.3026-12.4813s-4.0577-16.9781-3.9092-17.3706c4.9469-5.7133,10.7149-10.6937,15.4322-16.598s8.4217-13.073,8.3636-20.6452a66.8551,66.8551,0,0,0-4.3384-30.72Z" fill="#fff4dc"/></g><g id="change2_1"><path d="M364.5494,157.2373a93.8048,93.8048,0,0,1-2.249-15.2226l26.6375-.0849L388.99,158.66A70.9551,70.9551,0,0,1,364.5494,157.2373Zm30.2145-15.3892s-.0693,16.2189.0805,15.9a40.7193,40.7193,0,0,0,18.2522-7.4021l-.8842-8.4925ZM375.1317,215.991s.6846,12.0784.4707,11.9879c-1.1847,2.2226-3.4332,3.6289-5.5157,5.0452s-4.2142,3.1112-4.9164,5.53c0,0,18.32-.15,18.2479-.0574a10.6011,10.6011,0,0,1,.8743-3.5707,1.75,1.75,0,0,1,.812-.988,1.2829,1.2829,0,0,1,1.5318.7291,3.3792,3.3792,0,0,1,.1719,1.8378,4.7259,4.7259,0,0,0,.0247,1.8575l2.6015-.2158-.5031-22.5683Zm58.5355-16.7984-6.0448,6.0374.2144,9.1557,1.4986,2.1022a6.9216,6.9216,0,0,1,1.4039,4.5067,12.2543,12.2543,0,0,1-.7809,3.357,7.4141,7.4141,0,0,0,.3782,5.772c.176.0167,11.2887-11.2472,11.2887-11.2472q-.28-1.0986-.5608-2.197a1.0175,1.0175,0,0,1,.002-.7433.7567.7567,0,0,1,.5546-.33,2.941,2.941,0,0,1,1.9858.6913c.0685.0078,2.0049-2.2481,2.0049-2.2481Zm-22.6906-65.5272-3.8915-16.5912-5.7216-20.012s-8.0451,3.1137-8.212,3.0212a14.9,14.9,0,0,1-11.78,6.99,18.8726,18.8726,0,0,1-9.8134-2.5124,59.6187,59.6187,0,0,1-8.2169-5.861,106.1386,106.1386,0,0,0-.984,35.4664Zm-258.3831,63.96a41.2786,41.2786,0,0,0-6.6056-.2114,21.4555,21.4555,0,0,0,2.73,7.5316s6.2922-6.1891,6.46-6.2147A3.483,3.483,0,0,0,152.5935,197.6253ZM4.3158,232.4133a9.9743,9.9743,0,0,0-3.5746,4.5936c-.643,2.0381-.2158,4.2453.29,6.3217a13.1319,13.1319,0,0,0,2.3475,5.4941c1.8552,2.2,4.8725,3.0577,7.7434,3.2521A22.8644,22.8644,0,0,0,22.576,249.85c.1988-.0352-7.2205-22.0335-7.2205-22.0335A22.0625,22.0625,0,0,0,4.3158,232.4133Zm44.5232,93.766a44.1242,44.1242,0,0,1,6.09-.4119,9.607,9.607,0,0,0,5.7017-1.8815c2.2659-1.9292,2.877-5.357,5.2666-7.1308,1.6531-1.2269,3.8247-1.415,5.8-1.9945a14.3822,14.3822,0,0,0,9.4676-18.7174l1.2505-5.3769a26.9,26.9,0,0,0-3.3086-1.9519l-3.4071.9423a6.8876,6.8876,0,0,1-1.71,3.7178s2.6288,3.5978,2.6335,3.7409a14.0539,14.0539,0,0,1-1.1216,4.4609,6.8732,6.8732,0,0,1-3.0906,3.3154c-1.9249.9341-4.2088.6583-6.2754,1.2122a7.5831,7.5831,0,0,0-4.1945,2.8577,21.4848,21.4848,0,0,0-2.7467,4.372,10.0694,10.0694,0,0,1-3.2923,3.9189c-2.18,1.3356-5.0095,1.109-7.2925,2.26a8.3369,8.3369,0,0,0-3.5969,3.8441,13.685,13.685,0,0,0-1.2814,5.3722q.1142.38.2284.7594A6.7588,6.7588,0,0,1,48.839,326.1793Zm58.613,91.0978-.615-2.5418-3.7709-32.4716-4.1874-21.84-4.7748-18.8532-1.218-5.02a34.4921,34.4921,0,0,1-13.9365,2.8324,54.8728,54.8728,0,0,1-19.9365.1383l-4.3976,8.12-5.41,24.091-4.0037,20.1131L40.2886,418.59,36.6335,450.721l-.3826,12.3a35.333,35.333,0,0,0,21.5938.31c.0065-.1239,3.4462-21.1687,3.4462-21.1687L64.11,415.866l4.9211-17.2543,5.0747-21.2834,3.9368,14.6093L84.61,416.8652q.2891,12.62,1.749,25.1776c.0592.3812,3.45,21.3485,3.45,21.3485a64.9381,64.9381,0,0,0,20.3114-1.91c-.1025-.2772-.8731-17.5078-.8731-17.5078ZM320.255,92.9337a270.7377,270.7377,0,0,0-33.9176-61.0422C278.08,22.28,269.4483,12.9914,260.5395,3.98c-1.4768-1.4939-3.1523-3.0718-5.2474-3.2246-2.1063-.1535-3.9993,1.179-5.8332,2.7848A214.2113,214.2113,0,0,0,199.77,69.501a141.3366,141.3366,0,0,0-11.2089,23.4932L247.41,91.89l57.019.862S320.2385,93.0326,320.255,92.9337ZM249.8171,348.6368l-.45,127.4376,10.0754-.2705.4413-95.0651-.1174-32.4143Zm-81.7958,12.9486c-6.8122,8.4138-10.9041,18.7673-13.2253,29.3413s-2.958,21.4367-3.4883,32.25a155.9062,155.9062,0,0,0,9.76,53.1105q6.97-18.4706,14.8381-36.5855a167.988,167.988,0,0,1,36.21-53.3059c-5.723-13.5091-11.3684-26.9872-16.6586-40.6033C184.5629,346.8305,174.8335,353.1716,168.0213,361.5854Zm177.0441,2.4464c-7.0858-10.1076-17.8279-17.4913-29.9319-18.69-5.2986,13.7748-10.8321,27.4591-16.2341,41.34a34.1036,34.1036,0,0,1,6.2094,6.45c2.11,2.6168,4.2193,5.2336,6.5629,7.6661a223.2862,223.2862,0,0,1,29.6042,53.1273c2.8246,7.314,5.6492,14.6278,8.9134,22.2458a150.3335,150.3335,0,0,0,6.89-77.16C355.9659,386.7181,352.1512,374.1394,345.0654,364.0318Z" fill="#92a519"/></g><g id="change3_1"><path d="M401.4761,32.3311a13.7765,13.7765,0,0,1-14.9353,8.9883,14.2323,14.2323,0,0,1-2.1855-4.5042,21.4518,21.4518,0,0,0,2.7962-2.5716,3.5115,3.5115,0,0,0,.5682-3.4793,2.6121,2.6121,0,0,0-4.5079-.3994c-1.4638-.5719-2.3464-2.2572-2.7168-3.8809a36.2119,36.2119,0,0,0-.98-4.8907,7.1972,7.1972,0,0,0-6.6569-4.5224,12.2615,12.2615,0,0,1,10.3527-.6074,12.6909,12.6909,0,0,1,7.2209,7.5878,12.92,12.92,0,0,1,6.619-.5831,6.4364,6.4364,0,0,1,4.7358,3.9952A7.5773,7.5773,0,0,1,401.4761,32.3311ZM121.2331,471.5385a18.0766,18.0766,0,0,0-5.58-2.29,22.7135,22.7135,0,0,1-5.6653-2.1,7.0628,7.0628,0,0,1-3.5387-4.6838l-14.1148,2.2117L94.29,477.2582s4.389-.0856,4.3943-.0856a5.1768,5.1768,0,0,1,1.0927-3.1422.6147.6147,0,0,1,.4737-.3c.2323.0156.3686.2617.4575.4769a19.3678,19.3678,0,0,1,1.0029,3.1787l19.3343-.5618a30.388,30.388,0,0,1,3.2082-.2881A6.5588,6.5588,0,0,0,121.2331,471.5385Zm-86.7373-1.57c-2.159.747-4.4054,1.2614-6.4789,2.22a9.4217,9.4217,0,0,0-4.9121,4.5538c-.12.2415,22.9337.6446,22.9337.6446l-.0588.1009a12.4513,12.4513,0,0,1,1.4886-2.1779,1.6206,1.6206,0,0,1,.8119-.5509,1.2639,1.2639,0,0,1,1.2655.6637,3.7041,3.7041,0,0,1,.3922,1.4626c.0818.07,4.5829.214,4.5829.214l1.3561-11.8009-15.6011,1.1446A12.884,12.884,0,0,1,34.4958,469.9684Zm97.1047-254.9951a4.7039,4.7039,0,0,1,.0015-4.3884,5.878,5.878,0,0,1-2.78-1.5641,3.0907,3.0907,0,0,1-.7571-2.9846c.3357-.9828,1.264-1.6728,1.6192-3.0044a6.1221,6.1221,0,0,1-2.2358-.9872,3.6609,3.6609,0,0,1-1.391-1.9725,4.05,4.05,0,0,1,.1561-2.2794,12.0863,12.0863,0,0,1,1.0111-2.0805L15.4922,227.5269l6.9871,22.6859L70.77,236.2742s64.3907-18.9587,64.6108-19.1442A4.325,4.325,0,0,1,131.6005,214.9733ZM292.3327,163.02a37.992,37.992,0,1,0-37.9917,38.1329A38.0626,38.0626,0,0,0,292.3327,163.02ZM217.7841,397.6168l31.2806-.41.315-7.2138-35.1868.5986Zm41.9654-.6208,33.7042.3,2.9392-7.0681-36.7242-.1049ZM367.1833,35.4246a11.6676,11.6676,0,0,1-.9468-7.6318,8.1581,8.1581,0,0,0-4.1665,1.61,7.6227,7.6227,0,0,0-2.7308,3.3106,6.8931,6.8931,0,0,0-.2667,3.797,5.6026,5.6026,0,0,0,1.2894,2.76c1.2655,1.3669,3.2741,1.7166,5.1342,1.8172a30.5249,30.5249,0,0,0,5.53-.204,2.1224,2.1224,0,0,0,1.7034-.8286A10.8109,10.8109,0,0,1,367.1833,35.4246ZM345.4247,58.4569a23.2771,23.2771,0,0,0-9.2573-1.6473c-2.8929.0106-5.9051.4137-8.31,2.0214-3.1353,2.0962-4.6852,5.8227-6.0656,9.3325a29.7592,29.7592,0,0,1,8.2486-.3215,16.3169,16.3169,0,0,1,1.69,9.8179,55.89,55.89,0,0,1-2.3873,9.8523,33.9577,33.9577,0,0,0,20.581,2.1479,41.8934,41.8934,0,0,0,3.89-16.5419,17.7535,17.7535,0,0,0-1.4774-8.4749A13.6616,13.6616,0,0,0,345.4247,58.4569ZM77.8623,270.8132a13.2812,13.2812,0,0,0,6.1519-8.6068,6.277,6.277,0,0,0-6.437-2.6154,12.4393,12.4393,0,0,0-6.3283,3.5984,11.0363,11.0363,0,0,0-3.17,4.7008,14.0747,14.0747,0,0,0-.2587,4.7678c.2121,3.5475.4243,7.0951.55,10.465a9.3942,9.3942,0,0,0,7.6393-5.9322,3.272,3.272,0,0,1-1.8889-5.6531A3.9684,3.9684,0,0,1,77.8623,270.8132Zm17.7884,46.7344-6.1673-19.6629-1.7956-4.0842s-3.3431-8.4683-3.3126-8.26a19.3464,19.3464,0,0,1-12.0571,4.0342,25.1674,25.1674,0,0,1-4.0859-.3046l.7113,8.638s-.0382,8.2366-.0208,8.2617a8.7705,8.7705,0,0,0,7.6531-8.7382l-2.58-4.1375s2.3451-3.5845,2.1934-3.4856a32.3751,32.3751,0,0,0,3.1025-.95l2.8644,1.7473s-.858,5.2242-.9208,5.3258c.6861,2.6926,1.2518,5.6147.4721,8.3332a13.9053,13.9053,0,0,1-2.5793,4.5979,19.8983,19.8983,0,0,1-4.7739,4.6034,10.5473,10.5473,0,0,1-6.311,1.7965,105.7218,105.7218,0,0,1-9.926,24.524,69.15,69.15,0,0,0,34.6759-3.42Z" fill="#f6d46b"/></g><g id="change4_1"><path d="M91.6889,266.4089a1.4384,1.4384,0,0,1,.0081.9767,8.0963,8.0963,0,0,1-1.42,2.9444,10.5812,10.5812,0,0,1-1.87,6.8152c-.9362,1.2987-2.1877,2.34-3.1643,3.6089a5.2978,5.2978,0,0,0-1.2594,4.457,17.7119,17.7119,0,0,1-15.4315,4.0735c-.0731-1.3249-.0628-3.2331-.0525-5.1412a2.2466,2.2466,0,0,1,.1719-1.0392,2.3752,2.3752,0,0,1,1.5672-.9353,10.9353,10.9353,0,0,0,3.73-1.74,5.1214,5.1214,0,0,0,2.0517-3.4639,3.8427,3.8427,0,0,1-2.935-3.54,3.1187,3.1187,0,0,1,3.1606-3.0723c.468.04.9236.2006,1.3932.1965a3.696,3.696,0,0,0,2.4887-1.4567,20.2835,20.2835,0,0,0,4.2562-7.1082,8.9068,8.9068,0,0,0,5.8736,3.7549C90.8,265.823,91.4464,265.9156,91.6889,266.4089Zm27.8349-47.9265a1.6167,1.6167,0,0,0-1.7162.249c-1.2063.8827-1.59,2.4865-2.4207,3.7289a5.8146,5.8146,0,0,1-3.1687,2.3253.9991.9991,0,0,1-.9224-.0645.7444.7444,0,0,1-.1629-.7949,2.568,2.568,0,0,1,.4539-.727,9.6765,9.6765,0,0,0,1.3213-2.3279c.1013-.2557.1787-.5823-.0158-.7767-.207-.2069-.5567-.1032-.82.0248a9.9343,9.9343,0,0,0-5.26,6.62,11.3,11.3,0,0,0,1.5941,8.379s6.1132-2.5777,6.2554-2.8452a5.1116,5.1116,0,0,1,1.9269-3.9149,16.9838,16.9838,0,0,0,3.1406-3.2236,7.0844,7.0844,0,0,0,.5466-5.3926A1.956,1.956,0,0,0,119.5238,218.4824ZM33.457,238.8018a5.88,5.88,0,0,0-.5836-1.0464.9493.9493,0,0,0-1.0638-.34.885.885,0,0,0-.4455.8218,2.5986,2.5986,0,0,0,.2573.9474,6.9744,6.9744,0,0,0,2.3451,3.4507c.3867.2446.8916.535.8309.9887-.0584.4371-.613.603-1.0527.5686a4.87,4.87,0,0,1-2.9727-1.7073,16.8634,16.8634,0,0,0-2.4853-2.4627,3.1373,3.1373,0,0,0-3.2983-.3481,2.6479,2.6479,0,0,0-1.1522,1.751,4.4236,4.4236,0,0,0,.161,2.1293,6.7682,6.7682,0,0,0,3.0974,3.8866,17.6733,17.6733,0,0,0,2.69,1.1057,7.7812,7.7812,0,0,1,2.5471,1.3756,2.6188,2.6188,0,0,1,1.0382,2.37s5.8216-.4574,5.8838-.54c.0794-1.4672.4273-2.9094.5176-4.376a6.26,6.26,0,0,0-1-4.1966C37.3676,241.3336,34.5647,240.8393,33.457,238.8018Zm350.3773-76.2862L368.65,160.4385l.8372,6.7822,5.9461,38.7464,1.19,9.6828,12.421-.0794s-.0793-38.0964.1721-38.1465A53.4738,53.4738,0,0,1,383.8343,162.5156Zm33.6444,10.74c-1.9634-1.961-4.2071-3.6247-6.1643-5.5919a14.0213,14.0213,0,0,1-4.17-7.0593l-11.9522-.6174-.6788,13.7362a21.5753,21.5753,0,0,0,5.9783,7.88l21.6241,24.6231s-.3064-25.713-.4212-25.9361A14.1674,14.1674,0,0,0,417.4787,173.2558Zm10.181,20.1717.0587,11.2624,4.8534-4.0892ZM353.54,69.9111a7.0387,7.0387,0,0,1-.4823,5.271,52.3377,52.3377,0,0,1-8.8788-.94,1.9209,1.9209,0,0,0-1.1747.0168,1.4472,1.4472,0,0,0-.6245,1.5532,4.7763,4.7763,0,0,0,1.0348,2.1193,11.02,11.02,0,0,0,6.7685,4.3894c1.108.1829,2.2392.15,3.3586.2387a6.6505,6.6505,0,0,1,3.2773.9982s5.3954-4.6438,5.3858-4.7489C358.9541,76.1513,357.1214,71.8878,353.54,69.9111Zm-22.072-34.457a12.5791,12.5791,0,0,0-4.5613-1.3167,3.603,3.603,0,0,0-2.0516.1308,3.1146,3.1146,0,0,0-1.3893,2.8609,11.8585,11.8585,0,0,0,1.5884,5.7529,9.2206,9.2206,0,0,0,2.4187,3.0683c.9475.7216,2.09,1.1476,3.0566,1.8439,1.8622,1.3423,2.8826,3.533,3.6484,5.4418l.3425-.0688s6.2218-2.9336,6.4717-2.9914q-2.27-4.2581-4.5406-8.5162C335.186,39.2854,333.8044,36.7888,331.4683,35.4541Zm44.4757,10.13-1.9016,19.174,7.2169-8.0833s7.8678-10.8565,7.9561-10.8713a24.79,24.79,0,0,1-4.4292-8.99,6.7682,6.7682,0,0,0,3.0883-4.2989,3.4028,3.4028,0,0,0-.0337-1.8681,1.7388,1.7388,0,0,0-1.3548-1.18c-.8575-.0968-1.6136.6129-2.4745.6715a2.52,2.52,0,0,1-1.81-.7774c-1.6317-1.5129-1.9988-3.9084-2.371-6.1022a7.1449,7.1449,0,0,0-1.1839-3.3167,5.7536,5.7536,0,0,0-1.8618-1.4372,10.6348,10.6348,0,0,0-4.3549-1.2721,18.0464,18.0464,0,0,0-5.72,10.8366,9.3315,9.3315,0,0,0,.2028,7.2133,9.1692,9.1692,0,0,0,6.0013,4.9334Z" fill="#fff4dc"/></g><g id="change5_1"><path d="M372.5471,30.6079c-.4382.3149-1.0984.1608-1.2233.2565-.563.0777-1.3348.298-1.7045-.279a.8423.8423,0,0,1,.0075-.73c.4085-.9645.7348-1.96,1.0922-2.944a.57.57,0,0,1,1.0327-.135c.2246.5622-.2868,1.1541-.3957,1.7127-.1489.4416-.323.8741-.4921,1.308.0393-.006.087-.0128.146-.0207a3.201,3.201,0,0,1,1.4228-.0564A.5708.5708,0,0,1,372.5471,30.6079Zm3.5727-.3264a.5714.5714,0,0,0-.7731-.2027c-.3963.3321-.2326.4813-.6384,1.0218a3.3086,3.3086,0,0,1-1.1742,1.01c-.6279.3362-1.001.0705-1.451.397a.57.57,0,0,0,.3995.9645,3.7979,3.7979,0,0,0,2.6007-1.0736C375.5329,31.8739,376.3752,31.0087,376.12,30.2815Zm-1.3373-7.4555a3.1073,3.1073,0,0,1,1.8848.7435,2.4531,2.4531,0,0,1,.1722.2723.5688.5688,0,0,0,.7729.2026c.7439-.5489-.2144-1.4364-.7451-1.7494a4.0023,4.0023,0,0,0-2.3024-.55A.565.565,0,0,0,374.7825,22.826Zm.1,4.2108a.6962.6962,0,0,0,0-1.3918A.6962.6962,0,0,0,374.883,27.0368ZM369.29,24.7976a.6962.6962,0,0,0,0,1.3918A.6962.6962,0,0,0,369.29,24.7976ZM75.8994,272.2335c-.3313-.147-.68-.4311-1.0572-.3525a.57.57,0,0,0-.135,1.0325,4.3159,4.3159,0,0,1,1.3365.8159.5681.5681,0,0,0,.7989,0C77.4108,273.0575,76.3645,272.5638,75.8994,272.2335ZM86.2271,267.02a.6718.6718,0,0,0,0-1.3431A.6718.6718,0,0,0,86.2271,267.02Zm69.2205-67.4361-19.8517,18.3942a.6373.6373,0,0,1-.226.1243l-13.9765,4.0336a4.1389,4.1389,0,0,1-.4632,2.3614c-.983,2.2711-3.2314,3.4913-4.8584,5.2313a4.2256,4.2256,0,0,0-.5762.8587,4.2979,4.2979,0,0,0-.2034.8361c-.0113.0565-.0339.2147-.0565.3616.7344-.2712,1.4688-.531,2.2032-.8022a.4917.4917,0,0,1,.4972.1243.543.543,0,0,1,.1921.0564c.2938.17.2824.52.3728.8135.7,2.7343,1.83,5.333,2.4632,8.09a86.8082,86.8082,0,0,1,1.706,14.5978c1.1638,16.3831-5.0731,26.0886-16.496,37.0257a83.48,83.48,0,0,0-6.5532,7.0617,14.0412,14.0412,0,0,0-.8587,1.3672c.35,1.5591.7118,3.13,1.0394,4.7a186.1512,186.1512,0,0,0,6.7792,24.01,1.1261,1.1261,0,0,1,.2486.226c-.3164,3.5478-3.706,7.604-4.8132,10.406a1.0185,1.0185,0,0,1-1.5479.0113c-.339-2.7907-.8361-5.5589-1.435-8.3045a5.8884,5.8884,0,0,0-.8925.0226c-1.322.0678-2.6326.2034-3.9433.3164-.2034,1.4236-.4181,2.8133-.6327,4.1692.0226.0113.0565.0226.0791.0339.5084.4181.35,1.6269.5875,2.2936.6553,3.48,1.5705,6.8921,2.5422,10.2931,2.6891,9.8411,4,19.9986,5.9883,29.9866,2.0225,12.7675,3.0393,25.5236,5.0844,38.3137a4.2305,4.2305,0,0,1,.113,1.0734c.1016,3.0845.2825,6.1691.4519,9.2423.7005,11.5246,2.2372,22.9927,2.1468,34.5513a.5364.5364,0,0,1-.7.531c-.0453.0113-.0905.0226-.1469.0339-.8814.2147-1.7739.3954-2.6665.5423a3.3261,3.3261,0,0,0,.1921.7119c1.0733,3.6494,4.542,4.3047,8.6886,5.299,3.6721,1.1864,8.8017,3.22,8.79,7.7735a.47.47,0,0,1-.1581.3616.5757.5757,0,0,1-.3164.3389c-7.1746.7231-15.4678.1582-22.0775.6666a.5283.5283,0,0,1-.6441-.305.6373.6373,0,0,1-.418-.5876c-.1243-.5988-.2034-1.22-.3729-1.8077a.4627.4627,0,0,0-.0226-.0678c0-.0113-.0112-.0226-.0225-.0453-.1695-.3276-.26-.35-.3729-.4067a3.17,3.17,0,0,0-.7,2.5083.5223.5223,0,0,1-.1469.3615.5881.5881,0,0,1-.52.5085c-1.39.17-2.7907.2034-4.18.35a.4777.4777,0,0,1-.35-.1243.5523.5523,0,0,1-.4971-.1469c-1.0056-3.9432-1.3446-9.649-2-13.7957-.6892-.0452-1.3672-.1129-2.0564-.2259a.5518.5518,0,0,1-.4971-.4746.3516.3516,0,0,1-.1017-.079c-2.3049-14.4849-5.5589-30.28-5.1861-45.59-2.045-6.3159-3.2314-12.8918-4.9714-19.2981-1.6044-6.5306-3.5365-12.9709-5.0166-19.5241-1.2993,5.6832-2.61,11.3552-4.1014,16.9932-1.7287,6.7227-3.0958,13.5584-5.4007,20.1229a.3459.3459,0,0,1-.0452.09c-.1808,1.8868-.3842,3.785-.565,5.6719-.61,6.2256-1.22,12.4511-1.9547,18.6541-.8474,7.5927-2.7455,15.4-3.48,22.5295a.52.52,0,0,1-.226.4406.55.55,0,0,1-.2147.4858c-.644.1922-1.2993.3729-1.9547.5424,0,.1921-.0451.4068-.0565.5875-.3728,3.83-.7005,7.6832-1.1863,11.502a1.2926,1.2926,0,0,1-.26.7458c-.0227.0452-.0227.1016-.0678.1356-.4294.3389-1.0734.0677-1.5819.1355-.8925.0113-1.7739.0791-2.6664.1018a.73.73,0,0,1-.8588-.4746.76.76,0,0,1-.1581-.6328,4.7074,4.7074,0,0,0-.2938-1.2767c-.0452-.079-.09-.1469-.1356-.2147l-.0452-.0452a6.4693,6.4693,0,0,0-1.8643,2.1581.641.641,0,0,1-.8925.61,64.8328,64.8328,0,0,1-8.248-.0451c-4.9489-.1244-9.8864.192-14.8239-.2035a.5746.5746,0,0,1-.3955-.9716,1.034,1.034,0,0,1,.1131-.0565,5.008,5.008,0,0,1,1.7739-2.7117,22.98,22.98,0,0,1,8.2931-4.2144,30.2376,30.2376,0,0,0,4.5873-1.2881,4.439,4.439,0,0,0,2.0112-2.3613c.1581-.4069.1807-.8927.3389-1.2994a10.0906,10.0906,0,0,1-3.7511-1.5706.51.51,0,0,1-.2486-.3276c-.0113-.0226-.0339-.0339-.0452-.0678.2711-14.112,2.2259-28.1788,3.7625-42.2117a.4831.4831,0,0,1,.1016-.3164c1.3785-12.01,4.2935-23.795,6.7114-35.6246,1.7965-9.7169,4.09-19.31,5.977-29.0037.61-3.3331,1.6157-6.5758,2.26-9.8976-.61.8135-1.2316,1.6044-1.8417,2.35-.0113.0113-.034.0226-.0452.0339-.1582.4632-.8248.8813-1.1525,1.1864-.5536.3615-1.514,1.2315-2.0563.4519.52-7.6153,2.497-15.6825,3.1636-23.4786-.1243-.0226-.226-.0339-.3051-.0452a10.2776,10.2776,0,0,0-7.604,3.141c-.26.09-.3616,1.2768-1.1976.9039a.5776.5776,0,0,1-.2825-.4971c.09-1.0395.2034-2.079.3842-3.1072a15.2784,15.2784,0,0,1,3.0732-6.44c1.74-2.045,5.0279-2.1806,7.4232-2.6777a.86.86,0,0,1-.0339-.2373.8212.8212,0,0,1,.0452-.2825v-.0565c.3841-2.6439.61-5.83.87-8.9033a1.16,1.16,0,0,0-.2824-.0113,63.02,63.02,0,0,1-7.57-.96c-6.6889-1.4349-14.8013-3.1184-18.1118-9.8185-2.497-4.6438-2.8585-10.0107-3.1749-15.1741-.9265-9.92.2711-19.7953,1.2089-29.6477a.5621.5621,0,0,1,.78-.52.4634.4634,0,0,1,.2373.2034,31.8228,31.8228,0,0,1,4.768-.4294c-.0338-.0678-.0678-.113-.0791-.1469a4.8371,4.8371,0,0,0-2.2936-2.26,6.9315,6.9315,0,0,0-1.2993-.4632l-10.101,2.915a23.9917,23.9917,0,0,1-6.8357,1.0169c-.26,0-.531-.0113-.8022-.0226a12.2974,12.2974,0,0,1-6.9261-2.158,10.985,10.985,0,0,1-4.011-6.4516c-.9378-4.1127-.3954-7.2311,1.7626-10.1123a13.9418,13.9418,0,0,1,4.1014-3.7512,24.1239,24.1239,0,0,1,6.2142-2.3953c3.65-1.1411,80.8306-22.9588,114.3989-32.4384a.5286.5286,0,0,1,.1921-.0226l.2034.0226a.43.43,0,0,1,.1694.0113l27.1846,1.9547a1.25,1.25,0,0,1,1.1185.8587A1.2647,1.2647,0,0,1,155.4476,199.5836ZM16.9487,251.0489c-.87-2.8811-1.9207-5.7283-2.8134-8.6095-1.3671-4.2257-2.44-8.5531-3.9319-12.7336a13.8342,13.8342,0,0,0-7.0956,4.9375c-1.9433,2.5874-2.4178,5.4234-1.57,9.1859A9.8175,9.8175,0,0,0,5.13,249.6141a11.1027,11.1027,0,0,0,6.2934,1.9546A22.3914,22.3914,0,0,0,16.9487,251.0489Zm4.8132-1.3219c-1.1863-3.74-2.4744-7.4684-3.7737-11.1856-1.1638-3.3784-1.9886-6.8583-3.0958-10.2479-1.1977.339-1.9095.5536-2.0225.5875-.5762.1582-1.1072.3051-1.6157.4633,1.0395,2.8133,1.8982,5.7058,2.6778,8.5982,1.1863,4.3274,2.87,8.4966,4.0675,12.824v.0226c.2373-.0678.4632-.113.7-.1807Zm11.7507.9152a6.0528,6.0528,0,0,1,.4971.9717c1.5366-.0339,3.0845-.0565,4.61-.1808-.0113-.4858.2259-.9829.2485-1.4688a20.5031,20.5031,0,0,0,.2938-4.09,5.4722,5.4722,0,0,0-.1243-1.0508.2875.2875,0,0,0-.0226-.0791,4.3389,4.3389,0,0,0-1.175-1.9434c-1.04-.6778-2.3276-.9378-3.2427-1.8077-1.0847-.96-1.7514-2.4744-2.418-2.836a.5079.5079,0,0,1-.1017-.0678,5.3726,5.3726,0,0,0,.61,1.9434,8.76,8.76,0,0,0,1.39,1.627,5.2475,5.2475,0,0,1,.5649.5537.039.039,0,0,1,.0113.0225c.3728.35.8587.644,1.0395,1.1412a1.15,1.15,0,0,1-.9039,1.3332,3.5617,3.5617,0,0,1-1.65-.1356c-2.2823-.5988-3.4687-2.8585-5.22-4.237a7.3914,7.3914,0,0,0-.9039-.5875.2082.2082,0,0,1-.0791-.0226v.0565a.9422.9422,0,0,0,.0678.2373,11.9324,11.9324,0,0,0,2.2146,2.5083c.723.61.9717.8022,1.6044,1.2654a.5546.5546,0,0,1,.26.6328.5638.5638,0,0,1-.8248.3389c-.9378-.7118-3.5025-2.5987-4.237-4.2482-.0339,1.3784,2.1468,3.3443,3.7512,4.3725a.5639.5639,0,1,1-.6553.9152c-1.74-1.2654-3.9319-2.8134-4.18-5.107-.4181,1.04.9942,3.2427,2.8134,4.6324.3954.4181.7343.339,1.1411.983a.5689.5689,0,0,1-.6214.7118,10.8689,10.8689,0,0,1-3.0959-2.6551.3428.3428,0,0,1-.0564-.0791,7.6963,7.6963,0,0,0,2.0563,2.5309,6.9889,6.9889,0,0,0,1.966.78,18.5324,18.5324,0,0,1,1.7964.644c.1356.0678.2713.1243.3955.1921A6.1745,6.1745,0,0,1,33.5126,250.6422Zm22.71,57.2616a1.0416,1.0416,0,0,1-.2147.1469c-.0791,2.9489-.5423,6.5871-.8247,8.9711a.4308.4308,0,0,1-.0113.17c.1468-.0452.2824-.1017.418-.1582,1.6-.6177,2.4022-1.9635,3.0869-3.5083-.283-.3757-.8383-1.0074-1.2442-1.5529a.5649.5649,0,0,1,.6172-.9158,7.4174,7.4174,0,0,1,1.1235,1.3028c.78-1.8847,1.6233-3.8694,3.6138-5.1217,1.7852-1.2994,3.8755-1.4123,5.8076-1.65.1242-2.44-.0227-6.1578-.1695-9.0277a49.6655,49.6655,0,0,0-.4293-6.9712c-.034-.0339-.034-.09-.0566-.1356a69.2112,69.2112,0,0,1-11.728,1.2542,15.8349,15.8349,0,0,1-12.7335-4.7455,21.1467,21.1467,0,0,1-4.0368-9.8579c-.2893.2453-.5773.4922-.87.7331-.7.4468-1.56,1.5858-2.3858,1.5759a.5643.5643,0,0,1-.2935-.887c.2562-.267.61-.4369.8919-.6811.2737-.2047,1.7621-1.4684,2.4652-2.043a81.3664,81.3664,0,0,1-.4369-10.3865c.1469-3.254.5988-6.4968.9152-9.7395.1017-.3728.0339-1.401.113-2.2258-.78.1243-1.6383.0678-2.4066.1808-3.1184.1356-6.2482.1017-9.3553.5084-.0565.9152-.2147,1.853-.2711,2.78-.0135.154-.0289.3079-.0426.4619a18.2106,18.2106,0,0,1,2.1408,2.4951c.3028.57.8189.63.58,1.34-.5489.7482-1.1144-.14-1.4379-.6138-.4209-.54-.86-1.1458-1.4162-1.7695-.3845,4.1417-.8159,8.2845-1.0215,12.4359-.1022,2.7724-.0086,5.5443.1358,8.3118.3-.29.59-.5895.8969-.8706a.5649.5649,0,1,1,.7989.7989c-.5573.4994-1.0837,1.0318-1.6172,1.5562.0772,1.3269.1591,2.653.2375,3.9767.3389,5.13.9943,9.92,3.8642,14.27a14.6215,14.6215,0,0,0,6.3169,4.7583c.7372-.6942,1.5072-1.353,2.2091-2.0843.2635-.2875.6033-.7,1.0282-.4434a.5691.5691,0,0,1,.1143.8872c-.6932.7445-1.4493,1.4234-2.1969,2.1112a58.4316,58.4316,0,0,0,8.7419,2.3524,49.7594,49.7594,0,0,0,6.35.87C54.1891,306.9547,56.9346,306.5818,56.2228,307.9038ZM39.7494,251.3089c.1582-.0113.3164-.0227.4859-.0453a.5916.5916,0,0,1,.1355.034.8073.8073,0,0,1,.4972.1694.5925.5925,0,0,1,.1582.4068c-.0566,1.4236-.1582,2.8472-.3277,4.2708a80.9362,80.9362,0,0,0-.757,11.8072c.09,5.6719.5988,11.2421,3.4234,15.965,1.7175,2.7455,4.6551,4.429,8.1012,5.3216,5.0392.9039,11.31-.0452,16.44-.87a2.2039,2.2039,0,0,0,.0113-.5423c.0791-3.3331-.1131-6.6888-.3616-10.0219-.2938-2.52-.9378-5.333-.52-8.2594a12.7582,12.7582,0,0,1,5.3556-8.53,8.8273,8.8273,0,0,1,10.79-.3955c1.8981,1.2768,2.915,2.9038,4.8244,3.7286a7.0217,7.0217,0,0,0,2.1694.8135,4.5847,4.5847,0,0,1,1.8191.6214,1.2548,1.2548,0,0,1,.2372,1.39,11.54,11.54,0,0,1-1.6722,3.5591,9.8269,9.8269,0,0,1-.5649,4.5986A9.0143,9.0143,0,0,1,88.74,277.646a17.9465,17.9465,0,0,1-1.9886,1.9434,7.3877,7.3877,0,0,0-2.5648,5.1861,13.9307,13.9307,0,0,0,1.7852-.4972,53.0626,53.0626,0,0,0,8.892-4.5534c3.9659-2.3613,7.2877-4.5533,10.18-8.2593,5.107-6.587,5.333-16.7671,3.0281-25.083a74.6306,74.6306,0,0,1-2.1355-8.2706c0-.6666-.8135-1.9207-.1808-2.3727a.566.566,0,0,1,.35-.2825c.4971-.226,1.0056-.4406,1.5253-.6666a15.274,15.274,0,0,1-1.6609-6.4063,16.3279,16.3279,0,0,1,.0791-1.8191l-65.7808,18.993A20.4487,20.4487,0,0,1,39.7494,251.3089Zm29.2861,36.8562c-.0113.1582-.0113.3728-.0113.5762a16.4675,16.4675,0,0,0,3.367.4858c3.6156.0339,8.3384-1.6722,10.4739-3.5251a2.204,2.204,0,0,0,.192-.3842,4.9269,4.9269,0,0,1-.0225-.7,9.9817,9.9817,0,0,1,.9038-3.2314c.8022-1.7739,2.4631-2.8812,3.7625-4.237a7.7949,7.7949,0,0,0,1.1524-2,3.992,3.992,0,0,1-2.7681-1.1864.57.57,0,0,1,.4068-.96c.26-.0113.4293.2034.61.3615a4.4,4.4,0,0,0,1.175.61c.61.1129.5537.1468.9717-.2034a.4391.4391,0,0,1,.0678-.1244,7.9083,7.9083,0,0,0,.1581-1.3557c.0791-.4633-.0451-.9605.0227-1.4237-.0227-.0452-.0565-.0678-.0678-.113-.1017-.4519.3276-.7909.5084-1.1637a7.9138,7.9138,0,0,0,1.2429-2.9942,1.0085,1.0085,0,0,0-.113-.0678,20.175,20.175,0,0,1-2.6778-.7457,15.7116,15.7116,0,0,1-2.4631-1.3332c-.1243.0452-.226.0565-.2711.113-.6328.3728-.8136.9829-1.2429,2a.5607.5607,0,0,1-.9491-.3277,2.7682,2.7682,0,0,1,.3164-1.1072,3.3141,3.3141,0,0,1,1.2315-1.4688c-.2146-.1921-.4293-.3955-.644-.5876-.0791.2373-.2034.4746-.2712.7118a17.73,17.73,0,0,1-2.1467,4.0337,15.75,15.75,0,0,1-3.2879,3.254c-.3164.1694-.5876.52-.96.52a.3668.3668,0,0,1-.2486.0225,4.14,4.14,0,0,0-2.1354-.5988c-2.3389.4294-2.3615,4.9375.2373,5.2765a2.9412,2.9412,0,0,1,.4067.0338.5426.5426,0,0,1,.7231.452A8.6751,8.6751,0,0,1,75.6,279.612a8.3445,8.3445,0,0,1-3.3444,2.5309c-1.0959.4745-2.158,1.0282-3.254,1.4914C69.0581,285.1483,69.1146,286.6623,69.0355,288.1651Zm4.2031-17.0723a3.2493,3.2493,0,0,1,4.3613-.644,15.0651,15.0651,0,0,0,5.74-7.8752.4444.4444,0,0,1,.1808-.2825,6.1228,6.1228,0,0,0-.7457-.5875c-3.22-2.35-6.5081-2.1016-9.7733.26a11.67,11.67,0,0,0-4.96,10.4625c.2373,3.1185.8926,6.4968.9265,9.9993.9717-.4632,2.2711-1.0281,3.367-1.6044a5.0631,5.0631,0,0,0,3.028-3.4235,3.1168,3.1168,0,0,1-1.4575-.6214A4.2354,4.2354,0,0,1,73.2386,271.0928ZM69.1711,289.905c.113.7683.2034,1.5366.2485,2.3162.034,2.192.1582,4.3952.2486,6.5872.4068-.6779.8248-1.3446,1.2768-1.9886,1.5027-2.2033,2.9263-4.4291,4.26-6.734A14.8785,14.8785,0,0,1,69.1711,289.905Zm.531,15.5131a5.8424,5.8424,0,0,0,.904-.2034c3.5364-.9152,5.3216-4.2031,5.3216-7.9882a.4853.4853,0,0,1-.1017-.1129c-.6214-.96-1.1751-1.9773-1.7852-2.949-1.39,2.1129-2.8246,4.2031-4.09,6.395a.6776.6776,0,0,1-.226.3051C69.77,302.3788,69.7812,303.9041,69.7021,305.4181Zm7.0052-9.0163c0,.0113.0226.0339.0339.0564,1.0621-.2937,2.1467-.4745,3.2088-.7456.2147-.0565.4407-.113.6553-.1809a.5156.5156,0,0,1,.226-.0564.81.81,0,0,1,.0791-.2825c.226-1.4462.4519-2.8925.757-4.3273-.8474-.5424-1.6948-1.0961-2.52-1.6723a.5769.5769,0,0,1-.1469-.1356,23.6686,23.6686,0,0,1-2.3049.7232.0414.0414,0,0,0-.0113.0338c-.61,1.13-1.2767,2.2259-1.966,3.2993C75.4305,294.1873,76.0407,295.3171,76.7073,296.4018Zm10.1236-3.6382c-.9378-2.271-1.8982-4.5081-2.9151-6.6775a5.7249,5.7249,0,0,1-2.271,1.7852q-.6948.356-1.4237.6779C82.3792,290.0293,84.639,291.3513,86.8309,292.7636Zm-32.19,32.54c1.9546.113,4.2821-1.22,5.7622-2.4857,1.4575-1.1637,1.9773-2.61,3.1072-4.3048a8.7178,8.7178,0,0,1,3.8528-3.5138c2.0338-.983,4.6438-.4746,6.0109-1.2316,1.7287-.8361,2.949-2.4066,4.4856-3.9771a12.3276,12.3276,0,0,0,3.6155-6.3386,19.3045,19.3045,0,0,0-.4745-6.7114.5664.5664,0,0,1-.0226-.1356.4192.4192,0,0,1-.1582.0453c-1.2541.35-2.5309.5536-3.785.8925a15.0736,15.0736,0,0,1-.2712,2.4744,9.2762,9.2762,0,0,1-2.192,4.18,8.9519,8.9519,0,0,1-4.542,2.3276c-2.3727.3954-4.3161.26-6.1578,1.3671a7.6562,7.6562,0,0,0-3.2878,3.9319c-.6441,1.6835-1.853,5.2426-4.3274,6.1352-2.2146,1.0847-5.4234.87-7.1634,1.8078a6.4615,6.4615,0,0,0-3.1863,3.5591,16.3406,16.3406,0,0,0-1.4123,4.542,16.9584,16.9584,0,0,1,1.5819-1.1411,11.4672,11.4672,0,0,1,5.6832-1.6948C53.014,325.01,53.5225,325.3263,54.6411,325.3037Zm5.872,8.1841a.4941.4941,0,0,1-.0736-.13c.0056.0134.0049.027.0118.04-.4476-.3949-2.0222-1.9793-2.759-2.8543a.565.565,0,0,1,.6172-.9159c.9175.8719,1.784,1.845,2.6985,2.7486.18-.4065.3655-.8106.5365-1.22a99.8372,99.8372,0,0,0,5.2878-14.564c-1.7626,1.13-2.7,3.1072-4.045,5.2878a11.5149,11.5149,0,0,1-3.5025,3.1411,10.32,10.32,0,0,1-3.48,1.3445,7.1293,7.1293,0,0,1-2.1355-.0113c-.1581,1.3558-.2711,2.7229-.4519,4.0788-.7457,5.7962-1.853,11.1292-2.44,16.6542-.0452.3955-.1356.9491-.2147,1.4011a5.3127,5.3127,0,0,0,.78-.6441,4.0571,4.0571,0,0,1,.3051-.3277.805.805,0,0,1,.2486-.3615A62.4676,62.4676,0,0,0,60.5131,333.4878ZM54.7992,466.91a34.879,34.879,0,0,1-15.66,1.4575,6.6413,6.6413,0,0,1-1.209.96,29.6073,29.6073,0,0,1-4.9262,1.4236,22.5345,22.5345,0,0,0-6.5306,3.0168,6.3038,6.3038,0,0,0-2.5761,2.7343c2.271.1469,4.5421.1921,6.8131.1582,5.0844-.2034,10.1688.305,15.2532.079a.3.3,0,0,0,.0339-.09,5.9563,5.9563,0,0,1,2.61-2.6891c1.3559-.2034,1.74,1.4688,1.83,2.5987,1.1186-.0113,2.2484-.09,3.3783-.0565C54.0648,473.5421,54.4829,470.2089,54.7992,466.91Zm51.7817-2.2484c-.1242-.2825-.26-.5762-.3615-.87l-12.44,6.2368c.3051,2.35.6215,4.5986,1.0282,7.073.2938-.0452.5988-.0226.8813-.0791.9265-.09,1.853-.1356,2.7682-.2259a3.067,3.067,0,0,0-.0113-.3277,4.3224,4.3224,0,0,1,.8022-2.4518,1.3175,1.3175,0,0,1,1.04-.6779c1.0733.079,1.5931,1.2089,1.7061,2.1693a10.1658,10.1658,0,0,0,.2373,1.13c2.5309-.4294,5.2086-.17,7.7848-.2938,4.5307.1582,9.05-.1356,13.57-.339a1.7674,1.7674,0,0,0-.0226-.35c-.3051-2.8134-4.4291-4.96-7.83-5.9544C112.3545,468.8192,108.1628,468.2543,106.5809,464.6613ZM92.9321,337.0769a.6155.6155,0,0,1-.2485-.0113c-4.2935,1.8191-8.9147,2.44-13.5358,2.9264-5.9544,2.26-20.9364,7.5588-24.1678,8.7-.8135,3.2428-1.57,6.5193-2.1806,9.8073-2.0564,9.8976-4.1805,19.7839-6.1691,29.7041-2.1129,10.3835-4.7115,21.2528-5.8866,31.2973-.1469.5084.0226,1.288-.2824,1.74-.1582,2.6891-.6328,5.4008-.8814,8.09-1.3671,10.9484-2.3727,21.9533-2.802,32.9808a8.2,8.2,0,0,0,2.0789.96,34.23,34.23,0,0,0,18.0214-.1242,3.7783,3.7783,0,0,0,.5875-.1582c.1695-4.2257,1.3219-8.4175,1.932-12.6093,2.0112-11.4568,2.836-23.0606,4.09-34.9355a.5059.5059,0,0,1,.2713-.4519c.8134-2.4066,1.5592-4.8471,2.158-7.31q5.1352-20.185,9.7281-40.4831c.113-.339.09-.78.4294-.9942a.5641.5641,0,0,1,.8361.418c-.7909,3.3783-1.5593,6.7792-2.3276,10.18a.434.434,0,0,1,.1244.1243c.5536,1.853.757,3.83,1.3558,5.6832,3.31,11.3664,5.7058,22.9814,8.9146,34.3817.0113.0114.0452.0114.0565.034.3729.61.0452,1.5818.1356,2.3049,0,3.5139.2034,7.0391.4068,10.5529.644,10.9823,3.141,21.637,4.6437,32.8113a.5505.5505,0,0,0,.0226.17,32.0029,32.0029,0,0,0,9.3214-.35c3.2088-.452,6.4176-.78,9.8524-1.5819-.0113-14.5413-2.2371-28.9584-2.5987-43.4885a5.9528,5.9528,0,0,0-.1243-.9152c-2.3275-14.4962-3.1749-28.224-5.7849-42.1892-1.39-7.0164-2.497-14.0894-4-21.0832C95.576,347.8671,93.8248,342.568,92.9321,337.0769ZM95.0789,316.92c-.2034-.6327-.4067-1.2654-.61-1.8869-2.0112-6.9034-4.2935-13.8182-6.9035-20.4167a2.49,2.49,0,0,0-.3728-.26c-1.4688-.9943-2.9829-1.9208-4.4969-2.8473a3.5154,3.5154,0,0,0-.1582.7458c-.2033,1.0847-.3728,2.1806-.5424,3.2765-.0112.0227-.0225.034-.0225.0566a1.3506,1.3506,0,0,1-.1017.3615.69.69,0,0,1,.2147.4633c.6214,2.8246,1.0169,5.8866.1468,8.7a16.2892,16.2892,0,0,1-3.9884,5.9092c-1.4575,1.5141-2.8925,3.2766-4.9488,3.9772-1.8982.5988-3.6269.35-5.107.87a101.303,101.303,0,0,1-6.5532,17.818,47.893,47.893,0,0,1-2.6326,5.2087,23.1894,23.1894,0,0,0,3.7738.6666,101.7185,101.7185,0,0,0,17.0948-.8022,43.5511,43.5511,0,0,0,12.1235-2.6213.8336.8336,0,0,1,.3954-.1581C93.3389,329.7554,94.22,323.0892,95.0789,316.92Zm3.706,13.1065c-.8249-3.57-1.8191-7.1069-2.9151-10.6095-.1356.9943-.2824,2.0564-.4406,3.13-.3277,2.35-.6892,5.0731-1.0734,7.7961.8022-.113,1.7852-.0678,2.497-.2034C97.4855,330.1283,98.1409,330.0266,98.7849,330.0266ZM110.86,234.6492a10.1428,10.1428,0,0,0,.992.8c.48.3436,1.4636,1.0555.5882,1.54a.4922.4922,0,0,1-.4353,0c-.9938-.7206-1.3475-1.1032-2.3448-1.7969-.02-.011-.0249-.0334-.0428-.0463-1.0137.417-1.9981.84-2.9125,1.2826.0565.2034.09.4181.1469.5762.4784,2.3111,1.0076,4.6035,1.6375,6.8671a.4919.4919,0,0,1,.1269-.0351,16.7726,16.7726,0,0,1,3.2256,1.1811c.331.1056.6436.39.5322.7676-.1483.518-.723.4668-1.089.2141-.8-.3643-1.474-.62-2.4544-.9615.1476.4978.2909.9969.45,1.4915,3.141,12.3607,1.1751,24.7554-10.2817,31.9413-2.9115,1.7646-5.8263,3.7123-8.9153,5.24.6067.6431,1.1171,1.4071,1.732,2.042.22.272.6166.4612.6222.85-.4316,1.949-2.683-1.7258-3.4-2.3956a26.3725,26.3725,0,0,1-4.1055,1.5062,79.5767,79.5767,0,0,1,3.6043,8.2931.5773.5773,0,0,1,.1356.3616c.78,2.0564,1.5253,4.124,2.2823,6.1691,1.7513,4.7228,3.2766,9.5134,4.6551,14.3605.0438.1325.0858.2657.1294.3982.4624-.6237.93-1.1711,1.2156-1.5829.1639-.3514.5238-.66.9151-.43a.5688.5688,0,0,1,.2027.773c-.6456.9948-1.1841,1.4954-1.6967,2.2815a.5183.5183,0,0,1-.2291.2125,142.8076,142.8076,0,0,1,4.2121,15.431c.5762-.6819,1.1512-1.365,1.7488-2.0282a.5649.5649,0,1,1,.799.7989c-.7467.8284-1.4666,1.68-2.1845,2.5335a.5372.5372,0,0,1-.0955.0646c.2985,1.5838.5627,3.175.768,4.778,1.4236-2.723,3.3218-5.5138,4.1014-8.0221a3.6353,3.6353,0,0,1,.1921-.644c-1.22-2.4518-1.7853-5.2991-2.6778-7.909a216.8716,216.8716,0,0,1-5.4573-21.6595.558.558,0,0,1,.3842-.6893c.2259-.35.5423-.7.7005-1.0055,2.4631-3.2315,5.5024-5.9658,8.3045-8.8921a69.0908,69.0908,0,0,0,8.5262-9.9269.5838.5838,0,0,1-.0293-.0593c-.8274-.9538-1.8585-1.7014-2.7572-2.5846a.5649.5649,0,0,1,.6172-.9158c.822.6529,1.5963,1.4076,2.3879,2.1093.1274.1515.2876.2957.4358.4476a32.09,32.09,0,0,0,4.5586-10.9332c1.6269-6.8583.8812-14.4171.1356-21.75a52.3815,52.3815,0,0,0-1.4237-7.1181c-.5988-2.1468-1.48-4.2257-2-6.395C115.1554,233.0237,112.9468,233.8273,110.86,234.6492Zm9.2111-11.022a14.8246,14.8246,0,0,1-1.7286,2.0337c-.2825.2825-.6215.7005-1.0508.4407a.5467.5467,0,0,1-.226-.7118c.2034-.2034.4067-.4294.61-.6441a1.2629,1.2629,0,0,1-.5988.3616.5635.5635,0,0,1-.52-.78c.26-.339.5423-.678.8134-1.0282.3955-.4972.7909-1.0056,1.1186-1.5027a4.6478,4.6478,0,0,0,1.0056-2.52v-.1016a.7786.7786,0,0,1-.0339-.09l-.0678.0339a5.9418,5.9418,0,0,1-1.2429,2.7794c-.1694.2486-.35.4859-.5084.7232a3.7521,3.7521,0,0,0-.5649.757v.0113c-.3955.5988-.8361,1.22-1.39.9716a.6035.6035,0,0,1-.2824-.4971.4685.4685,0,0,1,.0564-.2147c.26-.3615.5876-.7908.9379-1.2428a11.4422,11.4422,0,0,0,1.7174-2.7682.744.744,0,0,0,.0451-.1694,14.1257,14.1257,0,0,0-2.1467,3.0393,7.2783,7.2783,0,0,1-1.288,1.5479l-.0113.0113c-.96.8248-2.5649,2-3.8642,1.39a.8187.8187,0,0,1-.2259-.2146,1.26,1.26,0,0,1-.113-1.1412.9481.9481,0,0,1,.0565-.1921c.4858-1.48,1.8077-2.4179,1.9886-3.2653.0112-.0226.0112-.0565.0225-.0791-.0225,0-.0452.0113-.0678.0113a6.2145,6.2145,0,0,0-.757.4858c-.7005.6779-2.3953,2.418-3.4913,3.6834a9.996,9.996,0,0,0-.9152,1.22,1.8334,1.8334,0,0,0-.0565.2372c-.5988,2.4631.226,5.864,1.3107,8.1577,1.7626-.7458,3.593-1.4576,5.4685-2.1468a8.1347,8.1347,0,0,1,.3164-1.8868,5.5218,5.5218,0,0,1,1.4011-1.9434,35.2181,35.2181,0,0,0,3.3331-3.0732A7.18,7.18,0,0,0,120.0715,223.6272Zm13.9539-6.316a8.68,8.68,0,0,1-2.9942-2.0789,3.888,3.888,0,0,1-.3276-3.5591,6.9087,6.9087,0,0,1,.531-1.13c-1.435-.1695-3.062-.6553-3.6269-2.09a4.7494,4.7494,0,0,1,1.2767-4.8472,2.4844,2.4844,0,0,1,.26-.226,9.3272,9.3272,0,0,1-1.0734-.3841,4.0932,4.0932,0,0,1-2.1581-6.1578c-11.3664,3.2089-92.9879,26.2694-109.9584,31.15.8812,2.4744,1.514,5.0618,2.2484,7.5927,1.48,4.6438,3.2427,9.1746,4.6324,13.8408l4.4178-1.2766a3.9409,3.9409,0,0,1-.8813-.52c-1.6948-1.3785-4.0788-4.9375-2.6891-7.0617a.7627.7627,0,0,1,.1582-.1695,1.7356,1.7356,0,0,1,1.3219-1.22.481.481,0,0,1,.2825,0,1.274,1.274,0,0,1,.2034-.1356.5093.5093,0,0,1,.3955-.0678.8282.8282,0,0,1,.0791-.1356c.5761-.52,1.39-.1694,1.932.2147,1.627,1.0282,3.0619,3.1749,4.2709,3.932a4.5231,4.5231,0,0,0,2.0224.6665l.1356-.0338c-.3276-.339-.7-.6327-1.0281-.9718a.0414.0414,0,0,0-.0113-.0338,2.64,2.64,0,0,0-.26-.2486,8.1659,8.1659,0,0,1-1.65-2.09c-.3276-.8926-.87-1.9547-.4294-2.8812a.9567.9567,0,0,1,1.0847-.4858c1.57.5988,2.0338,2.2258,2.96,3.0732.6892.8248,2.2484,1.1412,3.4121,1.9659a5.01,5.01,0,0,1,1.5028,2.5084l66.4022-19.1851a21.6921,21.6921,0,0,1,2.6213-3.062c1.0281-1.0621,2-2.497,3.5364-2.8133.8926-.1131,1.288.8812,1.0169,1.6157a6.3539,6.3539,0,0,1-1.2881,1.9772,5.5625,5.5625,0,0,0-.4406.7119,3.3225,3.3225,0,0,0-.3051.6552c-.0226.0679-.0339.1131-.0451.1582a3.8711,3.8711,0,0,0,1.65-.6892,4.6525,4.6525,0,0,0,.9265-.7683,13.8909,13.8909,0,0,0,1.9321-2.78c.4181-.78,1.8417-2.5647,2.8021-2.158a1.3446,1.3446,0,0,1,.9265-.2034,1.2417,1.2417,0,0,1,.8134,1.1977,1.9947,1.9947,0,0,1,0,.26,1.523,1.523,0,0,1,.6667,1.627Zm14.01-12.4059a3.1906,3.1906,0,0,1-.4181-.7005,19.1036,19.1036,0,0,1-1.8755-6.3725l-18.1456-1.2994a5.1344,5.1344,0,0,0-1.0056,1.4463,2.9327,2.9327,0,0,0,.8925,3.4235,11.3883,11.3883,0,0,0,2.9038,1.1976.6431.6431,0,0,1,.1356,1.0509,10.6155,10.6155,0,0,0-1.3446,1.3219c-.6327.7343-.9378,2.9263-.2938,3.48.9379.9377,1.8982.8021,3.39,1.1411.7683.5989-.192,1.5253-.4067,2.1919-.6214,1.5819-.4519,2.8812,1.5479,3.9207a4.8141,4.8141,0,0,0,1.3446.6666c.2033.0678.4971.0791.7344.1582Zm6.6888-6.3273a.1375.1375,0,0,0-.1356-.1016l-7.7057-.5537a16.6123,16.6123,0,0,0,.6215,2.9716,25.0718,25.0718,0,0,0,1.0846,2.7342c.0791.1582.1921.3277.2825.5085l5.8075-5.3895A.1513.1513,0,0,0,154.7245,198.578ZM100.98,417.5044c.5-.0538.7547-.6037,1.1364-.8837.2866-.3137.731-.5087.94-.878a.565.565,0,0,0-.9159-.6172C101.62,415.6238,99.3744,417.0681,100.98,417.5044Zm393.37-275.092v95.4737h5.0844a.5665.5665,0,0,1,.5649.5649v7.909a.5594.5594,0,0,1-.5649.565H480.7923V475.7227a.5594.5594,0,0,1-.5649.5649h-7.9091a.5594.5594,0,0,1-.5649-.5649V419.7944h-41.805v55.9283a.56.56,0,0,1-.565.5649h-7.909a.56.56,0,0,1-.565-.5649V419.7944h-41.805v55.9283a.5594.5594,0,0,1-.5649.5649H370.63a.5594.5594,0,0,1-.5649-.5649V246.925H349.163a.5594.5594,0,0,1-.5649-.565v-7.909a.5665.5665,0,0,1,.5649-.5649h6.2143V142.4124H349.163a.5594.5594,0,0,1-.5649-.5649v-7.909a.5666.5666,0,0,1,.5649-.565h12.4511c-.0113-.192-.0113-.3728-.0226-.52-.1243-1.8191-.1582-3.65-.2938-5.48-.6779-9.649-.5875-19.4337,1.7175-28.8793,0-.0452.0451-.0678.0564-.1017a57.1126,57.1126,0,0,1-3.7963-4.3048c-.7005-.8587-1.4349-1.6948-2.1581-2.52-.0225.0113-.0338.0226-.0565.0339-.1242.113-.2372.0791-.4971.2486a13.92,13.92,0,0,1-2.4292,1.4462,8.0623,8.0623,0,0,1-4.8923.3615,9.8661,9.8661,0,0,1-4.4743-2.7116l-.0339-.0339a37.0264,37.0264,0,0,1-4.9262-.2712A29.4351,29.4351,0,0,1,329.47,87.75a.5391.5391,0,0,1-.1809-.7683c.0453-.1809.1357-.3729.1922-.5424,2-6.0335,3.0393-12.8127.1469-18.0666a.4731.4731,0,0,1-.0678-.1581,70.7293,70.7293,0,0,0-7.57.6327.5609.5609,0,0,1-.5085-.7683,1.2221,1.2221,0,0,1,.2034-.5762,44.9654,44.9654,0,0,1,3.22-6.2708,9.7538,9.7538,0,0,1,3.2427-3.13c-.3277-.7231-.7118-1.4123-.9943-2.1581a.5588.5588,0,0,1,.4859-.7005c.4745-.4067,1.3106-.4971,1.6835-.757,1.401-.61,2.7681-1.1863,4.1352-1.7626a15.2456,15.2456,0,0,0-2.158-3.4122c-1.0847-1.3558-2.7-1.8417-4.1918-3.141a13.9514,13.9514,0,0,1-4.124-7.2311.67.67,0,0,1,0-.26,3.0133,3.0133,0,0,1-.1921-1.6609.5446.5446,0,0,1,.1357-.2372,1.581,1.581,0,0,1,.0451-1.1977c-.757-.4971-1.5027-.9943-2.2484-1.514a1.9107,1.9107,0,0,1-.4293-.3164.6471.6471,0,0,1-.3164-.2486c-.5424-.5875-1.0282-1.22-1.5593-1.819-.305-.2938-.6779-.7345-.2937-1.1186a.4849.4849,0,0,1,.4181-.1469.48.48,0,0,1,.3276.0452,22.0386,22.0386,0,0,1,2.4292.6779c.0339.0113.0452.0226.0791.0339a.6289.6289,0,0,1,.3955.1808c1.062.6666,2.1128,1.3333,3.1749,2.0111a8.407,8.407,0,0,1,1.1976-.0564,10.1491,10.1491,0,0,1,4.1806,1.0394c2.915,1.2542,4.9262,3.8528,6.3272,6.621.0339.0678.0791.1244.113.1921a.1505.1505,0,0,1,.0339.0565c.0113,0,.0113,0,.0113.0113a.04.04,0,0,0,.0226.0113c2,1.4236,5.5363,3.5478,8.0785,5.1522a1.4929,1.4929,0,0,1,.6214.5536,1.0079,1.0079,0,0,1,.2825,1.04,2.4044,2.4044,0,0,1-1.1751,1.514.4774.4774,0,0,1-.3615.0678.0351.0351,0,0,1-.0227.0113c-.8021.0113-1.7286-1.0055-2.4517-1.401-.7-.4746-1.3784-.96-2.0677-1.4462.1356.2824.2712.5649.3955.8587.3051.6439.644,1.2767.949,1.9207.3051-.1243.6215-.26.9265-.3954a.5765.5765,0,0,1,.8249.3276c1.4462,2.1806,1.9546,4.3161,3.2652,6.3838.4633.8248.8474,1.7061,1.3446,2.5082a.56.56,0,0,1,.1469.2938,11.4043,11.4043,0,0,1,2.8586,2.1581c.1807.2034.35.4294.52.644a5.11,5.11,0,0,1,.2259-.7231,81.6568,81.6568,0,0,1,4.5308-9.7056c1.1186-1.8417,2.3275-3.7624,4.3274-4.768,2.4744-1.1073,5.2426-1.1073,7.9091-1.1185,2.3388.0678,4.7-.0453,7.039.1694-.8022-1.4349-1.4236-2.9715-2.2936-4.3613a28.549,28.549,0,0,1-4.0788.5988c-2.723.2373-5.785.3051-8.1012-1.3445-2.915-2.0451-2.7455-6.5193-.8587-9.22a10.02,10.02,0,0,1,6.3612-3.898h.0226c.9265-5.22,3.785-10.214,9.1519-11.66,7.05-2.1694,12.6432,2.4518,15.9085,8.3045a8.3526,8.3526,0,0,1,9.9541,1.39c2.5422,2.5535,1.5818,6.5758.1243,9.4457-1.5706,3.5365-5.0618,5.7623-8.7,6.734a11.7041,11.7041,0,0,1-5.1409.4632c.5876,1.096,1.22,2.2033,1.8079,3.1185.4632-.0565,1.0959.2146,1.4575.1808a77.3251,77.3251,0,0,1,9.57,1.0846c5.525,1.1186,7.9317,3.83,8.4514,9.4118.4972,8.2706-1.7287,16.4734-4.2935,24.2582-1.0508,3.254-2.2823,6-3.4687,8.9146-.4068.8927-.7909,1.8192-1.1864,2.723.0227.0226.0453.0226.0679.0452a66.3774,66.3774,0,0,1,3.9658,11.6715c1.5479,5.6945,3.706,11.14,4.5872,17.0158,1.1186,4.3839,2.6891,8.7,3.13,13.2081h87.9939a.5666.5666,0,0,1,.5649.565v7.909a.5594.5594,0,0,1-.5649.5649ZM388.9568,47.2665a112.9107,112.9107,0,0,1-6.813,9.0615c-1.9434,2.3727-4.35,5.2538-5.6494,7.0164a63.8534,63.8534,0,0,0,6.621-4.5081,10.9841,10.9841,0,0,0,2.1242-1.8191c-.0452-.1356-.1469-.52-.2034-.644-.2373-.6214-.52-1.48.3729-1.6722a12.188,12.188,0,0,0,4.3839-2.8133c.5761-.9943-.0791-2.9264-.26-4.5873a3.7214,3.7214,0,0,0-.1695-.7457A4.7,4.7,0,0,0,388.9568,47.2665ZM374.37,16.907a6.482,6.482,0,0,1,5.6041,4.0675c.6666,1.91.5084,3.7738.9491,5.39.35,1.5592,1.627,3.1862,2.6439,3.3783a2.1768,2.1768,0,0,1,.5085-.4068c3.13-1.48,5.2877.644,4.26,3.8754a5.7808,5.7808,0,0,1-3.2314,3.706,9.2134,9.2134,0,0,0,.4745,1.2768c.2712.5988.6441,1.3671,1.0734,2.2145a6.3052,6.3052,0,0,0,1.401.2938,13.6019,13.6019,0,0,0,5.9544-1.1186,11.0892,11.0892,0,0,0,5.7511-4.7341c2.0789-3.6156,2.7794-7.83-.5989-9.8977a6.7536,6.7536,0,0,0-6.0335-.8134,11.6133,11.6133,0,0,0-2.0111.8474.446.446,0,0,1-.2712,0,.5056.5056,0,0,1-.1242-.0113c-.26-.0678-.3729-.339-.5085-.5424-.4746-.8135-.9378-1.627-1.4576-2.4066a19.0231,19.0231,0,0,0-4.8131-4.5872A10.5755,10.5755,0,0,0,374.37,16.907Zm-2.9829,23.1622c-.61-.2937-1.3106-.5988-1.8417-.8925-2.6438-1.5593-3.7624-4.6551-3.83-7.6153a21.3447,21.3447,0,0,1,.1582-3.2653,5.5861,5.5861,0,0,0-1.096.305,8.16,8.16,0,0,0-3.13,1.7852c-2.836,2.61-3.254,7.7508.3616,9.3666a12.347,12.347,0,0,0,6.0447.7005c1.1977-.1356,2.3841-.2373,3.1862-.3615A.6575.6575,0,0,1,371.3874,40.0692Zm4.3161,4.1692c.2712.7119,1.4237,1.7852.757,2.2146-.2034,4.1466-1.1072,8.4627-1.4462,12.1347-.1243,1.7739-.2486,3.5591-.3389,5.333,1.6044-2.1242,4.1352-5.4234,6.3159-7.9429a95.6269,95.6269,0,0,0,7.152-9.5926,6.06,6.06,0,0,0,.3051-.5537,25.3461,25.3461,0,0,1-1.9434-3.3443c-.226-.4068-.4632-.8248-.6779-1.2429a.563.563,0,0,1-.2033-.3841,26.19,26.19,0,0,1-1.627-3.6947.6006.6006,0,0,1-.6441-.4181c-.1469-.9152.9717-.6553,1.1751-.8134a4.6326,4.6326,0,0,0,2.8472-3.5818c.5763-2.6438-1.6948-2.7116-2.9376-1.9094a.4794.4794,0,0,1-.2712.226c-.0113.0226-.0113.0564-.0339.0677-.2937.2938-.7683.1356-1.1073.034a5.5256,5.5256,0,0,1-2.8924-3.1749c-.78-2.0112-.5762-3.9207-1.0508-5.672A5.243,5.243,0,0,0,374.585,18.06a14.12,14.12,0,0,0-2.2371-.0565,8.3787,8.3787,0,0,0-.9943.78,11.8462,11.8462,0,0,0-1.6157,1.8869,2.3375,2.3375,0,0,1,.8021.1129.562.562,0,0,1-.2938,1.0847,1.48,1.48,0,0,0-1.3557.1695,18.59,18.59,0,0,0-1.74,11.7958,6.3754,6.3754,0,0,0,3.1749,4.4856c1.04.5762,2.2824.8587,3.13,1.7286A36.4127,36.4127,0,0,1,375.7035,44.2384Zm-1.4349,3.1976c-.9039,1.6157-2.0338,3.0958-2.9828,4.6776-.226.565-.2825.5988.4067,1.0734.5763.3615,1.3219.78,1.401,1.5253.0113.7231-.644,1.1864-1.062,1.7174a2.4531,2.4531,0,0,0-.2825.4406c0,.0226,0,.0113-.0113.0226a21.3541,21.3541,0,0,0,.6215,2.1467c.3954,1.2881.7795,2.9829,1.22,4.0676.1808-5.8414,1.4123-11.0727,1.7512-16.6768-.1694-.0226-.2824-.1017-.4632-.0565h-.0113C374.7092,46.7468,374.4268,47.0857,374.2686,47.436ZM326.7239,34.4877c1.22.78,2.44,1.5592,3.6494,2.35.0452.0113.0678.0452.1017.0678a.8328.8328,0,0,1,.52.0226,4.1416,4.1416,0,0,1,1.2316,1.0734,1.0723,1.0723,0,0,1,.4294.2373c.6214.4067,1.2428.8247,1.8417,1.2541A10.6406,10.6406,0,0,0,326.7239,34.4877Zm7.7735,17.7954c1.8868-.7909,3.74-1.5592,5.5476-2.3275-.531-1.0847-1.4237-2.949-2.0111-4.2144a.5466.5466,0,0,1-.0791-.2938c-.8136-.5875-1.6384-1.175-2.4858-1.74-.5423.3277-.9378-.305-1.288-.9151a.4672.4672,0,0,1-.0791-.1244,2.488,2.488,0,0,0-.4294-.5988,31.6456,31.6456,0,0,0-2.7681-3.83,2.8426,2.8426,0,0,0,.0112.7683,17.6941,17.6941,0,0,0,1.9321,4.5646.5732.5732,0,0,1-.6327.8362c-.6666-.3955-.8813-1.48-1.2994-2.1242a21.9679,21.9679,0,0,1-.836-2.0677c-.26-.1129-.4859-.3164-.7232-.4406-1.7851-1.2316-3.6042-2.3953-5.4233-3.57v.0565a2.27,2.27,0,0,0,.0791.26.5.5,0,0,1,.0452.0791c.8813,1.209,3.7964,2.6891,5.6719,4.1015.7683.3841.5989,1.4236-.2825,1.1863-1.0168-.7457-2.8133-1.8869-4.237-2.8585a13.183,13.183,0,0,1-1.2089-.87.4711.4711,0,0,1,.0226.0678c.3051,1.0507,1.8643,2.5761,3.254,3.6946.2712.2825.7231.4407.87.8248a.5769.5769,0,0,1-.5537.7118c-.9152-.3163-1.5817-1.2654-2.3727-1.83-.0677-.0678-.1355-.1356-.2033-.1921a12.376,12.376,0,0,0,5.6719,5.7849A13.3119,13.3119,0,0,1,334.4974,52.2831ZM328.43,56.0682a12.65,12.65,0,0,1,.7118,1.5591c.1017-.0452.1808-.1016.2825-.1356a28.5948,28.5948,0,0,1,8.5869-1.0394,24.8368,24.8368,0,0,1,7.8639,1.401c-.1017-.1807-.1921-.3616-.2824-.5536-1.48-2.5422-2.1581-4.5873-3.5478-7.0165C338.0112,52.1588,332.3393,54.3394,328.43,56.0682Zm9.1179,11.1969a16.4881,16.4881,0,0,1,2.26-3.4235,13.365,13.365,0,0,1,7.5814-4.0223c-2.8925-1.7061-6.5306-2.1807-10.214-2.26-8.0672.3164-10.2252,1.096-13.6714,8.6209a11.0927,11.0927,0,0,0-.5988,1.435A68.2377,68.2377,0,0,1,337.5479,67.2651Zm11.22,22.1341a.22.22,0,0,1,.09-.0113.8907.8907,0,0,1,.2373-.0678,17.7513,17.7513,0,0,0,1.6835-3.1411,13.9346,13.9346,0,0,0,.678-3.13,6.65,6.65,0,0,1-3.4349-.8135,8.0906,8.0906,0,0,1-3.141-2.1806,5.82,5.82,0,0,1-2.8586-3.5139,2.1031,2.1031,0,0,1-.1582-1.5479c0-.0113.0114-.0113.0114-.0226a1.2347,1.2347,0,0,1-.0565-.1921,1.07,1.07,0,0,1,.8361-1.1411c1.3784-.0905,2.7455.5762,4.124.723a21.3434,21.3434,0,0,0,5.977.2035c.0113-.3164.1355-.6441.17-.9492.0113-.1468.1355-.7456.1694-.9265-.0113.0114-.0113.0114-.0113.0227a14.7049,14.7049,0,0,0-3.4122-11.1066,9.1836,9.1836,0,0,0-.9378-.8361,2.2937,2.2937,0,0,1-.6665.1582c-4.1241.2372-7.7623,3.0393-9.6718,7.1407a.4631.4631,0,0,1-.2937.305A.3125.3125,0,0,0,338,68.361a.6009.6009,0,0,1-.3163-.0112q-3.4236-.22-6.8809-.1469a13.3948,13.3948,0,0,1,1.0508,2.4066c1.3332,5.4347.4745,11.1743-1.39,16.3831a18.69,18.69,0,0,0,2.7456,1.1185A34.4453,34.4453,0,0,0,348.7676,89.3992ZM354.2813,75.31c-2.1581.8926-4.6776.452-6.9487.2712-1.3219-.1469-3.9771-.8361-4.35-.8587,1.0281.9039,4.5081,1.9434,6.813,1.9886a24.15,24.15,0,0,0,2.8586.0226c.644-.1808,1.4123.2485.8926.9265a6.2745,6.2745,0,0,1-2.4406.2372,20.0892,20.0892,0,0,1-5.6832-.8135,14.8767,14.8767,0,0,1-2.3614-.9829c.9943,1.819,4.8472,2.7342,7.8865,2.7681a.5653.5653,0,0,1,0,1.13,20.2991,20.2991,0,0,1-5.2652-.8135,13.0375,13.0375,0,0,0,5.6832,1.3332c.3164.0339.6554-.113.9379.0452a.5692.5692,0,0,1,.1129.8813c-.78.4294-1.8868.1243-2.7456.0678-.26-.0226-.5423-.0678-.8135-.113a5.4591,5.4591,0,0,0,1.4463.4746c1.1637.1129,2.3388-.0339,3.5025.079a20.7865,20.7865,0,0,1,3.3105.7006c1.3333-1.2316,2.7569-2.6213,4-3.8416,0-.0112-.0113-.0112-.0226-.0226a32.31,32.31,0,0,1-2.4631-2.6664c-1.435-1.8869-2.7682-4.1128-4.3613-5.2879a15.672,15.672,0,0,1-.3164,3.4687A.5674.5674,0,0,1,354.2813,75.31ZM356.36,90.6985a33.3941,33.3941,0,0,1-3.0054-3.9206.4559.4559,0,0,1-.0565-.3616c0-.0226-.0226-.0339-.0226-.0564a.5552.5552,0,0,1,.17-.4069c.8474-.6892,1.65-1.4348,2.4518-2.1693.0678-.0678.1581-.1469.2259-.2147a12.7922,12.7922,0,0,0-3.5138-.531c-.0452.6892-.3277,1.5593-.35,2.1016a13.2937,13.2937,0,0,1-2.1241,4.6324,1.2209,1.2209,0,0,1-.4294.4858.5044.5044,0,0,1-.2259.1356,18.4647,18.4647,0,0,1-3.1071.452,8.7387,8.7387,0,0,0,2.1128,1.401,7.0706,7.0706,0,0,0,5.6154-.1582C354.7332,91.7606,356.0213,90.8,356.36,90.6985Zm7.4459,6.9261c4.542,4.3387,9.4569,8.474,15.4565,8.7226,7.5588,1.0394,13.0613-5.0844,17.05-10.96,1.7853-2.5535,2.8586-5.672,3.9433-8.1125a107.5,107.5,0,0,0,4.3952-12.067c1.7852-6.9712,3.57-13.3889,2.7568-20.6087-.8021-5.7962-4.5646-7.1181-10.2817-7.8187-1.74-.2824-4.0223-.4406-6.1917-.5762-.1582-.0226-.3277-.0452-.4859-.0565.2938,1.3333.3616,2.1693.5763,3.4235a4.603,4.603,0,0,1-.1356,2.6778,5.3436,5.3436,0,0,1-1.74,1.7061A21.7315,21.7315,0,0,1,386.2,55.6275a2.0019,2.0019,0,0,1-.1921.0678,3.1714,3.1714,0,0,1,.3277,1.627c-.5537,1.1412-1.7739,1.7851-2.7343,2.5535a54.2111,54.2111,0,0,1-8.8356,5.6832,1.4708,1.4708,0,0,1-.2937.1582c-.0226.0113-.0565.0226-.0791.0339a.1019.1019,0,0,1-.0565.0113.3591.3591,0,0,1-.1017.0339.6976.6976,0,0,1-.7118-.5536.4478.4478,0,0,1-.2486-.2486c-.0113,0-.0226-.0339-.0452-.113-1.0959-1.7061-1.7852-5.1861-2.5874-7.5927a2.1064,2.1064,0,0,1,.7344-1.8191l.4746-.5423a.9334.9334,0,0,0,.09-.1356,1.3578,1.3578,0,0,0-.2937-.2825c-1.4462-.8361-2.1807-1.6835-1.1638-3.2879,1.0621-1.6044,2.1694-3.1975,3.0959-4.881-2.2371-.0678-4.4743-.0791-6.7-.0791-2.3727.0226-4.8133.1582-6.6662,1.1751-3.7738,2.6325-5.9205,9.1519-7.83,13.3437-.2372.3616-.2372,1.0168-.4745,1.401.0339-.0452.0226-.0452-.0452.1017,0,.0113-.0113.0113-.0113.0226a.6136.6136,0,0,1-.1243.2033,16.03,16.03,0,0,1,2.44,6.9487.7277.7277,0,0,1,.3616.1808,16.1334,16.1334,0,0,1,4.1918,4.7567,27.3381,27.3381,0,0,0,3.22,3.6269c.2373-.2259.4519-.4293.6666-.6327-.26-.26-.3051-.78-.4293-1.1073a21.4277,21.4277,0,0,1-1.1864-4.7228,14.42,14.42,0,0,1,.3728-6.6549,30.7882,30.7882,0,0,1,3.3445-5.785.5784.5784,0,0,1,1.0394.1356c.0678.6215-.5988,1.0734-.8474,1.6045-1.2315,1.9772-2.4179,3.5477-2.7682,5.638a16.333,16.333,0,0,0,.26,6.61c.26,1.22.7683,2.3614,1.0734,3.57a.5027.5027,0,0,1,.0339.09.1615.1615,0,0,1,.0226.0678.8825.8825,0,0,1,.1581.0566.5892.5892,0,0,1,.1356.0338c1.966,1.7966,3.8416,3.7512,5.8075,5.57a75.4249,75.4249,0,0,0,8.3158,7.05c3.514-8.7451,7.3216-18.6766,11.4343-28.0319a.5628.5628,0,0,1,1.0395.3615c-.61,1.4915-1.2768,2.9716-1.8982,4.463-3.2088,7.3781-6.3046,15.9989-9.57,23.5351a1.1843,1.1843,0,0,1-.1469.2938c.3051.2259.61.4519.9265.6666a.5689.5689,0,0,1-.3615,1.0507c-5.9318-3.7737-10.8919-8.9259-15.9424-13.8182-1.8078,1.9208-3.7286,3.7512-5.6945,5.5476a.5222.5222,0,0,1-.1808.1695c-1.0056.9152-2.0111,1.83-3.0281,2.7343a19.2129,19.2129,0,0,0,1.3785,1.8643C358.5183,91.4668,361.1283,94.5739,363.8061,97.6246Zm-1.2429,31.8509c.0565,1.2993.09,2.5987.1921,3.898H380.77c-.7351-.9007-1.319-1.7022-1.914-2.4673a.57.57,0,0,1,.6381-.83c1.05.873,1.3844,1.8274,2.4387,2.943a.5661.5661,0,0,1,.259.2722c.0162.0259.0116.0552.0227.0822h28.12a1.5456,1.5456,0,0,0-.0226-.3277.0675.0675,0,0,1-.0113-.0451c-.9039-6.0109-3.1523-11.7054-4.1353-17.705-.34-1.4977-.787-2.9649-1.26-4.4246-.7139.8277-1.43,1.6534-2.1339,2.49a.565.565,0,0,1-.9159-.1818.4925.4925,0,0,1,0-.4353c.81-1.0864,1.7706-2.0787,2.64-3.1258-.4228-1.2687-.8523-2.5357-1.2447-3.8132-.531-2.1129-1.1411-4.3726-1.819-6.5758l-8.2142,1.9885c-5.6267,6.1352-12.3042,8.5305-21.5126,4.1241a44.9646,44.9646,0,0,1-7.717-6.0448c-.2147.9378-.3841,1.8869-.5762,2.8359-.0739.4-.1435.7918-.2123,1.1829a.6223.6223,0,0,1,.3714.2591c1.0827,1.1426,1.6454,2.0525,2.4909,3.0968.246.4049.8838.799.5937,1.3273-.4315.628-.9943.0809-1.2754-.3778-.962-1.1845-1.4895-2.0241-2.4008-3.0041a59.9648,59.9648,0,0,0-.8556,9.176A151.3656,151.3656,0,0,0,362.5632,129.4755Zm15.4114,118.376-6.7792,1.0055V475.1578h6.7792Zm50.8439,173.7619-6.7792,1.8643v51.68h6.7792Zm42.9349-9.7281h-92.649v6.7792h92.649Zm-50.844-1.13V310.1974h-41.805v100.558Zm7.9091,0V312.22l-6.7792,1.0056v97.53Zm42.9349-100.558h-41.805v100.558h41.805Zm0-7.909h-92.649v6.7792h92.649Zm-50.844-1.13V246.925h-41.805v54.2335Zm7.9091,0V248.01l-6.7792.7571v52.3918Zm42.9349-54.2335h-41.805v54.2335h41.805Zm7.909,2.0789-6.7792.9378V475.1578h6.7792Zm-129.9345-9.988v6.7792H498.87v-6.7792Zm11.2987-1.13V143.5084l-4.5195.7344v93.6433Zm26.3711,0h1.0281v-21.637c-4.2031.5649-8.5869-.0791-12.8466.3277.2938,2.4631.3277,4.96.565,7.4345,0,1.4914.6779,3.1636-.1356,4.5308-2.7569,3.9545-7.3441,5.7849-9.6152,9.344H383.07c.0113-.26.0791-.5311.1016-.78.113-1.9094,1.9547-5.2312,3.8416-2.7681a5.7129,5.7129,0,0,1,.3729,2.8924A4.1664,4.1664,0,0,1,387.3977,237.8861Zm-1.2655-2.7908c-.52-1.3671-1.7513.3954-1.9321,2.7908h2.0789a2.6763,2.6763,0,0,0-.0112-.3051A10.1287,10.1287,0,0,0,386.1322,235.0953Zm2.2936-19.9083V177.6077c0-.0112-.0113-.0112-.0113-.0225-.4632-2.8022-2.7907-6.1352-4.0449-9.9655a14.3466,14.3466,0,0,1-.3277-2.689l-14.6091-1.548c.26,2.8925.983,5.83,1.4462,8.9937,1.1977,7.0956,2.4857,15.7956,3.593,23.6029.9152,6.2256,2.384,12.3721,2.7907,18.6654-.0113.2147.034.452.0452.6892C381.0139,215.221,384.72,215.4808,388.4258,215.187Zm0-41.1383V162.6709l-.9039-3.367c-.7909.0791-1.5818.1356-2.384.1808.1921,2.1128-.1469,4.2709.09,6.3838C385.4543,168.4558,387.2282,171.36,388.4258,174.0487Zm0-15.9424V142.4124H362.9587a44.0622,44.0622,0,0,0,.723,5.9431c.0785.4753.1551.988.2321,1.5014.7086-.6795,1.414-1.3627,2.0935-2.0715a.5649.5649,0,1,1,.7989.799c-.8127.8477-1.6517,1.67-2.5039,2.4777a.563.563,0,0,1-.189.1277c.2624,1.7915.542,3.6977.913,5.538a3.1577,3.1577,0,0,0,.4406.113c3.13.8361,5.9092.7909,9.31,1.0508q1.8948.2026,3.7939.3319a18.6565,18.6565,0,0,1,2.397-2.52c.3794-.2992.7427-1.0029,1.3051-.6942.5955.3828.1044.9776-.2932,1.2886-.7016.6916-1.4839,1.3694-2.0524,2.0071A53.7512,53.7512,0,0,0,388.4258,158.1063Zm-26.2694-12.0331v91.8129h2.9264a.2655.2655,0,0,1,.0565-.1469s.0565-.0678.0791-.1017a16.7862,16.7862,0,0,1,1.2315-1.7739c2.5648-2.7343,7.7622-5.9205,8.8017-8.3271.0565-1.5818-.2712-3.1637-.3277-4.7454-.226-2.2146-.192-4.4517-.52-6.6663a.5009.5009,0,0,1,.3841-.52,2.3031,2.3031,0,0,1,.9717-.2034c.1243,0,.26-.0113.3955-.0113-.3842-7.4684-2.2937-14.8577-3.2993-22.586-1.401-11.615-3.8076-22.247-5.13-34.4044-1.0621-.1694-2.1129-.3615-3.1185-.61a.4553.4553,0,0,1-.3389-.0678.7972.7972,0,0,1-.3276-.6214c-.2938-1.4236-.5085-2.8586-.7119-4.2935C362.9021,150.2876,362.45,148.2765,362.1564,146.0732Zm31.9187,91.8129V143.8473l-4.5194.5876v93.4512Zm4.3625-87.5355a.5691.5691,0,0,1-.8872.1143c-.7974-.9022-1.5851-1.8132-2.3454-2.747v9.4732c1.8479-.526,3.6515-1.0182,5.4206-1.5383.0656-.0969.1329-.1914.1921-.2813.5506-.4783,2.0162-3.0331,2.6725-1.8006a.4919.4919,0,0,1,0,.4353,10.1215,10.1215,0,0,1-.8987,1.0444,38.2777,38.2777,0,0,0,9.5286-4.3063.5337.5337,0,0,1-.1352-.192l-.0045-.0085a25.5588,25.5588,0,0,1-2.1525-2.0341.5649.5649,0,0,1,.6172-.9158c.51.41,1.5018,1.4048,1.9207,1.8427-.1886-2.3414-.5583-4.6828-.7326-7.0242H395.205v3.636a.5634.5634,0,0,1,.1947.1324c.9319,1.2045,1.9416,2.3446,2.95,3.4852A.5723.5723,0,0,1,398.4376,150.3506Zm15.0825.4794a.5248.5248,0,0,1-.113.3954,36.0321,36.0321,0,0,1-6.7679,3.6156c.5763,2.7116,1.3333,5.3781,2.1581,8.0333a12.4609,12.4609,0,0,0,1.1186,2.8586c.5649.6779,1.9772,1.5027,3.0958,2.5422a47.3684,47.3684,0,0,1,5.6267,5.74,24.9533,24.9533,0,0,1,2.836,3.7512V142.4124h-8.7226c.1921,1.8643.3955,3.7512.61,5.6268A13.4161,13.4161,0,0,1,413.52,150.83ZM395.205,162.637v11.5924c.2373.1582.3164.4859.4971.7118,1.1186,1.7288,3.1637,3.6156,4.7342,5.5364,6.7566,7.6718,14.9481,16.6316,21.0381,23.795V180.8392c-.1582-.339-.17-.7458-.3051-1.1073-.0113-.0226-.0113-.0226-.0113-.0339-.9152-2.3275-3.83-5.751-6.4063-8.2819-1.209-.9943-2.2372-2.1807-3.4687-3.13a13.39,13.39,0,0,1-2.3276-1.9659,29.988,29.988,0,0,1-1.1976-2.9263Zm0,13.4567v61.7924h26.2694V205.9109a.0417.0417,0,0,1-.034-.0113l-.0112-.0113a.2747.2747,0,0,1-.09-.0678.3747.3747,0,0,1-.113-.1582c-5.0957-5.8979-11.2986-12.8353-16.835-18.9931C401.4644,183.0311,397.9619,179.8449,395.205,176.0937Zm31.9187,61.7924V144.4575l-4.5195.4632v92.9654Zm1.13-32.5289v8.7339a10.6816,10.6816,0,0,1,2.7117,4.5759c.6665,2.1807-.2713,4.4291-.7345,6.5646a8.95,8.95,0,0,0,.3051,4.011c3.3331-3.6721,7.2086-6.8131,10.2931-10.7224-.034-.0678-.0791-.1356-.113-.2034-1.8078-3.062.6553-4.5421,2.9828-2.7.0452-.0339.0791-.0678.1243-.1017.4519-.418.8474-.8926,1.3106-1.2993-2.1806-2.6552-5.1973-5.9883-7.5927-8.9712-1.5027-1.6948-2.5534-3.5929-3.8189-5.107C431.9482,201.9337,430.0048,203.5494,428.2536,205.3572Zm3.4573-4.8358a1.158,1.158,0,0,1-.1017-.2486c-.7457-1.2993-2.2371-3.2766-3.3556-5.1634V203.73C429.35,202.6116,430.5924,201.6173,431.7109,200.5214ZM428.2536,215.82v22.0663h26.2693V142.4124H428.2536v50.3242a.6267.6267,0,0,1,.0677.09,40.5369,40.5369,0,0,0,3.6947,5.9205,9.3633,9.3633,0,0,1,.5423.9152l.0227-.0226a4.7655,4.7655,0,0,1,.9942-.8587.5632.5632,0,0,1,.4972.1243c.4293.226.6666.78,1.0055,1.1073.7345.9265,1.3446,1.932,2.0338,2.8811,2.3727,3.13,5.9205,7.0165,8.7565,10.4512.1694.2487.4632.4633.4745.791a.4847.4847,0,0,1-.0565.1808.5114.5114,0,0,1-.1469.4971c-.5536.4293-.9829.9942-1.4914,1.4688a1.5906,1.5906,0,0,1-.5988.4633.5333.5333,0,0,1-.3616.1582c-.6214-.1356-.52-.4181-.9717-.61a1.5763,1.5763,0,0,0-1.4236-.2712c-.0113.0226-.0226.034-.0339.0566a2.4047,2.4047,0,0,0,.4181,1.6382,1.3837,1.3837,0,0,1,.35.904v.0112c0,.0113,0,.0113-.0113.0226a.3427.3427,0,0,1-.09.1808,13.0171,13.0171,0,0,1-1.3671,1.7174c-2.9489,3.6721-6.734,6.5532-9.83,10.101a.4357.4357,0,0,1-.226.1356.6466.6466,0,0,1-.5763-.0678,8.24,8.24,0,0,1-.9038-3.6268c-.2373-1.853.6214-3.5705.87-5.3782A6.8146,6.8146,0,0,0,428.2536,215.82Zm31.9187,22.0663V144.1524l-4.5195.7458v92.9879Zm27.3992,0V142.4124H461.3021v95.4737Zm5.6493,0V144.4349l-4.5195,1.4462v92.005Zm5.6493-96.6035v-6.7792H349.7279v6.7792ZM45.4406,415.4985c-.5313-.4013-.999-.9054-1.5509-1.2694a.5648.5648,0,0,0-.6171.9157c.5993.4815,1.1543,1.043,1.7952,1.4619a.5581.5581,0,0,0,.7055-.2312A.6465.6465,0,0,0,45.4406,415.4985ZM124.888,203.77c-.6782-.21-1.4154.3734-2.0977.4863-23.7,6.9565-47.4211,13.8334-71.2978,20.1636-8.8616,2.5135-17.7642,4.8757-26.6459,7.3147-.57.2339-1.3535.1178-1.7712.5987a.5708.5708,0,0,0,.6381.83c33.5665-8.9982,67.087-18.2028,100.39-28.1416.3381-.1511.7722-.149.9874-.4788A.5715.5715,0,0,0,124.888,203.77Zm-14.0008,14.0182c-18.0085,5.1173-36.0062,10.2833-54.0325,15.3394q-7.4971,1.9193-15.0112,3.7725c-1.0772.2574-2.153.5218-3.2328.7684a.5651.5651,0,0,0,.3,1.09c24.6047-5.84,48.7908-13.297,73.1243-20.1491a.57.57,0,0,0,.1347-1.0329C111.7521,217.3629,111.3047,217.7076,110.8872,217.7878ZM384.55,33.2046c.5536-.0842.4679-.3458.633-.5676a6.8339,6.8339,0,0,1,.8862-1.1571c.5255-.5092-.2884-1.3223-.7989-.7989C384.8284,31.25,383.1216,32.8981,384.55,33.2046ZM358.1,399.9539c3.932,26.7891,1.3107,53.2166-7.5927,76.4241a.5625.5625,0,0,1-1.0507,0c-6.8018-17.5355-13.8409-35.6586-23.1171-52.3919a165.7746,165.7746,0,0,0-17.5468-25.9078c-.3164-.3841-.644-.78-.9717-1.1524q-2.5422-2.9829-5.186-5.7284c-.3729-.3842-.7458-.7683-1.1186-1.1412-.9717-.9943-1.966-1.9546-2.96-2.8925-.4181.9379-.8474,1.8869-1.2768,2.836q-.2543.5592-.5084,1.1186-1.2882,2.7963-2.61,5.6154c-.17.3728-.35.7457-.5311,1.13q-3.3387,7.0843-6.9148,14.2024a5.1593,5.1593,0,0,1-4.3725,2.836c-4.2709.1921-12.9257.2938-22.1793.3616v60.5947a.5741.5741,0,0,1-.5649.5649H249.43a.5666.5666,0,0,1-.565-.5649V415.3088c-4.5533.0113-8.8694.0113-12.4963.0113-2.9828,0-5.4911-.0113-7.265-.0113a5.11,5.11,0,0,1-4.5759-2.8021q-3.7287-7.2707-7.2086-14.4849c-.192-.3841-.3729-.757-.5423-1.13q-1.3558-2.7964-2.6552-5.5929c-.1808-.3728-.35-.7457-.52-1.1185-.4633-.983-.9152-1.9547-1.3559-2.9377-1.0282.9717-2.0563,1.9773-3.0619,3.0168h-.0113c-.3728.3728-.7457.757-1.1186,1.1411-1.7513,1.8417-3.4912,3.7625-5.186,5.7623-.3277.3729-.6441.7571-.9718,1.1525a165.5434,165.5434,0,0,0-17.3434,25.6705c-9.2762,16.7333-16.3152,34.8564-23.117,52.3919a.5625.5625,0,0,1-.52.3615h-.0113a.5626.5626,0,0,1-.52-.3615c-8.9033-23.2188-11.5246-49.635-7.5927-76.4241,2.3389-15.8859,6.4855-27.5687,13.05-36.7658,7.3328-10.2705,18.1117-16.9367,28.9019-18.18-18.5976-50.72-27.7494-99.44-27.2523-145.5041A299.4022,299.4022,0,0,1,187.9425,93.4893l.4632-1.1412c.1695-.4406.3391-.8813.52-1.322C203.5573,55.0626,224.5276,24.8838,251.26,1.3036a5.205,5.205,0,0,1,6.9036.0113c26.3145,23.49,47.025,53.5217,61.5663,89.2706.226.5423.4407,1.096.6666,1.65.1469.3729.3051.7571.452,1.1412A305.4692,305.4692,0,0,1,341.48,198.6346c.8813,46.5165-7.8074,95.5074-25.9078,146.3175,11.0275,1.0733,22.01,7.7847,29.4669,18.236C351.6148,372.3852,355.7614,384.068,358.1,399.9539ZM189.626,92.3142c40.6865-1.0621,88.6493-1.1073,129.5278-.113q-.2373-.5932-.4745-1.1863c-14.4736-35.5908-35.0937-65.487-61.2727-88.8526a4.0768,4.0768,0,0,0-5.4007-.0113c-26.5971,23.456-47.4657,53.51-62.03,89.2932C189.8633,91.738,189.739,92.02,189.626,92.3142Zm22.1228,293.844q-9.2706-20.2188-16.5977-40.065c-10.5869,1.1186-21.1737,7.66-28.3822,17.75-6.4629,9.05-10.553,20.5749-12.8579,36.2687-3.83,26.066-1.4123,51.7817,7.0052,74.4807,6.6549-17.14,13.5809-34.8,22.6424-51.149A170.01,170.01,0,0,1,200.405,398.35l.949-1.1524q2.5083-3,5.1183-5.7624c.3616-.3841.7231-.7683,1.096-1.1524Q209.6361,388.1468,211.7488,386.1582Zm37.116,11.5473c-10.2252.0452-20.394.1356-30.3142.2937q3.39,6.9827,6.9826,13.9991a3.9944,3.9944,0,0,0,3.57,2.1806c3.9207,0,11.4569.0113,19.7613-.0113Zm0-6.7792c-11.3325.0452-22.586.1581-33.5117.35.87,1.8642,1.7626,3.7285,2.6551,5.6041,10.09-.1582,20.4393-.26,30.8566-.3051Zm10.1688-41.8954h-9.0389V475.2933h9.0389Zm33.3424,48.81c-10.5982-.113-21.4-.1695-32.2125-.1695v16.4508c9.2423-.0565,17.8745-.1582,22.1228-.35a4.0285,4.0285,0,0,0,3.4122-2.2146Q289.1559,404.6767,292.376,397.8411Zm3.141-6.734c-11.5924-.1469-23.4786-.2147-35.3535-.2147v5.6493c10.9936,0,21.9759.0565,32.7435.1808Q294.2459,393.9091,295.517,391.1071Zm18.4846-45.1382c.1356-.3728.26-.7343.4067-1.1072,18.1118-50.7762,26.823-99.7445,25.9418-146.2046A303.8314,303.8314,0,0,0,319.6058,93.3424c-41.1272-1.0169-89.508-.9717-130.4317.113a298.3362,298.3362,0,0,0-20.5522,106.06c-.4972,46.0082,8.6547,94.694,27.2975,145.38.1242.3729.26.7345.4067,1.0961q7.2028,19.507,16.2814,39.3757c.1694.35.3276.7.4971,1.0621q.8475,1.8644,1.7287,3.7285c11.0953-.192,22.5182-.3163,34.0315-.3615v-41.33a.56.56,0,0,1,.565-.565h10.1688a.5666.5666,0,0,1,.5649.565v41.2965c12.0557,0,24.1113.0678,35.8732.2147.5536-1.22,1.1073-2.4179,1.65-3.6269v-.0112l.4859-1.0734v-.0113Q307.0021,365.4421,314.0016,345.9689Zm42.98,54.1432c-2.3049-15.6938-6.395-27.2185-12.8578-36.2687-7.3328-10.27-18.157-16.8576-28.9472-17.7954q-7.1012,19.8293-16.1344,40.02c1.3784,1.2881,2.7456,2.6213,4.0788,4.0111.3729.3728.7344.757,1.0959,1.1411,1.74,1.83,3.4462,3.7512,5.1183,5.74.3164.3841.6328.7569.9492,1.1411a168.5178,168.5178,0,0,1,17.05,25.3429c9.0615,16.36,15.9876,34.009,22.6425,51.149C358.3827,451.8938,360.8119,426.1781,356.9816,400.1121Zm-63.9108-237.08a38.6809,38.6809,0,1,1-38.6866-38.6753A38.728,38.728,0,0,1,293.0708,163.0325Zm-1.13,0a37.5511,37.5511,0,1,0-37.5567,37.5454A37.5875,37.5875,0,0,0,291.9409,163.0325ZM34.7653,258.91a34.2871,34.2871,0,0,0,3.2777-2.3.5651.5651,0,0,0-.7289-.83c-1.0392.64-1.9723,1.4358-2.9483,2.1654A.5692.5692,0,0,0,34.7653,258.91Zm-2.2783,8.5535c.4212.104.7174-.2964,1.0522-.4852.9017-.6554,1.86-1.26,2.7548-1.9081a.565.565,0,0,0-.7288-.83c-1.111.668-2.1364,1.47-3.2131,2.1909A.5694.5694,0,0,0,32.487,267.4632ZM30.81,273.43a.6037.6037,0,0,0,1.0371.0487c.2684-.4547-.2091-.8052-.4839-1.1114a33.4877,33.4877,0,0,0-2.6382-2.5895c-.5089-.525-1.3227.2879-.7989.7989A35.78,35.78,0,0,1,30.81,273.43Zm4.7842,10.5539c.2208-.3619-.0624-.7033-.34-.9272a26.2794,26.2794,0,0,1-2.256-2.3432.5682.5682,0,1,0-.9236.6414,27.5166,27.5166,0,0,0,2.6323,2.7433A.5691.5691,0,0,0,35.5946,283.9842Zm6.05,1.5c-.924.6655-2.5818,2.1676-3.0535,2.52a.5937.5937,0,0,0-.0851,1.0431c.5206.2043.6-.058.8343-.206.75-.5917,2.2916-1.9484,2.616-2.1905C42.8059,286.2827,42.5665,285.1418,41.6442,285.4843ZM31.1571,287.463a23.7,23.7,0,0,0-2.1428,1.6839.6224.6224,0,0,0-.1109,1.0837.5722.5722,0,0,0,.6845-.0884,20.8633,20.8633,0,0,1,1.75-1.4252c.227-.1907.5644-.3064.6491-.616A.57.57,0,0,0,31.1571,287.463Zm4.5888,5.0179a.57.57,0,0,0-.3994.9645c.8836.9157,1.727,1.8688,2.5764,2.8159a.5681.5681,0,0,0,.7989,0,.579.579,0,0,0,.1453-.55A23.2557,23.2557,0,0,0,37,293.5525C36.5907,293.21,36.3062,292.5594,35.7459,292.4809Zm11.95,1.8327a25.9079,25.9079,0,0,0-2.1672-1.4587.5653.5653,0,0,0-.57.9757,25.7991,25.7991,0,0,1,2.2261,1.5061c.1963.1985.4791.3915.7613.2429C48.6214,295.2414,48.1863,294.5853,47.696,294.3136Zm3.2573,5.9692c-.7733.9127-1.6579,1.7541-2.4055,2.6752a.558.558,0,0,0,.2312.7055.5722.5722,0,0,0,.6846-.0884q.9731-1.0038,1.8928-2.0587c.199-.2655.5591-.47.5613-.8342A.57.57,0,0,0,50.9533,300.2828Zm6.2569-8.3115a15.906,15.906,0,0,0-1.5678,1.6c-.2675.3706-.764.662-.816,1.14a.5707.5707,0,0,0,.7151.5448c.3468-.1572,1.8528-1.9593,2.5846-2.6673A.565.565,0,0,0,57.21,291.9713Zm-.56,7.3827c1.1271.9335,2.1922,1.9675,3.36,2.84a.4919.4919,0,0,0,.4353,0c1.32-.6914-1.6511-2.2287-2.11-2.8792-.4267-.2918-.7584-.8439-1.2855-.9256A.57.57,0,0,0,56.65,299.354Zm6.78-3.3926a.5722.5722,0,0,0,.6846-.0884c.9434-1.0914,1.8038-2.2563,2.813-3.2895.525-.5089-.2881-1.3227-.7989-.7989-1.0092,1.0332-1.87,2.1981-2.8131,3.2895A.5692.5692,0,0,0,63.43,295.9614ZM55.9513,334.71c-1.0145,1.3-2.6967,2.876-3.389,4.277a.5719.5719,0,0,0,1.0857.2289.0871.0871,0,0,0,.0226-.025c.5585-.6782,2.1281-2.619,3.08-3.682C57.2749,335.0008,56.4625,334.1862,55.9513,334.71Zm39.8409-46.1829c-.9014,1.0089-1.8412,1.9827-2.7626,2.9731a.5718.5718,0,0,0,.2417.9549c.2473.1209.54-.1431.6078-.2122-.0113.012-.0251.0267-.05.0562.9214-.99,1.8611-1.9641,2.7625-2.9731C97.1161,288.8176,96.3032,288.0036,95.7922,288.5274Zm4.8576-8.9036a.5914.5914,0,0,0-.8938.1q-.9373.9111-1.9191,1.7757c-.336.3634-.4923.2-.7965.7553a.57.57,0,0,0,.83.638,26.1326,26.1326,0,0,0,2.516-2.2044C100.7117,280.4372,101.0124,279.9782,100.65,279.6238Zm2.43,7.0713a15.557,15.557,0,0,0-1.5974-1.3506.5649.5649,0,0,0-.6172.9158c.6248.5164,1.2394,1.0463,1.8149,1.6175a.55.55,0,0,0,.6171.1169C103.9658,287.6871,103.5138,286.991,103.08,286.6951Zm5.8338-7.3245a33.8728,33.8728,0,0,0-2.6465,3.1506.565.565,0,0,0,.9159.6173c.8347-.9423,1.6044-1.9383,2.3686-2.9381A.5692.5692,0,0,0,108.9134,279.3706Zm-2.5739-2.3377c-.6309-.5865-1.2785-1.1555-1.8789-1.7738-.5092-.5253-1.3225.2882-.799.7989.67.699,1.4175,1.3177,2.1056,1.9978a.5681.5681,0,0,0,.7989,0C106.9009,277.7219,106.6646,277.27,106.34,277.0329Zm6.4057-9.1375a23.7868,23.7868,0,0,0-1.8345,2.6063c-.2182.4524-.7207.8824-.6434,1.4126a.57.57,0,0,0,1.0327.1349c.4825-.8662,1.0513-1.6792,1.6006-2.5035.2029-.3714.5806-.6768.6847-1.0874A.565.565,0,0,0,112.7452,267.8954Zm3.1852-2.8675a21.1311,21.1311,0,0,0,2.9458,1.9424.6033.6033,0,0,0,.94-.0929c.2377-.4049-.1018-.7705-.46-.939-.5808-.3624-1.1954-.6707-1.7574-1.0628-.6366-.36-.57-.6143-1.2692-.8122A.57.57,0,0,0,115.93,265.0279Zm-2.4679-5.8267a.59.59,0,0,0-.5644.4708c-.31.8994-.6264,1.7981-.99,2.6773.2013-.3725-.5465.97-.3876,1.1778a.57.57,0,0,0,1.0326.135,37.52,37.52,0,0,0,1.4435-3.7161A.5669.5669,0,0,0,113.4625,259.2012Zm5.2016.3906c.3032-1.35.8219-2.677,1.04-4.0332a.5491.5491,0,0,0-.4048-.47.572.572,0,0,0-.695.3946c-.3354,1.2715-.7029,2.5343-1.03,3.8079A.5653.5653,0,0,0,118.6641,259.5918Zm-7.0142-7.6874a.57.57,0,0,0,.135,1.0327,16.9683,16.9683,0,0,1,2.418,1.0336.5687.5687,0,0,0,.7729-.2027c.3792-.8052-.7816-1.0012-1.2894-1.2869C113.0593,252.2929,112.2976,251.6741,111.65,251.9044Zm7.1641-3.0583a16.7852,16.7852,0,0,1,.46-2.4137.5649.5649,0,1,0-1.03-.4527,12.89,12.89,0,0,0-.4844,2.229c-.0184.344-.1944.76.09,1.0369A.57.57,0,0,0,118.814,248.8461ZM115.5705,242.1a19.2986,19.2986,0,0,1,.4975-3.6506.5694.5694,0,0,0-.5448-.7151c-.4166-.0078-.5836.401-.6162.7558a21.5785,21.5785,0,0,0-.4663,3.61A.5651.5651,0,0,0,115.5705,242.1Zm-21.7721,59.318a.565.565,0,0,0-.6173.9159c.8021,1.0679,1.76,2.0048,2.6094,3.0342a.5683.5683,0,0,0,.9442-.55A42.6789,42.6789,0,0,0,93.7984,301.4176Zm6.9262,21.4313a.569.569,0,0,0,.3376.26c1.8278.0622-.5455-2.4649-.793-3.2137-.2161-.3208-.2913-.8218-.7011-.9482a.57.57,0,0,0-.638.83C99.4572,320.8416,100.1225,321.8265,100.7246,322.8489ZM369.61,113.5889c.4514-.03.6792-.5118,1.0018-.7749.8275-.9089,1.7956-1.72,2.5834-2.6482a.565.565,0,0,0-.9159-.6172c-1.0547.9933-2.0459,2.0505-3.0688,3.0759A.5691.5691,0,0,0,369.61,113.5889Zm-2.7842,6.7072c.2985.3815.8817.7541,1.2218.2085.2334-.3842-.0933-.7236-.3753-.961-.9517-.9389-1.8383-1.9426-2.812-2.86-.5088-.5249-1.3227.2879-.7989.7989C365.019,118.385,365.8933,119.37,366.8262,120.2961Zm11.9925-.7041a.5691.5691,0,0,0,.9644-.4c-.025-.4421-.4946-.66-.7556-.9694a35.2537,35.2537,0,0,1-2.6026-2.72c-.5088-.525-1.3226.2879-.7989.7989A42.8957,42.8957,0,0,0,378.8187,119.592Zm6.4954-6.6782c.5816-.7691,1.413-1.8624,1.73-2.26.1743-.2374.4745-.4321.4705-.7545a.57.57,0,0,0-.9644-.4c-.7816.912-1.4782,1.8938-2.212,2.8442a.55.55,0,0,0,.0442.6274A.5649.5649,0,0,0,385.3141,112.9138Zm11.6718-2.7454a.55.55,0,0,0,.6172.1168.5648.5648,0,0,0,.1818-.9157c-.7926-.8741-1.5974-1.7376-2.3587-2.6392-.4438-.4116-.3311-.6444-.9446-1.0178a.57.57,0,0,0-.6381.83C394.7983,107.8279,395.9184,108.9782,396.9859,110.1684Zm-2.5549,8.3751a.5649.5649,0,1,0,.7989-.799c-.7329-.8613-1.4672-1.7215-2.2445-2.5435-.5091-.5252-1.3224.2881-.7989.7989C392.9638,116.8219,393.698,117.6822,394.431,118.5435Zm-9.9929,7.8171a.5655.5655,0,0,0,.6666.7625c.981-.6865,1.7728-1.67,2.6906-2.454.303-.3575.9221-.551.9571-1.067a.57.57,0,0,0-.9645-.3995A35.9188,35.9188,0,0,0,384.4381,126.3606Zm-12.729.1291a.57.57,0,0,0,.9645.3994c.8263-.84,1.68-1.656,2.4369-2.56.5252-.5092-.2882-1.3225-.799-.799-.7573.904-1.61,1.7205-2.4369,2.56A.5665.5665,0,0,0,371.7091,126.49Zm-5.3642,2.7442a.57.57,0,0,0-.638.83,25.2134,25.2134,0,0,0,2.012,2.261.5649.5649,0,1,0,.799-.7989c-.5675-.5965-1.1422-1.1875-1.6709-1.8191C366.7133,129.6012,366.7617,129.4175,366.3449,129.2339Zm27.72,1.6463a.55.55,0,0,0,.6172-.1169c.396-.4043-.0064-.8525-.3268-1.1461a21.2527,21.2527,0,0,0-1.5988-1.6183.565.565,0,0,0-.6172.9159A23.83,23.83,0,0,0,394.0653,130.88Zm5.4711-6.364c.8017-.961,1.7362-1.8319,2.5-2.8125a.55.55,0,0,0-.1168-.6172.5715.5715,0,0,0-.799,0c-.8024.87-1.6014,1.7427-2.3836,2.6308C398.2122,124.2264,399.0257,125.04,399.5364,124.5162Zm6.4707,6.56a.569.569,0,0,0,.9643-.3995c-.0891-.5425-.6645-.8683-.9728-1.3-.77-.7731-1.4286-1.7032-2.2454-2.4071a.565.565,0,0,0-.6172.9159C404.0725,128.9672,405.061,130.0027,406.0071,131.0762Zm-2.1537,16.032c.8062-.8411,1.5838-1.71,2.4123-2.53.5254-.5093-.2882-1.3225-.7989-.799-.8484.8914-1.7655,1.756-2.5292,2.7116a.55.55,0,0,0,.1168.6172A.5715.5715,0,0,0,403.8534,147.1082ZM383.0743,144.5c-1.0408,1.1143-2.1269,2.185-3.1692,3.298a.5682.5682,0,0,0,0,.7989c.4785.4524.9311-.1184,1.2455-.4714.8241-.8706,1.68-1.711,2.4962-2.5889C384.4254,145.0283,383.868,143.9177,383.0743,144.5Zm-10.8635,1.6494a.5722.5722,0,0,0-.0883-.6846,19.91,19.91,0,0,1-1.4884-2.0511.5653.5653,0,0,0-.9757.57,24.0174,24.0174,0,0,0,1.6652,2.28A.5691.5691,0,0,0,372.2108,146.1493Zm.8448,7.4827a31.1714,31.1714,0,0,0-2.3314-2.165.5649.5649,0,0,0-.6172.9158c.9895.8508,1.8563,1.8688,2.8625,2.6838a.5642.5642,0,0,0,.7827-.5164C373.7345,154.1318,373.3018,153.923,373.0556,153.632Zm12.2613-3.8934a.565.565,0,0,0-.83.7288,11.1514,11.1514,0,0,0,1.6852,2.0691.5641.5641,0,0,0,.7827-.5163c-.03-.41-.4334-.6593-.6465-.9842C385.917,150.5991,385.8291,150.3425,385.3169,149.7386Z" fill="#000000"/></g></svg>