<?xml version="1.0" encoding="UTF-8" standalone="no"?><svg xmlns="http://www.w3.org/2000/svg" xmlns:xlink="http://www.w3.org/1999/xlink" data-name="Layer 38" fill="#000000" height="404" preserveAspectRatio="xMidYMid meet" version="1" viewBox="-0.6 -0.0 501.0 404.0" width="501" zoomAndPan="magnify"><g id="change1_1"><path d="M254.0579,105.2615a18.66,18.66,0,0,0-15.4018-13.775c-.2291-.0312-34.019.1237-34.019.1237l-28.7909-.3539c1.5352-3.4837,1.1767-7.4709.7892-11.258.1336-.2311,38.25-.2619,38.25-.2619l31.6085.4312a19.4387,19.4387,0,0,1,10.4577,3.5242c3.644,2.6669,6.0381,6.7214,7.7478,10.9009a14.2478,14.2478,0,0,1,1.1354,4.0082c.0686.0918,5.7991,42.4328,5.7991,42.4328q-5.2941,7.2025-9.9148,14.8692Zm29.6093,150.0762a25.3514,25.3514,0,0,1-2.4177,3.7011,21.2,21.2,0,0,1-3.5865,3.9188c-2.5209,2.0282-5.695,3.0365-8.8116,3.8959-.1834.2063-16.6608.2751-16.6608.2751l-64.5116-.2636,7.9407,49.9708,5.397,33.6193-50.8415-.0573-54.8865.47.2521-11.2981,38.8559-.1948-6.1074-37.034-5.89-35.4528-50.5551.2407L48.8128,267.06l-8.09-.6417a54.5818,54.5818,0,0,1-7.8262-1.524,18.3326,18.3326,0,0,1-7.0127-3.6782,15.9982,15.9982,0,0,1-5.0188-9.8428c.0573-.0459-.974-7.1616-.974-7.1616l-9.4533-67.7659L3.7234,130.0843.5952,108.061a20.9318,20.9318,0,0,1,.2979-7.9637,14.7421,14.7421,0,0,1,1.2261-3.4261A22.1021,22.1021,0,0,1,5.4308,92.26a55.5952,55.5952,0,0,1,8.3074-8.1126,19.0877,19.0877,0,0,1,10.7252-4.0334c.126-.0573,8.3877.126,8.3877.126L21.6675,121.6737l2.75,18.0358,8.8,60.7532c5.4658-9.7627,8.88-20.58,14.3462-30.3537.9052-1.6156,1.8677-3.1969,2.8187-4.7782q5.81-9.608,11.6075-19.216c5.695-8.3075,14.4722-13.7617,23.7995-16.592.3781-.0458,23.9369-5.66,23.9369-5.66l14.5867-2.83.7906,1.1229-1.3062,14.094-3.4834,25.1515-6.9324,32.9663L107.4,219.6787l-10.771,32.13,51.0707.2062,2.6011-10.0377,5.7063-25.7932,2.12-19.7087,1.65-28.5317.3208-32.6455-1.3291-12.0658q10.57,1.8046,21.141,3.598a39.2543,39.2543,0,0,1,6.3022,1.4438,27.6667,27.6667,0,0,1,5.7751,2.9334,46.1887,46.1887,0,0,1,14.77,15.4346,20.9276,20.9276,0,0,1,2.83,4.022,248.61,248.61,0,0,1,12.9253,24.04c.0458.1489,5.4543,15.2284,5.4543,15.2284l17.6117-29.7808,11,3.747,14.8732,7.2074,3.5637-5.9814,1.1229,7.9981,7.9751,3.197-5.7751,15.4461L282.1547,218.9l3.4146,24.4754A21.0214,21.0214,0,0,1,283.6672,255.3377Zm-86.1568-3.38L184.1841,227.333c-3.6553,7.07-5.6032,16.7524-4.423,24.6244ZM207.57,39.1742l-.1216,16.6967,8.47-.2432-.2026-16.6561Zm17.2235-6.93.1216,23.5861,8.51-.2432-.1621-23.424Zm15.4924-9.8019-.1025,33.4105,8.63.018-.1747-33.3772Zm154.7831,161.86L392.7177,199.81l-1.3111,23.0131s-.2907,16.8467-.2148,17.3868a9.41,9.41,0,0,1,6.5444-.67c2.2.4352,4.3176,1.2437,6.5332,1.5887a24.237,24.237,0,0,0,4.8318.1789q2.2511-.1029,4.4868-.4059l.54-2.6808,7.0418-1.1119s-3.8019-13.5421-4.0978-14.1208a112.6154,112.6154,0,0,1-2.864-39.5932,31.8582,31.8582,0,0,1-15.2653,2.2546C397.3685,185.4932,395.599,185.0813,395.0688,184.3025Z" fill="#92a519"/></g><g id="change2_1"><path d="M497.7321,316.7277c-4.4643,11.6965-11.7182,22.6378-21.782,30.2729-6.8517,5.1982-15.281,8.8482-23.86,8.2419-12.2032,6.0828-25.8934,8.2525-39.406,9.3345-.0807.0469-25.497,1.3644-25.497,1.3644l-12.4765-.6022a120.284,120.284,0,0,1-22.1351,1.05c-11.5284-1.3218-22.9131-3.0938-33.4447-7.4-8.9142-3.6447-17.0275-9.0336-24.5248-15.0781-4.6373-4.0027-8.4288-7.3579-11.4639-11.3611a42.9612,42.9612,0,0,1-7.968-19.2843,57.2394,57.2394,0,0,1,.8246-20.9428A55.5989,55.5989,0,0,1,291.9018,265.74a56.65,56.65,0,0,1,27.7814-14.0933,34.5043,34.5043,0,0,1,7.5139-.7052l.2615.0088-.3916-3.7046a12.37,12.37,0,0,0,5.0742.4054,6.376,6.376,0,0,0,1.8929-.482,3.3051,3.3051,0,0,0,1.8126-2.68,11.184,11.184,0,0,0-.1037-3.1149,4.1582,4.1582,0,0,0-.7933-1.974,4.0272,4.0272,0,0,0-1.4363-.9993c-1.24-.5712-2.5823-.8809-3.8609-1.359a15.5312,15.5312,0,0,1-3.4622-1.8211,2.5174,2.5174,0,0,1-1.1179-1.3114,2.4836,2.4836,0,0,1,.3155-1.6375c.6523-1.3774,1.5588-2.7006,1.6737-4.22a1.5218,1.5218,0,0,0-.1107-.8016.9188.9188,0,0,0-1.6436.0053c-.231-.2011-.5731-6.826-.5731-6.826l4.8332-2.5588,29.7563,1.1755,8.9732.9306,1.8764,25.2685,8.7607,2.2664a3.4161,3.4161,0,0,0,1.5763,2.1105c1.6694,1.0744,3.7939,1.0608,5.7757.9444s4.0647-.2816,5.8631.5593c.4019.1878.78.4225,1.1679.6372a13.2383,13.2383,0,0,0,4.17,1.4623c-.01-.0014-.0221.0338-.0347.0769l62.1517,2.0885a33.3773,33.3773,0,0,1,16.6833,9.8955A55.1392,55.1392,0,0,1,495.52,285.8292a30.69,30.69,0,0,1,2.491,5.8924,31.84,31.84,0,0,1,1.0274,5.9748A60.5748,60.5748,0,0,1,497.7321,316.7277ZM124.71,40.683a109.1393,109.1393,0,0,0-16.4391,9.3384c-6.7059,4.4972-14.5486,6.3918-22.3211,7.4471s-15.6487,1.3468-23.36,2.7848-15.412,4.14-21.2792,9.346a46.4474,46.4474,0,0,0-8.5639,10.86c-3.119,5.0458-9.1677,6.9654-13.9824,10.1051A22.3068,22.3068,0,0,0,9.9534,100.991a15.7832,15.7832,0,0,0,.7808,13.3986c2.1939,3.7693,6.127,6.2848,10.287,7.5944a27.4735,27.4735,0,0,0,11.0019,1.0718,58.8043,58.8043,0,0,0,9.4326-2.0215l19.03-5.1825a69.33,69.33,0,0,1,13.8308-1.457c8.9808.0261,18.1971,2.1162,26.7977-.4691,5.352-1.6088,10.0718-4.94,15.4534-6.4468,3.3186-.9294,6.9049-1.1753,9.8686-2.9342-.0819.0334,1.3949-9.5657,1.3949-9.5657a9.9819,9.9819,0,0,1-9.5284-5.8182,14.926,14.926,0,0,1-.7132-2.0784,11.1858,11.1858,0,0,1-.4747-4.6129,5.06,5.06,0,0,1,2.4528-3.7746,7.85,7.85,0,0,1,3.8861-.5511c1.9405-1.0755,2.8433-3.1427,3.6813-5.0079q1.2264-2.7294,2.6953-5.3411c1.534-2.7271,3.3527-5.4364,6.0332-7.0506a31.5731,31.5731,0,0,1,5.3108-2.1839c3.4071-1.2806,6.816-3.4075,8.1046-6.8116,1.4411-3.8073-.0824-8.39,1.86-11.9675a15.8056,15.8056,0,0,0-8.011-2.5886A39.2118,39.2118,0,0,0,124.71,40.683ZM401.7258,382.43a7.7134,7.7134,0,0,1-.0009,4.5408,8.3468,8.3468,0,0,1-.9759,1.5625,45.741,45.741,0,0,0-6.9211,14.3233c-.3948.6313,2.0943-.9244,2.0943-.9244l19.6527-14.6219q-.0207-1.0879-.0175-2.176a4.6528,4.6528,0,0,1,.1908-1.577,1.2919,1.2919,0,0,1,.6582-.7862,1.4485,1.4485,0,0,1,1.1061.1012,4.0022,4.0022,0,0,1,1.9824,1.867c.3067.0417,3.3631-2.8075,3.3631-2.8075l-8.57-11.7574ZM382.1694,178.4889a8.48,8.48,0,0,0,4.4253,2.4787,11.9432,11.9432,0,0,0,6.6.0336,12.8872,12.8872,0,0,0,2.3022-1.0242,22.7855,22.7855,0,0,0,10.0714-11.3582c.81-2.0135,1.3253-4.1313,2.075-6.4075a3.2363,3.2363,0,0,1,2.2838-.8516,2.4375,2.4375,0,0,1,1.9978,1.2936,10.6889,10.6889,0,0,0-2.25-9.7232,15.3964,15.3964,0,0,0-2.7756-2.3863,18.7647,18.7647,0,0,0-2.5-1.5006,12.7661,12.7661,0,0,0-9.0972-.8954,8.2583,8.2583,0,0,0,2.1534,7.287,14.6218,14.6218,0,0,0,7.0258,3.8946,11.9568,11.9568,0,0,1-3.0512,6.5831c-1.7646,1.7124-4.6166,2.476-6.7611,1.273a15.1521,15.1521,0,0,1-2.2469-1.8192,10.9413,10.9413,0,0,0-13.3592-.6047,31.7373,31.7373,0,0,0,1.474,10.4162A9.4816,9.4816,0,0,0,382.1694,178.4889ZM236.5505.5329l.9762,4.0375L207.4128,19.7022l3.7114,7.5425L241.895,10.29l1.3551,2.0448,5.058-11.2695Zm31.7064,331.6937a8.5929,8.5929,0,0,1-2.2664.3637,8.4124,8.4124,0,0,1-2.6814-.6157,52.9976,52.9976,0,0,1-10.66-5.2365,18.4644,18.4644,0,0,0-2.8072-1.61,5.0335,5.0335,0,0,0-3.1648-.3442c-.0931-.0249,18.5326,20.1188,18.5326,20.1188l2.46-.9889a3.4394,3.4394,0,0,1,1.5174-.3542,1.2013,1.2013,0,0,1,.64.2238,1.7382,1.7382,0,0,1,.4209,1.6084,11.4116,11.4116,0,0,1-1.0038,3.5836c-.1713.2961,3.5438,4.0442,3.5438,4.0442l11.0652-12.4884-9.6267-11.6563C272.9306,330.8184,270.5181,331.64,268.2569,332.2266Z" fill="#ed9876"/></g><g id="change3_1"><path d="M463.3717,247.8208c-.298,2.8532-1.3751,5.7981-3.6667,7.5284a14.7743,14.7743,0,0,1-5.1221,2.1312c-4.148,1.1459-8.4334,2.2917-12.696,1.7188-.2177-.0344,2.04,9.3387,2.04,9.3387l1.2031,9.0752c-1.2375-.8709-2.4865-1.7646-3.7011-2.67.8594.7448,1.7074,1.4781,2.5667,2.2115a11.5445,11.5445,0,0,1-4.4574,6.8522,27.857,27.857,0,0,1-7.07,3.6208,99.71,99.71,0,0,1-15.63,4.71c-.08.1718-15.9732,4.3771-15.9732,4.3771q-14.7642,3.6094-29.5745,6.9553c.2292.1261,12.6389,16.7754,12.6389,16.7754L402.882,347.579l11.5731,21.1868L398.6882,380.889l-6.3825-5.5345-8.5022-7.9293-13.6815-14.071-10.2211-9.5221-12.6387-14.0139-7.9637-11.2294c-2.3605-4.0562-4.6064-8.273-5.6033-12.8564-.9968-4.5949-.63-9.66,1.9595-13.5784a21.7071,21.7071,0,0,1,2.7386-3.2428,45.7682,45.7682,0,0,1,8.25-6.5085c-.0343-.2062-11.5617-.3322-11.5617-.3322q-4.1593,7.27-8.33,14.5638c-4.0219,7.0126-8.0782,14.0825-13.521,20.0639-.424.3552-16.867,16.3858-16.867,16.3858l-9.6366,8.6741-5.9813-6.2679-11.642-12.3523,10.0377-12.96,23.066-27.5L313.574,270.83a61.7433,61.7433,0,0,1,14.4722-12.0085c.3781-.39,17.3024,2.5437,17.3024,2.5437l27.6494,3.77,23.9828-9.7053.2406-1.9251a9.28,9.28,0,0,0,3.85-.8021c-.08-.0458,11.6649.5614,11.6649.5614l-.2292,4.446.2292.4469c0-1.9365,1.1114-17.6806,1.1114-17.6806l-.1833.0459.4583-2.3032,7.0471-1.1114s-3.8043-13.5441-4.1023-14.117a112.854,112.854,0,0,1-2.8646-39.5893,31.8962,31.8962,0,0,1-15.2628,2.2459c-1.57-.149-3.3458-.5615-3.873-1.3407L392.7183,199.81l-1.3064,23.0087s-.252,14.3919-.2177,17.0045a30.3443,30.3443,0,0,0-9.0636,4.4459,4.0189,4.0189,0,0,0-.9626.9052,1.4016,1.4016,0,0,0-.1948,1.249c0,.0459-1.5125,1.2605-1.5125,1.2605l-7.6428-1.8219-1.4209-.5042-1.7647-20.6827-.8135-5.1449-12.7533-.4583,7.07-18.2535a76.5868,76.5868,0,0,1,3.7584-8.0439c1.5583-2.91,3.3917-5.81,6.1647-7.6085a15.0466,15.0466,0,0,1,5.8438-2.0969,43.44,43.44,0,0,1,6.222-.4125c0,.1146,10.1294.8594,10.1294.8594,1.7531,1.6271,4.274,2.1313,6.6574,2.2a34.2837,34.2837,0,0,0,13.04-2.5094c1.2833.08,2.3948.2177,3.5177.3553,5.6605.6645,11.55,1.4093,16.317,4.5375a13.3482,13.3482,0,0,1,5.4543,4.1939,66.8573,66.8573,0,0,1,10.1178,15.3544c0,.3437,11.894,29.9641,11.894,29.9641.4584,1.4667.9281,2.9449,1.398,4.4116a18.1979,18.1979,0,0,1,.63,2.3146A12.6649,12.6649,0,0,1,463.3717,247.8208ZM272.8134,231.8382l-3.2444-20.5748s-12.3966,25.5254-12.329,25.69a91.2956,91.2956,0,0,1-8.8808,14.7489s9.8594-.1628,10.1689-.112c4.8048-1.8232,9.5993-4.5192,12.1427-8.9848A19.9294,19.9294,0,0,0,272.8134,231.8382ZM179.58,251.433c.38.3175,17.6915.2247,17.6915.2247l-13.181-23.9952A38.6275,38.6275,0,0,0,179.58,251.433ZM21.8852,122.2l-.0025-.0168C21.7938,122.1762,21.8164,122.1852,21.8852,122.2ZM108.66,110.9967a39.2862,39.2862,0,0,1-14.8471,4.2527,73.5816,73.5816,0,0,1-10.3573-.4184c-9.6383-.7578-19.62-.74-28.9545,2.9569l-15.2134,3.8547a48.0752,48.0752,0,0,1-4.9057,1.0626,42.5316,42.5316,0,0,1-12.1139-.4414c-.15-.0217-.301-.047-.3829-.0642l11.4722,78.5881,9.8954-21.6892s11.4539-21.5566,11.545-21.9519q3.216-5.1564,6.614-10.1962a48.26,48.26,0,0,1,7.4831-9.2272c5.8046-5.1984,13.5719-7.497,21.0618-9.6462l34.5156-6.9367s2.4-17.0842,2.3538-17.066c-2.4488,1.93-5.8337,1.9473-8.8518,2.73C114.6711,107.66,111.7181,109.4826,108.66,110.9967Zm148.1136,53.308,4.9653-8.6867-6.275-40.069s-1.532-11.6523-1.6762-11.702a19.3826,19.3826,0,0,0-16.29-12.5289l-38.5211-.0439s-22.8407.2679-22.737.4877c-1.9981,4.022-2.8515,8.8139-6.1453,11.8667a17.43,17.43,0,0,1-3.1756,2.2126c-2.8518,1.65-5.9,3.1112-8.88,3.3619a24.3344,24.3344,0,0,0,.1928,13.9944s23.7123,4.3692,23.8325,4.4174a29.726,29.726,0,0,1,14.06,6.7546,65.29,65.29,0,0,1,10.89,12.0865,214.6813,214.6813,0,0,1,21.1021,42.9862L245.37,160.1845l6.1674,1.9072Zm38.2156-70.6083a24.3948,24.3948,0,0,1,2.5705,2.456c3.2839,4.1631,3.9834,7.544,3.9834,12.0967,0,0,11.0418.1686,11.321-.1218.5464-3.3963,1.1251-6.8843,2.8826-9.8414,1.2636-2.126,3.0738-3.8661,4.5668-5.8379a18.8434,18.8434,0,0,0,4.0072-10.72,15.626,15.626,0,0,0-.5381-4.4847,16.7956,16.7956,0,0,0-13.1349-11.7412,18.677,18.677,0,0,0-16.762,6.0156,13.888,13.888,0,0,0-2.0789,2.9733,15.0717,15.0717,0,0,0-1.4115,5.4846C289.9593,84.96,291.2514,90.37,294.9892,93.6964Z" fill="#f6d46b"/></g><g id="change4_1"><path d="M175.18,72.6855A43.6329,43.6329,0,0,1,176.31,87.84a27.8136,27.8136,0,0,1-5.3384,13.8419,19.63,19.63,0,0,1-12.5327,7.5815,18.8475,18.8475,0,0,0,.4665,14.3573,61.4083,61.4083,0,0,1-18.6612,1.6972c-5.2806-.2017-10.8164-.8391-15.1377-3.8808-.253-.1406,2.7148-26.2017,2.7148-26.2017a10.4853,10.4853,0,0,1-7.8482-3.1415,11.6324,11.6324,0,0,1-3.149-7.6882,7.32,7.32,0,0,1,.39-2.8077,5.5416,5.5416,0,0,1,2.5112-2.8493,6.3986,6.3986,0,0,1,3.75-.72c2.1558-1.2631,3.1183-3.5189,4.04-5.6432a38.8446,38.8446,0,0,1,3.5976-6.8483,15.4655,15.4655,0,0,1,5.6849-5.1442c1.6378-.8078,3.4375-1.2249,5.1357-1.8964,4.0608-1.6058,7.68-5.06,8.2133-9.3936a36.4893,36.4893,0,0,0,.0661-3.86,18.5637,18.5637,0,0,1,.8784-5.3394,18.9769,18.9769,0,0,1,9.3008,5.1484,43.8857,43.8857,0,0,1,6.4307,8.37C170.5747,59.3826,173.9214,65.7556,175.18,72.6855Zm141.6955,60.37a3.9516,3.9516,0,0,0-1.7851-.3615.3553.3553,0,0,1-.2542-.0844,1.71,1.71,0,0,0-.8775-1.8371,3.956,3.956,0,0,0-2.1273-.4022c-3.47.1-6.7092,1.6437-10.0611,2.5444a55.12,55.12,0,0,1-8.6722,1.3651,19.1547,19.1547,0,0,1-5.6071.03,5.0265,5.0265,0,0,1,1.9887-2.0736,23.2055,23.2055,0,0,1,2.6212-1.2716,4.8216,4.8216,0,0,0,1.9831-1.3911,2.1726,2.1726,0,0,0,.2747-2.17,2.2756,2.2756,0,0,0-1.4387-1.1316,4.5076,4.5076,0,0,0-1.8708-.0689,16.6729,16.6729,0,0,0-5.8267,2.3467c-.8581.49-1.71.9915-2.5354,1.5351a24.322,24.322,0,0,0-4.63,3.8973,146.6373,146.6373,0,0,0-9.9671,11.4669c-.875,1.1189-1.7344,2.2514-2.5177,3.4361-1.0177,1.5391-1.9034,3.1606-2.8243,4.76-1.9895,3.454-4.1486,6.81-6.53,10.6054,0,0,15.0415,6.9959,15.1778,6.8614,4.73-8.9387,12.59-16.5254,22.2939-19.3969,1.9382-.5735,3.9268-.9568,5.9121-1.3368a37.8928,37.8928,0,0,0,9.4024-2.6513c2.9431-1.4154,5.5927-3.7427,6.5142-6.6524a5.0415,5.0415,0,0,0,1.8-2.459,1.4219,1.4219,0,0,0-.0647-1.0281c-.1921-.3488-.5846-.5391-.7392-.935.33-.4641.6609-.9291.945-1.4228a2.03,2.03,0,0,0,.2771-.681A1.5359,1.5359,0,0,0,316.8754,133.0553ZM401.48,175.1781a35.1355,35.1355,0,0,1-7.4314,5.5833,35.6274,35.6274,0,0,0,1.3078,3.9145,11.4319,11.4319,0,0,0,2.9868.6983,34.8168,34.8168,0,0,0,3.9387.4024,28.8444,28.8444,0,0,0,5.9131-.5932c2.0538-.375,4.204-.8825,5.7218-2.3161a54.1524,54.1524,0,0,1-5.67-13.4184,6.2744,6.2744,0,0,0,3.107-2.8767,4.6014,4.6014,0,0,0,.069-4.2568,2.3,2.3,0,0,0-.6262-.7473,2.0945,2.0945,0,0,0-1.5469-.3239,4.1349,4.1349,0,0,0-1.4951.6007c-1.4628,3.646-1.863,7.89-4.2518,11.1184A17.7214,17.7214,0,0,1,401.48,175.1781Zm-9.6131-10.2625a18.745,18.745,0,0,0,2.8779,2.1727,5.9236,5.9236,0,0,0,5.0647-.04,8.339,8.339,0,0,0,3.6855-3.6c-.032-.1066.8567-4.1066.8567-4.1066a32.2867,32.2867,0,0,0-3.8646-1.8637,9.5591,9.5591,0,0,1-5.5586-9.71,14.6258,14.6258,0,0,0-5.764,1.6947,41.6938,41.6938,0,0,0-4.5995,2.7638,120.8006,120.8006,0,0,0-12.1673,9.3463c-.13.2695,6.2857,3.0293,6.2857,3.0293a11.1436,11.1436,0,0,1,13.1835.3141Zm9.8837,75.7384a41.7893,41.7893,0,0,0-4.922-1.4179c-3.3465-.5106-6.6857.7431-9.82,2.0211a25.3545,25.3545,0,0,0-4.4554,2.1795,4.1154,4.1154,0,0,0-1.9475,2.3531,3.7031,3.7031,0,0,0-.9642,1.3571,1.926,1.926,0,0,0,.0876,1.5582,3.0136,3.0136,0,0,0,.7245.7979,2.946,2.946,0,0,0,1.5876.8318,13.0584,13.0584,0,0,0,5.5152.282,10.3939,10.3939,0,0,1,5.4835.6326c.7857.3932,1.4676.9673,2.24,1.3868a7.4194,7.4194,0,0,0,7.7569-.724c.0225-.0621,9.8-.4718,9.8-.4718l1.0067-10.9663-6.5623.8476A18.1745,18.1745,0,0,1,401.7505,240.654Zm-68.7558-2.855c-.9738-.3969-2.0084-.62-3.0092-.9434a15.7467,15.7467,0,0,1-2.8235-1.2283c-.9558-.5325-1.9531-1.334-1.9759-2.428a8.6245,8.6245,0,0,0,2.0307-5.3445.9106.9106,0,0,0-.2786-.8387c-.3738-.2374-.83.1306-1.1179.4673q-1.219,1.4274-2.4382,2.8547a43.4155,43.4155,0,0,0-3.18,4.0355,7.7666,7.7666,0,0,0-.8836,1.6414c-.7623,2.1039.0485,4.4514,1.15,6.3993a9.0321,9.0321,0,0,0,1.9314,2.5071,9.2124,9.2124,0,0,0,1.7413,1.1082c2.71,1.4037,5.8838,2.303,8.8145,1.451a4.1319,4.1319,0,0,0,2.261-1.4209,4.95,4.95,0,0,0,.7347-2.1881,6.1558,6.1558,0,0,0-.4927-4.1861A5.0907,5.0907,0,0,0,332.9947,237.799Z" fill="#ffffff"/></g><g id="change5_1"><path d="M471.7487,266.3037c-.2154.222-.5442.1623-.8254.2076a38.6011,38.6011,0,0,0-9.8661,2.51,33.1155,33.1155,0,0,0-7.4888,4.9965.5779.5779,0,0,1-.9783-.4051c.1107-.6406.9136-.9044,1.3312-1.3534a32.788,32.788,0,0,1,5.532-3.7273,35.1965,35.1965,0,0,1,11.89-3.2069A.5778.5778,0,0,1,471.7487,266.3037Zm-21.3265,30.7532a49.7944,49.7944,0,0,0-7.6529-8.2713c-.3314-.24-.5775-.6818-1.012-.7117a.5781.5781,0,0,0-.4051.9782c7.896,6.5606,12.9648,15.1728,15.9759,24.6442a61.3391,61.3391,0,0,1,1.0216,20.3075,74.0074,74.0074,0,0,1-2.0758,10.0438c-.1018.3969-.3943.8921.0243,1.1939,1.1124.579,1.093-1.34,1.3949-1.9943.7106-2.653,1.1884-5.3625,1.6542-8.0672a62.318,62.318,0,0,0-.9185-21.8022A60.4955,60.4955,0,0,0,450.4222,297.0569ZM409.4664,163.7647c-.5773.6393-1.73,1.4841-1.9572,2.2816a.5777.5777,0,0,0,.9782.4051,21.31,21.31,0,0,1,1.7893-1.8765C410.8094,164.0584,409.9843,163.2338,409.4664,163.7647Zm-17.7557-8.026a.5729.5729,0,0,0,1.0965-.2208,5.8774,5.8774,0,0,0-1.1043-3.3809c-.51-.512-1.2534-1.2854-2.0122-1.2568a.578.578,0,0,0-.1369,1.0473C391.2434,152.68,391.5,154.0163,391.7107,155.7387ZM498.5494,315.8028c-2.2917,8.422-7.1616,15.9159-12.719,22.55-8.4106,9.5793-20.1785,18.8035-33.6079,17.3138h-.0115c-7.1043,3.472-14.8617,5.4658-22.5389,7.2418a158.6916,158.6916,0,0,1-16.4545,2.1084c.3552.6646.71,1.3407,1.0542,2.0053.2292.5729.802,1.1.7563,1.7416a.4631.4631,0,0,1-.2063.298c-.0114.0114-.0229.0114-.0229.0229-.149.1605-.3094.3208-.4813.4927a38.2014,38.2014,0,0,1,2.2918,3.0709c2.2,3.048,4.1136,5.3741,6.2907,8.3647a1.0563,1.0563,0,0,1,.3323.94.71.71,0,0,1-.0115.4355,40.6289,40.6289,0,0,1-3.4032,2.8761c-.6073.3781-1.0427-.2292-1.2833-.7219-.4584-.71-.3667-.6875-.974-1.0427a1.7067,1.7067,0,0,0-1.2605-.0344c-.0229.08-.0458.1833-.0572.2406-.0917,1.1459.0916,2.28.08,3.4147-.8594,1.2031-2.3606,1.8562-3.4949,2.7844-2.3719,1.925-6.0731,4.4344-8.972,6.52-1.0428.8021-2.6241,2.2917-4.0907,3.2886-1.398,1.1344-3.7928,2.83-5.7178,4.0792-.0574.0345-.0688.0345-.0917.0345v.0114a.5758.5758,0,0,1-.9167-.4583.4958.4958,0,0,1,.0458-.2177,2.9447,2.9447,0,0,1,.1948-.5043,74.6232,74.6232,0,0,1,7.1272-14.5294c2.1771-2.9449,1.4667-4.7667-.7333-7.3449-.3209.2177-.63.424-.94.6187a.5754.5754,0,0,1-.8593-.5041c-.023-.0115-.0343-.0115-.0458-.023-.5272-.3437-.9854-.8134-1.49-1.2031-2.8991-2.4177-5.7752-4.8584-8.5367-7.4481-2.0167-1.8562-3.9417-3.7927-5.8552-5.7636a49.6485,49.6485,0,0,1-6.6346-.6416c-4.1823.6875-8.4793.7906-12.6961,1.1-9.9231.573-19.9035-1.0083-29.563-3.1969a117.584,117.584,0,0,1-18.9868-6.44,95.8933,95.8933,0,0,1-16.993-10.45,65.1371,65.1371,0,0,1-7.6085-6.8294c-.8251.7219-1.65,1.4438-2.498,2.1542a.5789.5789,0,0,1-.9625-.5271c-.4355-.4354-.8594-.8594-1.2834-1.2948-1.226,1.5469-2.6125,2.9678-3.9417,4.4344-2.5668,2.6241-4.7209,5.6148-7.2647,8.2617a.59.59,0,0,1-.3667.2177.5273.5273,0,0,1-.4469.2292c-.5959-.1032-.9052-.7907-1.375-1.1344-.6417-.63-1.2834-1.272-1.9136-1.9251-.3094-.3323-.9281-.8938-.7563-1.3292a.4108.4108,0,0,1-.0458-.1031c0-.7906.6761-1.4781.9166-2.2344a2.4681,2.4681,0,0,0-.2177-2.1886c-.6072-.7907-1.6385-.3552-3.0937.4354-.3438.1261-.6532.47-1.0427.3667-.8824-.63-1.57-1.5813-2.4407-2.28-3.8043-3.8156-7.54-7.7115-11.0117-11.8366a16.9322,16.9322,0,0,1-1.3521-1.524v-.0114a57.4706,57.4706,0,0,1-4.01-4.3429.5437.5437,0,0,1-.16-.401.5747.5747,0,0,1,.2406-.8594,4.8082,4.8082,0,0,1,2.4063.2865,59.6959,59.6959,0,0,1,9.7627,4.9386,20.15,20.15,0,0,0,8.5825,2.67,9.8858,9.8858,0,0,0,5.7063-2.8991c.1834-.16.3437-.3667.5156-.55-1.4781-1.6385-2.9678-3.2657-4.5719-4.7782a.4837.4837,0,0,1-.1719-.3667V323.4a.4753.4753,0,0,1-.08-.126.5729.5729,0,0,1,.0573-.4354c.6073-.7792,1.2032-1.57,1.81-2.3491,1.4323-1.7761,2.8532-3.5636,4.2855-5.3511v-.0115a54.5171,54.5171,0,0,1,.0688-18.5514,53.5873,53.5873,0,0,1,7.5856-21.1066,57.8892,57.8892,0,0,1,9.5793-10.5075c9.35-8.2616,22.2067-14.6326,34.9486-14.5409-.1032-.8365-.2063-1.65-.3209-2.4292a.4665.4665,0,0,1,.0115-.3552c-5.0418-1.4209-8.88-5.3054-8.17-10.9774.3782-2.2916,2.12-4.0448,3.621-5.7177a34.2772,34.2772,0,0,0,2.2229-3.1626,2.4411,2.4411,0,0,1,.3094-.4812v-.0918c-.0688-2.2687-.2636-4.5146-.3553-6.7719a.4824.4824,0,0,1,.0459-.2292v-.0114a.5262.5262,0,0,1,.2291-.3667.2118.2118,0,0,1,.023-.08c.2979-.3895.8823-.401,1.3063-.63,1.2833-.4584,2.051-.8823,3.3458-1.3636l.023-.0229a.5725.5725,0,0,1,.401-.16c.9511.0917,1.9022.149,2.8532.1833,4.8011.023,9.5908,0,14.3691.4928,2.6812.1947,5.3625.2635,8.0553.3208a.7405.7405,0,0,1,.0114-.2749,13.9032,13.9032,0,0,1,.7563-2.6126c1.0542-2.8647,2.0626-5.7408,3.1625-8.5825,1.9595-4.4345,3.93-8.8689,6.1762-13.1544,2.1084-4.5949,5.3168-9.35,10.3586-10.9658,6.13-1.57,12.5241-.298,18.7576.0687-.2636-.5271-.5156-1.0542-.7678-1.5813a9.8839,9.8839,0,0,1-1.8333.4125c-2.9678.1032-6.2564-.2406-8.5939-2.2229a10.45,10.45,0,0,1-3.5407-7.047,25.3633,25.3633,0,0,1-.7448-7.2533c-.0114-.16-.0114-.2521-.0229-.2979v-.0115a1.3471,1.3471,0,0,0-.0115-.1833c-.0115-.0114-.0115-.0114-.0115-.0229-.0458-.023-.103-.0458-.16-.08-1.4209-.6646-3.9074-.9166-5.6376-1.8333-1.2948-.5385-.9625-1.2719-.0916-2.0167,1.3177-1.2605,2.7385-2.4177,4.1251-3.6209,4.5376-3.6324,8.5366-7.3564,14.2315-9.3044,4.4344-1.2146,9.4762-1.5125,13.7044.5386a22.1285,22.1285,0,0,1,6.497,6.0158,9.46,9.46,0,0,1,1.1917,7.9866.4036.4036,0,0,1-.0687.16,3.3653,3.3653,0,0,1,.1374.7219,6.1122,6.1122,0,0,1-3.7927,6.3938,33.5166,33.5166,0,0,0,1.0771,3.7241,34.7373,34.7373,0,0,0,4.2854,8.5137,1.25,1.25,0,0,1,.3208.5729,8.99,8.99,0,0,1,1.1344.1261c2.8074.3093,5.672.1947,8.445.8249,3.3345.8251,6.7491,1.6615,9.7169,3.472,5.8782,3.6095,9.9116,9.4648,13.28,15.3545,6.1074,11.2179,9.8887,22.3555,14.4034,34.3985,1.0657,3.22,2.6011,6.371,2.6011,9.8315a11.0137,11.0137,0,0,1-3.4261,8.6511,29.3894,29.3894,0,0,1,13.5211,7.2876,28.2834,28.2834,0,0,1,2.5667,2.67.04.04,0,0,0,.0229.0115c1.8334,1.1573,3.5981,2.4521,4.022,2.7272a63.82,63.82,0,0,1,9.2356,8.7886,44.2858,44.2858,0,0,1,6.1876,8.8461,53.2775,53.2775,0,0,1,3.449,11.1033A51.5262,51.5262,0,0,1,498.5494,315.8028Zm-82.3412-131.865c.8365,2.4521,1.8563,4.6063,2.67,6.772.2062.5385.3667,1.1572-.1375,1.57a13.9184,13.9184,0,0,1-1.3178,1.0656c.39.298.9626.7334,1.3293,1.0542.8708.8938,2.5437,1.2834,2.4521,3.0365-.4125,2.6813-.5958,5.2023-.951,8.1814-.5959,4.24-1.2261,7.78-1.4323,12.1461-.2751,2.1886-.0917,4.4-.3324,6.5887-.0115.1375,0,.2865-.0115.4239v.08a2.6377,2.6377,0,0,1-.0687.8708v.0115c.4046,1.74.8423,3.4705,1.3111,5.1754.6366-.3652,1.5114-.6594,2.0042-.995.49-.2549.9847-.5009,1.4717-.7616a.6.6,0,0,1,.9092.219.5872.5872,0,0,1-.2958.7539q-1.8672.9736-3.7511,1.9157c.3657,1.28.7327,2.5611,1.1351,3.799a6.3563,6.3563,0,0,0,.2636.7563c4.2969-.39,8.5825-.8021,12.8679-1.1688-1.0885-2.1313-1.9593-4.423-3.0594-6.5543-2.349-4.79-5.2021-9.3387-6.9209-14.4034a.5717.5717,0,0,1,.9969-.5041c.3884,1.055.8318,2.1076,1.2973,3.16a43.1833,43.1833,0,0,1,4.2538-2.194.5734.5734,0,0,1,.45.92c-1.2767.867-2.7691,1.4574-4.1292,2.207a.5065.5065,0,0,1-.1266.0493c2.3121,5.0207,5.26,10.0438,7.5617,15.2618,1.3732-.698,2.6844-1.5085,4.0143-2.2842.0893-.0547.1771-.1123.266-.1681.0211-.02.026-.05.0518-.0673a.5981.5981,0,0,1,.9734.5836.7661.7661,0,0,1-.3753.4344c-1.4564.8679-2.905,1.7548-4.4159,2.5261a.4906.4906,0,0,1-.065.027c.1076.2556.223.5089.3271.7655a.3541.3541,0,0,1,.0573.1375c3.9073-.3324,7.8147-.6188,11.722-.8136a.5741.5741,0,0,1,.2177,1.1q-8.124.5228-16.2623,1.2309c.0436.1233.0757.2541.1223.3717.2563.7563.5556,1.4974.8449,2.2415.2879.5068.4939,1.4022-.368,1.3581a.4947.4947,0,0,1-.3738-.2155,36.4766,36.4766,0,0,1-1.3442-3.4881.5148.5148,0,0,1-.022-.1641q-7.6072.6675-15.1964,1.4614a.5559.5559,0,0,1-.1375-.0115c-.722,6.0043-1.3177,13.1314-1.57,19.5941a92.7112,92.7112,0,0,0,14.1285,1.1229h.4469c6.3136.0574,12.7648-.2979,18.9523-.6417,3.071-.1031,5.7866-1.0542,8.995-1.9136a14.2343,14.2343,0,0,0,2.04-.7906,9.3668,9.3668,0,0,0,1.4667-.8479h.0114a9.6746,9.6746,0,0,0,1.0886-.8823c.5614-.3553,1.6844-2.6584,1.8907-3.06,2.2916-5.7407-1.3407-11.8825-3.3345-17.8982-1.4161-3.7495-2.7573-7.3993-4.14-10.9831a.8288.8288,0,0,1-.2141.1077c-.0084.0024-.0164.001-.0247.003a29.0508,29.0508,0,0,1-3.9334,1.938.5731.5731,0,0,1-.5-1.0025c.8853-.3577,3.1172-1.4732,3.9041-1.8989a.5589.5589,0,0,1,.3548-.2081,127.9262,127.9262,0,0,0-11.1225-22.836c-2.8222-3.9231-5.5814-7.3459-9.5744-9.901a.5735.5735,0,0,1-.31.2471l-.0056.0042c.0489-.0208.1333-.0555.0326-.0076-.0108.0056-.0235.0041-.0346.0092a21.4174,21.4174,0,0,1-2.5518,1.4979.573.573,0,1,1-.5784-.9894c.84-.4055,1.6263-.9131,2.4354-1.3762l.0048-.0105a35.791,35.791,0,0,0-8.8626-3.0177A57.7712,57.7712,0,0,0,416.2082,183.9378Zm25.1974,75.9472c-4.274.149-8.5366.39-12.8221.4469.5156.7449,1.0771,1.524,1.2261,1.6959a70.4391,70.4391,0,0,0,7.2418,8.4105c2.074,2.2,4.2626,3.495,6.7146,5.5116.2063.1719.47.4126.7449.6646-.08-.39-.149-.7677-.2063-1.0427-.4927-2.3605-.7677-5.3855-1.0427-7.2648-.6531-2.2458-.8823-4.5833-1.5813-6.8178-.1031-.3322-.2291-.6645-.3093-.9969,0-.0114-.0115-.0114-.0115-.0228A.56.56,0,0,1,441.4056,259.885Zm-62.5751-11.8137a66.0945,66.0945,0,0,1-8.1012-1.9709c.4469,4.6064,1.1115,8.6169,1.6386,13.0513,4.3656-1.3865,8.7887-2.7157,13.2575-3.77,2.7729-.8366,5.4428-1.9366,8.1814-2.8761a8.071,8.071,0,0,0-2.67-1.2834c-2.1084-.5042-5.6147.16-8.2846-.0459a1.6485,1.6485,0,0,1-1.2261-.5042.6311.6311,0,0,1-.8593.0115.9549.9549,0,0,1-.4355-.7562.2513.2513,0,0,1-.0916-.0115A1.661,1.661,0,0,1,378.8305,248.0713Zm17.6232,4.4917a7.1178,7.1178,0,0,0,4.1022-.2292c.0688,0,1.57-.9052,2.12-1.1a8.4351,8.4351,0,0,1,2.6814-.4469c2.36-.0459,4.698-.0917,7.0584-.0688.2062-3.1053.4354-6.21.7677-9.3043a25.5458,25.5458,0,0,1-6.7376.5156,30.3853,30.3853,0,0,1-5.7293-.9625c-1.6386-.1948-3.93-.9626-5.0417-1.0771a14.2834,14.2834,0,0,0-6.8752,1.4438,23.48,23.48,0,0,0-5.248,2.3948c-.63.5041-1.4667,1.0542-2.04,1.5125a22.03,22.03,0,0,1,3.6324-1.8333,37.321,37.321,0,0,1,7.0355-2.4064.5716.5716,0,0,1,.3094,1.1,34.959,34.959,0,0,0-6.0731,1.9937c-3.025,1.0886-7.6887,3.9533-6.2105,4.5949a1.6648,1.6648,0,0,0,.4011.1375,6.4306,6.4306,0,0,1,2.2917-1.9937c2.9906-1.4209,6.0042-2.9907,9.2814-3.598a.5774.5774,0,0,1,.6532.8365c-.172.3093-.5615.2864-.8595.3666a14.132,14.132,0,0,0-2.1656.6073c-2.372.974-6.1991,2.3147-7.7117,3.7813a2.0616,2.0616,0,0,0-.6187.94c.0573.0344.1146.0688.1489.0918a1.4948,1.4948,0,0,1,.3782-.39,3.9892,3.9892,0,0,1,.4125-.2521,44.4716,44.4716,0,0,1,6.13-3.0365,20.6622,20.6622,0,0,1,3.8157-1.3291.5826.5826,0,0,1,.3438.8479c-.4583.4927-1.26.5156-1.8563.8021a54.9778,54.9778,0,0,0-6.4626,2.876c-.4354.2292-.848.4469-1.2032.6646,2.6126.2178,6.5314-.7562,9.3846.4469C394.036,251.1192,395.2506,252.2651,396.4537,252.563Zm-2.3375-57.27a.5191.5191,0,0,1-.1948.1261c-.1031.8135-.2063,1.6615-.3093,2.5323a263.58,263.58,0,0,0-1.7762,26.8932v.3781c-.1031,4.6293-.126,9.2585-.1375,13.8878.2636-.0687.5386-.126.825-.1834,3.1282-.7791,6.13.6647,9.2013,1.0771a24.6,24.6,0,0,0,11.5846.2292c.0916-.8021.1948-1.6041.2979-2.4062a.5947.5947,0,0,1,.9625-.4469h.0115a28.7611,28.7611,0,0,1,4.698-.5844c.3323-.0344.6646-.0573.9969-.0917a148.79,148.79,0,0,1-6.1074-28.4516c-.3209-3.2313-.9053-6.3824-1.18-9.7971v-.0114l-.0115-.0115a.8043.8043,0,0,1-.0687-.1031,1.8485,1.8485,0,0,0-.4125-.47c-.0229-.023-.0344-.023-.0573-.0459a.4721.4721,0,0,1-.2406-.16c0,.0114.0114.0228.0114.0343l-.0458-.0572v-.0115h-.0114l-.0344-.0458a3.9508,3.9508,0,0,1-.3782-.4469,40.2091,40.2091,0,0,0-3.7928-4.3428c-1.6386-1.7761-3.0823-3.724-4.7781-5.4658-.2521.2636-.5386.298-.7563.5844C399.8111,190.5494,396.7173,192.6463,394.1162,195.2932Zm2.12-3.4834c2.0855-1.6615,4.022-3.4949,6.0272-5.248.0688-.0458.16-.1031.1833-.1146.023-.023.0459-.0343.0688-.0573a16.3136,16.3136,0,0,1-6.9554-1.2031,5.8535,5.8535,0,0,0-.2864,1.1573c-.4813,2.5782-.825,4.9042-1.1344,7.3219Q395.1533,192.7036,396.236,191.81Zm17.7952,4.2854c.08,4.8241,1.0083,8.8346,1.4437,13.51.4927,3.7927,1.1688,7.849,2.0053,11.9627.0114-.47.0114-.94.0229-1.41.2177-5.4083,1.0771-10.92,1.7646-15.8357.2063-1.65.2521-3.3115.5041-4.95.2407-1.3407.424-2.4522.1376-2.6241-.6875-.5385-2.3949-1.8791-3.071-2.4177-.6072-.39-1.34-1.0313-.4812-1.6156a19.1164,19.1164,0,0,0,1.5584-1.2261c-.5958-1.8678-2.12-5.0418-2.9563-7.6887a1.6667,1.6667,0,0,1-.3324-.0458c.0459.63-.2177.9625-.1947,1.6843C414.203,188.991,414.1687,192.5431,414.0312,196.0952Zm-.55-12.0543a4.28,4.28,0,0,1-.4469.2406,25.8956,25.8956,0,0,1-5.0073,1.375,28.4612,28.4612,0,0,1-4.2856.6646c2.2574,2.097,3.9533,4.79,6.222,6.8981,1.0772,1.0885,1.9365,2.3146,2.922,3.46C413.0686,192.4744,412.9311,188.2232,413.4811,184.0409Zm-2.4406-21.542c-.5157-.7907-2.1084-.9168-3.1167.2749a1.3582,1.3582,0,0,1-.0917.3553,29.3543,29.3543,0,0,1-1.7073,5.9126,17.9376,17.9376,0,0,1-4.9387,7.1615,23.23,23.23,0,0,1-6.7606,4.87c.3782.79.7564,1.5812,1.18,2.3489a2.4922,2.4922,0,0,1,.3552.7219,25.2049,25.2049,0,0,0,3.2772.9282,23.98,23.98,0,0,0,9.0751-.6417c1.6959-.3438,4.1251-.9281,4.7782-1.5126a.2.2,0,0,0,.0459-.0573c-.0115.023-.023.0345-.0344.0573.0114-.0114.0229-.0343.0459-.0573l.0229-.0228c0-.0229.0228-.0344.0343-.0574a24.8265,24.8265,0,0,1-2.0395-3.3459,35.144,35.144,0,0,1-3.5981-9.671.3955.3955,0,0,1-.0114-.2292v-.0114a.5276.5276,0,0,1,.1947-.5958c.9167-.3667,1.2376-.3438,1.799-.8938C411.3269,166.4406,411.9,164.2061,411.0405,162.4989Zm-30.8922.5155c3.426-1.6958,7.6771-.951,10.92.8366,1.8563,1.1114,3.8157,3.2084,5.2824,3.3573a6.1348,6.1348,0,0,0,4.6521-1.6615,6.034,6.034,0,0,0,2.3491-4.148,16.5042,16.5042,0,0,1,.5844-2.0282c-.0917-.0228-.1949-.0573-.3667-.103a14.1667,14.1667,0,0,1-6.4168-3.4033,8.4525,8.4525,0,0,1-2.5667-7.4709c-.2407.0343-.47.0687-.699.1031-5.5918.8364-9.9689,4.6522-13.9679,7.7-2.2345,1.8448-4.48,3.69-6.5772,5.7063a26.74,26.74,0,0,0,3.9531,1.2834,7.9943,7.9943,0,0,1,1.7074.5385A12.887,12.887,0,0,1,380.1483,163.0144Zm19.9035,12.6732a14.12,14.12,0,0,0,3.724-4.4459,26.3019,26.3019,0,0,0,2.9334-8.3418.867.867,0,0,1,.24-.5271c.0574-.5385.6532-.8709,1.0657-1.1459a3.0055,3.0055,0,0,1,3.5292.1605,8.1508,8.1508,0,0,0,.0344-3.071c-.5156-3.3917-3.9532-6.3479-6.5886-8.3646-2.5209-1.6272-6.13-1.9366-9.2128-1.673a6.778,6.778,0,0,0-.2062,1.2833,8.0038,8.0038,0,0,0,1.9594,5.03,11.7,11.7,0,0,0,5.5116,3.323c.6761.2751,1.5469.2751,2.051.8365.2407.5157-.1718,1.0427-.2749,1.5469a34.79,34.79,0,0,1-.9969,3.598,8.4264,8.4264,0,0,1-6.5085,4.4459c-3.0594.3094-4.8011-2.4979-7.0241-3.6209-2.7844-1.4323-6.2449-2.12-9.2814-.8593a12.386,12.386,0,0,0-1.226.71l-.0688.0688a9.1417,9.1417,0,0,1,.08,1.5813,14.6113,14.6113,0,0,0,.0916,2.876.2407.2407,0,0,0,.0688.0459,4.1886,4.1886,0,0,0,1.2146.424c.974.2291,1.65-.0688,2.9334-.8479.5271-.3324,1.5469-1.3522,1.8334-.2751.0343.6761-.8594.9052-1.2948,1.2834a4.8221,4.8221,0,0,1-4.5262.7562c.1147.5959.2522,1.2146.39,1.9136a10.1251,10.1251,0,0,0,2.4177,5.7178,8.9423,8.9423,0,0,0,6.1188,2.5553,8.5419,8.5419,0,0,0,4.3886-.4354A19.792,19.792,0,0,0,400.0518,175.6876Zm-7.2076,11.0461a29.032,29.032,0,0,0-3.701,5.6834.976.976,0,0,0,0,.1833l.0458.1834a7.7264,7.7264,0,0,1,.9511,2.2229,2.102,2.102,0,0,1-1.1917,1.5469c-1.3293.9854-3.38,1.5928-4.1136,2.3375-.0229.5157,1.6042,5.9929,2.3031,8.4794.8251,3.9188,2.1657,7.6773,3.2657,11.5273.16.5729.2865,1.1459.4126,1.73a206.8992,206.8992,0,0,1,3.8385-36.4726.051.051,0,0,0,.0573,0,.2389.2389,0,0,0-.0458-.0688c0,.023-.0115.0458-.0115.0688a.5119.5119,0,0,1-.126-.0115.315.315,0,0,1,.0229.149A17.4563,17.4563,0,0,1,392.8442,186.7337ZM356.028,218.5884c3.3459.0687,6.6918.1375,10.0148.4469.7218.16,2.4062-.1718,2.5208.8251a.1956.1956,0,0,1-.0114.08.2316.2316,0,0,1,.0458.0917,66.1587,66.1587,0,0,1,.825,6.7949c.39,5.7866.6531,11.5732,1.1344,17.36.0229.2406.0344.47.0573.71a.1927.1927,0,0,1,.0573.0229c.2292.0573.4584.1146.6761.1833a.6615.6615,0,0,1-.0115-.3666c.3781-3.7585.2865-10.4846.9969-15.32,1.1916-10.0262,2.5438-19.4565,4.2969-29.7807a.57.57,0,0,1,1.1.2979c-.6187,3.6782-1.0771,7.3793-1.7989,11.0346-.3443,2.1163-.6467,4.2893-.9358,6.4768a.4955.4955,0,0,1,.0909.089c.902,2.1109,1.83,4.5628,2.4992,5.9311a.5764.5764,0,0,1-.9577.5574,46.4442,46.4442,0,0,1-1.9116-4.4161c-.51,4.03-.9777,8.09-1.4893,12.01-.0208.1893-.0267.38-.0452.5695a.5029.5029,0,0,1,.359.3751c.4707,1.28,1.1788,2.9645,1.5311,3.78a.6727.6727,0,0,1-.007.8645.5808.5808,0,0,1-.95-.2183c-.3826-.8779-.7483-1.7636-1.1038-2.6534-.2161,3.4889-.2038,6.9978-.54,10.4718.0458-.08.023.401-.1375.5614,2.1428.5844,4.274,1.18,6.4741,1.5584a3.7917,3.7917,0,0,0,.5156.1376,6.1331,6.1331,0,0,1,.5386-.5615.5836.5836,0,0,1-.0917-.3782c-.16-1.0885.8937-1.6844,1.65-2.2229a19.3721,19.3721,0,0,1,6.2793-3.3689c.94-.3551,1.8448-.7448,2.8531-1.0885.023-4.7668.0574-9.545.149-14.3347v-.0115a10.0086,10.0086,0,0,1-.2635-1.0082,87.3423,87.3423,0,0,0-2.7386-10.0836c-1.1917-4.0907-2.1313-8.2387-3.38-12.318-.1833-1.1-1.1344-2.7844-.2062-3.7011a6.4179,6.4179,0,0,1,1.925-1.1c1.1573-.6187,2.6584-1.3521,2.9448-1.9136a3.2679,3.2679,0,0,0-.1718-.47c-.3323-.71-.9167-1.3751-.8021-2.2115a8.4654,8.4654,0,0,1,1.2261-2.4751c1.4208-2.2,2.6354-3.69,4.1937-5.7293-1.1344-.0687-2.2916-.16-3.426-.1948-.9818-.0744-1.9742-.1644-2.9676-.25.4962.9232.9554,1.8667,1.4671,2.7813a.524.524,0,0,1,.1032.2116.578.578,0,0,1-.9605.5642c-.7368-1.1682-1.2522-2.4842-1.9679-3.67-4.36-.34-8.6664-.416-12.1518,1.4859a18.45,18.45,0,0,0-6.3477,7.1609c.9161-.428,1.8355-.85,2.7284-1.3227a.5733.5733,0,0,1,.5784.9894c-1.3381.7085-2.7412,1.2893-4.0919,1.9741a.5112.5112,0,0,1-.0708.0293c-.0961.2-.1968.3964-.29.5993-1.5345,2.8859-2.9032,5.8581-4.2574,8.8408.827-.4608,1.6468-.9353,2.4807-1.3834.6653-.5628,1.6122-.0553,1.044.7337a.5817.5817,0,0,1-.37.193c-.6809.39-2.6294,1.51-3.7115,2.0651a.5051.5051,0,0,1-.2055.07q-.2574.5673-.515,1.1342c-.88,2.1333-1.8711,4.6363-2.79,7.1926.8216-.46,1.6473-.9135,2.4473-1.41a.573.573,0,0,1,.5783.9894q-1.745,1.0835-3.5585,2.0508c-.0152.009-.03.008-.0447.0156-.3866,1.1293-.7525,2.2562-1.0787,3.3539a.1451.1451,0,0,1-.0115.0687C356.0394,218.4166,356.028,218.52,356.028,218.5884Zm-29.07,1.3292c2.7616.2521,5.523.4583,8.2616.7563,9.66.6875,19.3536.7448,29.0246,1.02a1.6206,1.6206,0,0,1,.55-.2864,11.4022,11.4022,0,0,0,1.7417-1.18c-.298-.0229-.63-.0458-.9855-.0917-6.4511-.5385-12.9367-.2864-19.3878-.7906-5.42-.6531-10.8971-.1834-16.317-.6188-.47.2636-1.0771.3438-1.3406.5271C327.9889,219.4937,327.4733,219.7114,326.9576,219.9176Zm-1.5469,1.02c.0458,1.1687.149,2.349.2178,3.5177.0343.6531.0572,1.2948.08,1.948a1.6588,1.6588,0,0,1,1.5354.0687c2.04,1.7646-1.0313,5.4658-1.6386,7.0585a.4025.4025,0,0,1,.149.2063.3525.3525,0,0,1,.0344.1489v.0115a.954.954,0,0,1,.08.1833c.3208.7562,2.7844,2.1542,4.2625,2.5667a15.8213,15.8213,0,0,1,3.3116,1.1c1.5813.8708,3.1167,2.2687,2.8188,4.24a.8138.8138,0,0,1-.0688.2521v.0114a2.1891,2.1891,0,0,1,.39,1.5011,1.4987,1.4987,0,0,1-.6073.8594.5825.5825,0,0,1,.0344.1948,1.4856,1.4856,0,0,1-.4354,1.1573c.08.5958-.6761,1.1917-1.2032,1.5125-1.8792,1.18-4.2052.9626-6.2793.4927-.1375-.0229-.275-.0458-.4125-.08.16.8021.2979,1.6615.4125,2.5553.0573.3781.1031.7677.1375,1.1459.2751,2.2917.4584,4.6177.6646,6.2563a.0112.0112,0,0,1-.0115-.0114.1239.1239,0,0,1,.0115.0573c.0229.0114.0344.0114.0574.0229a12.449,12.449,0,0,0,1.7187.5156c4.7667.94,9.0637,1.5126,13.2461,2.1084,8.09,1.226,16.2711,1.9021,25.1859,3.4834.3437.0343,1.8333.1833,2.3032.2864a1.7268,1.7268,0,0,1,.5958.1375.7631.7631,0,0,1,.2291.0688.4038.4038,0,0,1,.3094.0573.3557.3557,0,0,1,.149.0687H372.7c2.7271-1.0541,5.0646-2.2,8.0323-3.2542,4.5033-1.9365,13.166-5.2251,15.6525-6.4168-.0115.0229-.0115.0344-.0229.0459a.3.3,0,0,1,.0687-.0573,8.6178,8.6178,0,0,1,.08-1.2032,5.4344,5.4344,0,0,1-1.26-.424.7266.7266,0,0,1-.1605-.0916h-.0114c-2.2458.8135-4.5032,1.6729-6.772,2.4521a65.9814,65.9814,0,0,1-7.2532,2.0167c-2.773.8136-5.5461,1.673-8.319,2.5094-.08.0344-.16.0573-.2291.08a.58.58,0,1,1-1.1573.0572c-.6646-6.0157-1.5012-10.4272-1.9824-16.6378-.676-7.7-.6875-15.6523-1.776-22.9056a1.5739,1.5739,0,0,0-.2063.1833,12.4237,12.4237,0,0,1-2.04,1.4094c.1949,1.948.2522,3.93.5271,5.8668.8251,9.9575,1.6959,20.9119,3.0251,30.2506.0115.4125.2521.8479.0688,1.2374a.5891.5891,0,0,1-.7906.2064c-.2865-.149-.2865-.4813-.3324-.7678-.2635-1.6958-.424-3.4146-.6531-5.1219-.4354-3.6782-1.02-7.345-1.1688-11.0576-.5729-6.7261-1.2719-13.4408-1.7646-20.167C351.2957,222.5645,338.313,222.29,325.4107,220.9375Zm2.4293,25.7931c2.4521.63,4.7323.7793,6.3366-.55a4.0391,4.0391,0,0,0-.7564-.08c-2.8073-.0115-5.8323-.1948-8.1469-1.9594a.5714.5714,0,0,1,.3666-1.0542c.4813.1375.848.5614,1.3177.7678.0688.0458.3552.1833.4813.252a13.2463,13.2463,0,0,0,4.549.8136,9.6179,9.6179,0,0,1,2.75.2406.8391.8391,0,0,0,.1031-.1146.0422.0422,0,0,0,.0114-.0344V245c.0345-.5386-.5156-.8823-1.6385-1.2834a10.971,10.971,0,0,0-2.1657-.3781,10.5344,10.5344,0,0,1-4.549-2.0167.5728.5728,0,0,1,.63-.9281,9.3913,9.3913,0,0,0,2.9219,1.501c1.5584.5385,2.9449.298,4.6293,1.2031a2.772,2.772,0,0,1,.7105.5043.3218.3218,0,0,0,.0687-.0917.2907.2907,0,0,1,.0229-.08.3213.3213,0,0,0-.0115-.0916.29.29,0,0,0-.0229-.08c0-.0229-.0115-.0229-.0229-.0573a2.3236,2.3236,0,0,0-.2407-.3781,7.1372,7.1372,0,0,0-3.4489-1.948,17.5944,17.5944,0,0,1-4.5377-2.349.5718.5718,0,0,1,.3667-1.0542,27.7446,27.7446,0,0,0,3.3344,1.8448,22.66,22.66,0,0,1,4.2054,1.8678c-.1375-1.1458-1.0542-1.776-2.5324-2.6011a17.6172,17.6172,0,0,0-2.6011-.7907,10.9854,10.9854,0,0,1-4.79-2.7271,2.1318,2.1318,0,0,1-.5271-1.02.4782.4782,0,0,1-.2292-.39c.2521-1.3635,1.26-2.4979,1.81-3.77.4813-.9168.6761-2.2574.424-2.4178-.08-.08-.16-.0573-.3781-.0459a1.1059,1.1059,0,0,0-.6531.4011c-.8595,1.3063-1.6959,2.624-2.67,3.8386a14.3124,14.3124,0,0,0-3.2313,4.5033,7.8944,7.8944,0,0,0,1.6157,6.9438C323.0273,245.2066,325.09,246.0661,327.84,246.7306Zm-52.3312,65.6231c.0687.5844.1374,1.0656.2177,1.5469,9.946-12.5242,19.8-25.1515,30.72-36.8621,6.5887-6.7033,12.9138-14.1284,21.1983-18.7576a.733.733,0,0,1,.1605-.0918,1.4452,1.4452,0,0,1-.0574-.3208c-.0114-.126-.0114-.2635-.0343-.3781-.2062-1.9938-.4239-4.0334-.6531-5.9585a33.8139,33.8139,0,0,0-8.33.8823c-13.51,2.773-25.564,11.2982-33.8943,21.5994a51.344,51.344,0,0,0-9.1669,24.7047A47.6954,47.6954,0,0,0,275.5088,312.3537Zm6.4855,29.3912-11.4586-9.5565a10.0856,10.0856,0,0,1-3.3573.9626,19.8937,19.8937,0,0,1-3.747-.5729c-5.6719-1.5125-10.76-6.2335-15.6065-7.196a2.06,2.06,0,0,0,.2177.2292c1.1573,1.3292,2.4292,2.5667,3.6782,3.8157a.8668.8668,0,0,1,.3781.5271c.722.7791,1.398,1.6156,2.0969,2.4178,2.7844,3.2541,5.8095,6.2677,8.7659,9.35.8364.7907,1.6729,1.57,2.4749,2.3834.1032-.0459.2063-.1032.2865-.1489a5.4347,5.4347,0,0,1,3.0251-.9282c1.5927.1375,2.2229,1.925,2.074,3.3115a11.3459,11.3459,0,0,1-1.1114,2.6813c.9739,1.1344,2.0739,2.1428,3.1281,3.2084C275.6692,348.6316,278.889,345.2054,281.9943,341.7449Zm98.7841,23.49c-2.9906-3.14-5.924-6.3367-8.96-9.43-5.7064-5.7521-11.9857-10.9085-17.3941-16.9472-5.2137-6.2792-10.6336-12.4439-14.8618-19.4565a71.0183,71.0183,0,0,1-4.1021-6.5887,54.0991,54.0991,0,0,1-2.5209-6.99c-1.1688-5.1105-.5271-10.8055,2.7386-15.0337a41.7639,41.7639,0,0,1,9.2127-7.998c-3.1168-.0344-6.2335-.0687-9.35-.2292a.5143.5143,0,0,1-.2292-.0458c-2.5553,5.3282-5.5689,10.3929-8.571,15.4575-3.1969,5.5116-6.3824,11.08-10.6106,15.8816-3.61,4.6636-8.01,8.5481-12.3523,12.5127-4.4689,4.297-8.8346,8.72-13.4524,12.868a2.0165,2.0165,0,0,0,.2178.2292,63.6171,63.6171,0,0,0,7.7575,6.8636c11.6876,9.0638,24.98,14.2774,39.4173,17.2795a131.8218,131.8218,0,0,0,19.4223,2.3261c5.03-.149,9.98-.275,14.8159-.8365,1.0656-.1261,2.1312-.2635,3.1855-.4469a29.3133,29.3133,0,0,0,3.4489.47C379.3,365.1891,380.0107,365.2235,380.7784,365.235Zm21.8973,18.1961c.8594,2.5438-.9969,4.847-2.4062,6.9553-1.7533,3.1282-3.3,6.3824-4.7783,9.6482-.1375.2749-.39,1.0541-.6875,1.8792a86.5429,86.5429,0,0,0,7.8033-5.947c3.1168-2.3949,6.6574-4.6178,9.3616-6.8408,1.18-.8937,2.3834-1.6271,3.2085-2.3719a14.4472,14.4472,0,0,1,.0113-3.5865c.31-1.0772,1.7875-1.0772,2.67-.7792a3.3036,3.3036,0,0,1,1.6958,1.6271c.6532-.5385,1.8907-1.5354,2.6355-2.1657-2.4635-2.9907-4.87-6.3366-7.3335-9.6939Zm9.27-18.3108c-.1948-.3552-.39-.71-.5958-1.0771-4.5147-8.3074-9.2471-16.5346-14.5065-24.3952-8.2961-11.9283-17.0848-24.3151-25.8391-35.2808a6.9291,6.9291,0,0,0-.401-.9626.5.5,0,0,1,.2177-.3781,31.0139,31.0139,0,0,1,3.5865-.7105c4.32-.7906,8.6054-1.73,12.8565-2.8761,10.496-2.28,20.82-5.2823,31.19-8.1011,6.52-1.8678,12.6846-3.2772,18.4482-6.5085a11.4108,11.4108,0,0,0,6.4512-7.5856.231.231,0,0,1,.0457-.0916c-1.7531-1.5469-4.0448-3.0251-5.901-4.6866a74.5684,74.5684,0,0,1-6.9324-7.5626l-12.9826-5.2022c-1.0886-.1146-2.1887-.2292-3.2886-.3552-.6761-.1833-1.6157-.0115-2.12-.55a.4675.4675,0,0,1-.08-.3209v-.0114a1.22,1.22,0,0,1-.1376-.6761c0-.6416.0344-1.2718.08-1.9136L400.98,253.3766a4.6089,4.6089,0,0,1-1.6157.424,9.5554,9.5554,0,0,1-1.7188.0916c-.0115.1146-.0228.2177-.0228.3208-.08.4011.0457.8824-.2292,1.2146-.0115.0115-.023.023-.0345.023,0,.1948-.08.2406-.2062.3781-6.8408,3.1282-16.2712,6.5543-24.1432,9.9117a.482.482,0,0,1-.4583-.0688.98.98,0,0,1-.71-.0917,7.6788,7.6788,0,0,0-.8594-.1833c-.9969-.0917-3.7814-.5729-5.7293-.8479-6.6574-1.0542-12.8451-1.6845-19.3993-2.5781-4.5491-.6876-8.296-1.1345-13.2118-2.0053a22.4292,22.4292,0,0,1-3.9875-.94h-.0115c-.1718.0916-.3666.16-.5271.2635a25.2263,25.2263,0,0,0-2.67,1.5927,83.532,83.532,0,0,0-10.0721,8.6512c-14.3575,13.98-27.088,30.3767-39.406,45.8915-.3093.39-.6187.7677-.9166,1.1573-1.3177,1.6386-2.6125,3.2771-3.9188,4.8929-.3094.252-.7907,1.1344-1.2833,1.7073,2.028,1.7761,3.69,3.9532,5.5573,5.89,3.7585,3.9417,7.6772,7.7459,11.3669,11.745.6188-.5729,1.2719-1.1115,1.9251-1.6615.2864-.2407.5729-.47.8479-.7219.527-.4469,1.0542-.9052,1.5468-1.3865,4.3887-4.2626,8.8-8.4793,13.1774-12.7419a88.8218,88.8218,0,0,0,8.0668-7.746,92.182,92.182,0,0,0,12.6732-17.91c3.0365-5.2137,6.222-10.3356,8.8459-15.7784.5157-.7563.6761-1.9137,1.4209-2.4292.7907-.0115.7907.4468.5844.9625.5615,0,1.2146.16,1.73.1032,2.899.0457,6.7376.2177,9.1668.1145a68.4383,68.4383,0,0,1,8.7429-4.3772c8.2272-4.148,16.81-7.5626,25.3921-10.8971,3.7928-1.5124,8.9835-4.0219,13.6357-5.7063a.5729.5729,0,0,1,.71.63.4689.4689,0,0,1-.2177.3781c-1.0083.4469-2.0969.7564-3.1167,1.2146-3.449,1.49-8.1929,3.5523-11.8825,5.0533-9.5221,3.5521-18.07,7.4595-27.2485,11.8023a48.6471,48.6471,0,0,0-5.0761,2.6469v.0115c-.2177.126-.4354.252-.6531.3895a47.8428,47.8428,0,0,0-10.1982,8.3419c-3.5292,4.5949-3.999,9.9575-2.5323,15.4231,1.1,3.0251,1.799,5.4773,3.4719,8.09,2.3835,3.575,4.595,7.2533,7.1387,10.7138,5.81,7.6772,12.65,15.8815,20.2816,22.55,6.096,5.4543,11.55,11.55,17.2337,17.417.3782.401.7677.7906,1.1459,1.18h.0114c1.7188,1.7647,3.4719,3.4948,5.271,5.1678,3.0709,3.0021,6.6116,5.58,9.6939,8.5137.974-.7791,2.5094-1.6041,3.3688-2.3375a149.4763,149.4763,0,0,0,11.86-9.2929,2.1365,2.1365,0,0,0-.1947-.3552Q412.7707,366.65,411.9457,365.12Zm84.9193-74.24a28.2094,28.2094,0,0,0-4.2512-8.88A60.1758,60.1758,0,0,0,478.6,267.8946h-.0115c-.8823-.6187-1.7646-1.2146-2.6813-1.7761,0-.0115-.0229-.0115-.0229-.0115a27.1931,27.1931,0,0,0-2.4865-2.6469h-.0114c-.9969-.951-2.0282-1.81-3.0022-2.5782a33.2251,33.2251,0,0,0-11-4.7323h-.0115a18.2359,18.2359,0,0,1-5.3626,2.051,39.8605,39.8605,0,0,1-11.6877,1.65c1.0657,2.59,1.2719,5.4886,2.0511,8.1929a91.0357,91.0357,0,0,0,1.6843,10.3355.0421.0421,0,0,1,.0115.0344.4106.4106,0,0,1,.023.126.6161.6161,0,0,1-.1948.4354c-.023.023-.0574.0345-.08.0574l-.0115.0114a.5728.5728,0,0,1-.3323.08.4693.4693,0,0,1-.3438-.149l-.0114-.0114h-.0115v-.0114l-.0229-.0229-.023-.023v-.0115a.0112.0112,0,0,0-.0114-.0114l-.0114-.0114V278.86h-.0115v-.0114l-.0114-.0115a9.6367,9.6367,0,0,0-.722-.8365,4.2359,4.2359,0,0,0-.1947.4813,18.4272,18.4272,0,0,1-1.57,3.2885,14.1382,14.1382,0,0,1-5.5689,4.32c-6.8637,3.7126-14.5867,5.2251-22.0118,7.4023-5.6835,1.4781-11.3211,3.0938-16.9817,4.6636-4.6865,1.123-9.4189,2.04-14.0711,3.3345-3.8729.94-7.8032,1.6958-11.7335,2.3833a.042.042,0,0,0-.0343.0114,4.8754,4.8754,0,0,0,.55.71c3.6209,4.572,7.07,9.27,10.5419,13.9451a356.7465,356.7465,0,0,1,29.4255,45.3758c6.4283-.6188,12.3409-1.0542,18.5285-2.5209a106.3368,106.3368,0,0,0,19.6171-6.2907l1.2948-.6187,2.1771.1145a20.7233,20.7233,0,0,0,2.9219.0115c2.8532.0344,7.0356-1.5011,9.4648-2.51,13.2346-6.36,24.7161-19.9493,29.7463-33.3329a39.3917,39.3917,0,0,0,2.4179-14.3232A35.3068,35.3068,0,0,0,496.865,290.88Zm-308.4641-22.457L201.51,350.8791H94.7845l-.1833-11.7909h39.1539l-11.6993-71.4441h-76.05a19.4613,19.4613,0,0,1-4.8584-.6073l-3.6438-.6989.1032-.5614h-.0115l-.1031.5614-4.2168-.8021A16.1153,16.1153,0,0,1,20.35,251.9116L.1713,106.5828a17.44,17.44,0,0,1,4.6751-14.518l5.3053-5.5574.7219-.7677a19.8438,19.8438,0,0,1,14.3232-6.1876h7.62c1.9823-2.7959,3.6553-5.798,5.97-8.33,3.6552-4.0563,8.6626-6.68,13.7044-8.6054,14.793-5.798,31.0871-3.0021,45.72-8.296,8.0554-2.7385,15.5607-9.1668,23.5474-13.1544,3.85-2.1084,8.1813-3.025,12.4325-3.9532a30.2738,30.2738,0,0,1,16.89,1.6156.5129.5129,0,0,1,.3208,0,36.9922,36.9922,0,0,1,5.1564,2.2918,28.2653,28.2653,0,0,1,6.2678,5.2824,57.06,57.06,0,0,1,4.6751,6.9439c4.423,7.0814,7.8949,14.8732,9.0866,23.1921.1833.9969.3437,2.0052.47,3.0136h68.7857c10.0491,0,18.7118,7.8605,20.167,18.2878l5.8439,41.95c.5156-.6188,1.0312-1.2375,1.5354-1.8677,4.1022-4.6637,8.1012-8.5482,13.7044-11.1493,1.9938-.8593,4.2741-1.8906,6.44-1.1114a2.2257,2.2257,0,0,1,1.7646,2.2344,3.8025,3.8025,0,0,1-.5958,1.925,5.475,5.475,0,0,1-1.9823,1.3406,22.3078,22.3078,0,0,0-3.3344,1.673,5.7489,5.7489,0,0,0-.9511.8595c1.3292-.0345,2.6928.0687,4.0334-.0345a53.7625,53.7625,0,0,0,11.722-1.9478c2.4751-.6074,4.8929-1.4668,7.3909-2.0053a5.4625,5.4625,0,0,1,2.28.0687,2.2387,2.2387,0,0,1,1.5813,1.9709.8649.8649,0,0,1-.0115.1719,10.3237,10.3237,0,0,1,1.0657.08,2.955,2.955,0,0,1,2.12,1.6959,2.0038,2.0038,0,0,1-.5844,1.8333,8.5847,8.5847,0,0,1-.8593.8479,1.88,1.88,0,0,1,1.1114,1.6272c.2063,1.0426-.6188,2.051-2.0052,3.0136h-.0115l.0115.0114a.5188.5188,0,0,1,.08.5041v.0115c-.0115,0,0,.0115-.0115.023a.4649.4649,0,0,1-.0573.1031,18.4376,18.4376,0,0,1-1.73,2.8417,14.095,14.095,0,0,1-4.9042,3.38,96.0794,96.0794,0,0,1-10.84,3.2886,61.2594,61.2594,0,0,0-8.7085,2.3032,37.5389,37.5389,0,0,0-14.6554,12.123l1.0312,7.3909a81.4793,81.4793,0,0,0,7.723,2.91.5846.5846,0,0,1,.2178.9969,64.0735,64.0735,0,0,1-2.899,7.62c-.825,2.12-1.6729,4.2168-2.5553,6.3137l7.1845,51.5635a22.7144,22.7144,0,0,1-5.2709,18.0587,20.6648,20.6648,0,0,1-15.5263,7.1844H188.47ZM275.44,173.7987c-1.4323-.6189-2.8417-1.2719-4.2512-1.9365-.1832-.08-.3436-.1719-.5156-.2407l-.0229-.0115c-2.2573-1.0885-4.48-2.2-6.6574-3.2771-.424-.2177-.8365-.4239-1.2489-.63-2.0511-1.02-4.0564-2.0167-5.9814-2.91l-.2406-.1032a.0422.0422,0,0,1-.0345-.0115c-.1375-.0573-.2406-.1145-.3781-.1718h-.0114c-3.4147-1.5125-7.0126-2.4407-10.4731-3.8387-1.0657,2.0625-2.3261,4.0678-3.4032,6.13-6.4283,11.2294-13.4524,22.1035-19.8119,33.3787-4.5261,7.6772-9.7053,14.942-14.2888,22.5848-.3781.6532-1.3636.0344-.9969-.5844,2.7959-4.6636,5.8324-9.1668,8.7658-13.7388,4.1251-6.2334,7.8147-12.73,11.5273-19.216-.9625-2.4292-1.7646-4.9271-2.6812-7.3792-2.2-5.5918-4.9731-11.4357-7.8492-17.165-7.3449-13.8992-15.9618-29.311-30.1245-35.51-4.1938-1.4666-8.6971-1.8792-13.0742-2.5553-3.6553-.63-7.322-1.2719-10.9773-1.9594.0115.0345,0,.08.0115.1032a.5372.5372,0,0,1,.0687.1031c2.8875,5.7293,6.749,11.1262,8.17,17.4628a6.7394,6.7394,0,0,1,.24,1.272,9.0612,9.0612,0,0,1-1.7416,2.9447c-.39.5386-1.0084,1.1917-1.3178,1.57a.04.04,0,0,0,.0115.0229c.1031.1032.4125.4354.4927.5156,1.18,1.2261,2.7959,1.7417,3.69,2.4063a6.9688,6.9688,0,0,1-.4926,3.1053c-2.9907,9.2929-4.297,19.01-6.6116,28.4745-2.0626,8.9835-5.3053,17.6576-7.5054,26.6182a.49.49,0,0,1-.3781.3782c-.2062,1.6843-.4469,3.3687-.71,5.0417-1.7417,12.3524-5.122,24.3838-7.8262,36.5413H179.257a46.4951,46.4951,0,0,1,1.501-17.1535c1.7188-6.2334,6.4626-11.9054,8.4106-17.4628,2.9792-9.35,2.3719-19.17-.2521-28.5891-1.8448-7.3563-3.93-14.6554-6.3251-21.84a.5715.5715,0,0,1,1.1-.3093c1.1917,3.5636,2.2917,7.15,3.3344,10.7481,2.8532,10.1866,6.1991,20.568,5.03,31.2819a34.4859,34.4859,0,0,1-2.5667,10.9772l4.423,25.9651q1.8392,3.2313,3.8387,6.3824H248.1c.3552-.4239.699-.8479,1.0083-1.2719,6.371-8.4449,9.9689-18.46,14.3232-28.0047q2.8016-5.8953,5.5345-11.6877v-.0114c.298-.63.5959-1.2491.8824-1.8793v-.0114c2.7729-5.9012,5.4542-11.7564,7.9522-17.6233v-.0114c.2864-.6761.5729-1.3521.8593-2.04V188.66c1.65-3.93,3.2084-7.872,4.6522-11.86-.0229-.0115-.0458-.0115-.0687-.0229-2.1886-.699-4.3886-1.5354-6.5772-2.4522C276.2535,174.1538,275.8411,173.982,275.44,173.7987Zm-6.1761,38.4892q-1.4783,3.111-2.9679,6.2334c-5.2364,10.6451-8.8689,22.1724-16.0419,31.7632-.2291.3093-.4583.6187-.71.9281h4.7554a17.853,17.853,0,0,0,17.669-20.4421Zm-85.2746,16.8555a31.2067,31.2067,0,0,0-2.91,8.2731,46.4072,46.4072,0,0,0-.63,13.7961H196.376C191.7926,244.1313,188.1029,236.5,183.9893,229.1434Zm-23.6962-64.3856c-.0688,8.6283-.6761,17.2337-1.3407,25.839-.2865,4.446-.5844,8.8919-.9969,13.3263.4584-1.5812.9511-3.1625,1.398-4.7438a253.1446,253.1446,0,0,0,7.6313-30.1588c1.0313-5.5689,2.83-12.1576,4.2282-17.0275.0115-.0916.023-.1947.0344-.298a13.41,13.41,0,0,1-2.75-1.6613c-.9167-.8251-2.4063-1.8105-.9854-2.9449,1.1229-1.3407,2.8531-3.2886,2.4521-4.0335-1.249-6.1532-4.996-11.4471-7.9637-17.245-.0344-.0918-.1949-.3552-.2521-.47h-.0115a.0354.0354,0,0,1-.0114-.0229v-.0114a.0113.0113,0,0,1-.0115-.0115.0112.0112,0,0,0-.0114-.0115.59.59,0,0,1-.0688-.1489.37.37,0,0,1-.0229-.1375.0875.0875,0,0,1-.023-.0573c-.0114-.0229-.0114-.0343-.0229-.0573-.0114-.0344-.0344-.0917-.0572-.149a.5469.5469,0,0,1-.1146-.3208c-.573-.1031-1.1459-.2177-1.7074-.3323.2407.9167.1146,1.9709.2751,2.91C161.1639,139.549,160.35,152.1764,160.2931,164.7578Zm114.9521,7.6888-.7563-5.5a43.9184,43.9184,0,0,0-2.4979,3.9991C273.0681,171.4611,274.1567,171.9652,275.2452,172.4466Zm-4.1594-29.9184a72.7634,72.7634,0,0,0-6.7033,9.8315c-.699,1.2146-1.4438,2.3949-2.2115,3.5636-.3094.47-.63.9511-.94,1.4209v.0114a57.4386,57.4386,0,0,0-3.9417,6.5314c1.7646.7792,3.5063,1.6157,5.248,2.4521.4125.1948.8364.401,1.2489.6073,2.3949,1.1688,4.79,2.3605,7.1845,3.5178a31.205,31.205,0,0,1,3.2887-5.1334c.3093-.424.6416-.848.974-1.2605v-.0114c.6187-.7563,1.2489-1.5125,1.8677-2.2459a37.0864,37.0864,0,0,1,8.7543-7.3908c3.77-2.5437,8.2616-3.3688,12.6044-4.3428,2.4522-.6072,4.8928-1.2718,7.2991-2.0625a18.6426,18.6426,0,0,0,5.6262-2.3375,9.1668,9.1668,0,0,0,2.83-2.6355c.2062-.3552.4354-.8021.6531-1.18v-.0115c-4.5031,2.372-12.0658,4.171-14.2658,4.6178-.7105-.0114-2.0741.6531-2.5323.0229a.57.57,0,0,1,.1489-.7448c1.375-.3781,2.876-.4469,4.2626-.8593,4.3084-1.0543,14.1971-3.93,14.6784-6.5544-.0918-.8364-.0344-.7562-1.0313-1.1114-.4583.3552-.9281.676-1.3979,1.0083a24.2767,24.2767,0,0,1-6.096,2.1542c-3.5063.8021-6.9324,2.0052-10.5419,2.2574-.7333.0687-1.2146.1375-1.6271.1947a.586.586,0,0,1-.71-.401.5727.5727,0,0,1,.401-.699c.8251-.1375,1.6387-.2063,2.4637-.2864,2.75-.2292,6.0959-1.3177,9.2126-2.0511,3.575-.7907,6.5886-1.8448,8.9033-4.1709.5729-.5386.7677-.8708.7906-1.1115,0-.0229-.0115-.0344-.0115-.0573v-.023c0-.0114-.0114-.0114-.0114-.0228-.5958-.8136-1.0427-1.0428-2.5094-.9053a3.003,3.003,0,0,1-.63.6875,14.6439,14.6439,0,0,1-4.0792,2.3605,45.9911,45.9911,0,0,1-13.51,3.1052.5823.5823,0,0,1,0-1.1113c2.0626-.2865,4.1251-.5387,6.1647-.94a33.8607,33.8607,0,0,0,9.2356-3.2313c1.1229-.6761,2.1313-1.5813,2.1313-2.1084-.0917-.7562-.5042-1.1917-2.1084-1.1-2.8647.5156-7.1043,2.0282-10.496,2.7615a54.2947,54.2947,0,0,1-13.8763,1.2833,1.0076,1.0076,0,0,1-.1949-.0229,6.006,6.006,0,0,0-.802,2.7616c.1261,4.3427-2.0511,6.8521-5.58,9.0293a.5966.5966,0,0,1-1.0543-.4927.5378.5378,0,0,1,.2637-.3438c1.0427-.7562,1.7188-1.1229,2.5094-1.8219a7.6222,7.6222,0,0,0,2.3031-3.2313c.6991-1.9595.0115-4.8814,1.6615-6.9783,1.524-2.3948,4.3886-2.899,6.6231-4.3428a2.2473,2.2473,0,0,0,.5157-2.0052c-2.7272-3.174-12.4327,3.5522-15.7442,6.9095-2.2115,2.349-4.3083,4.6636-6.2563,7.0355-.3437.4011-.6646.8022-.9854,1.2032ZM176.6673,90.8044h60.0543A18.5306,18.5306,0,0,1,254.9521,106.56l6.9668,47.6446c1.123-1.7989,2.1771-3.6438,3.3115-5.4428a58.6275,58.6275,0,0,1,5.6376-7.7689l-5.9928-43.0039c-1.375-9.8543-9.5564-17.2909-19.0326-17.2909h-68.66A30.5549,30.5549,0,0,1,176.6673,90.8044Zm-.401,1.5354a25.84,25.84,0,0,1-6.2335,11.6075,21.6429,21.6429,0,0,1-11.3554,5.89c-.2865,1.4553-.7907,2.8876-.974,4.3772-.39,2.1542-.0114,6.497.974,8.33.0344.08.08.16.126.2635a11.7273,11.7273,0,0,1,2.04.3552c4.3313.7677,8.6512,1.5928,12.9825,2.3261,4.9157.8021,10.072,1.0886,14.6555,3.1855,15.2857,7.746,23.3067,23.9484,30.961,38.4664,3.0479,6.6115,6.21,13.1543,8.4334,20.0982a3.6529,3.6529,0,0,0,.2865.7334c2.7845-4.5835,5.672-9.0866,8.3647-13.7273,2.1772-3.69,4.3772-7.3679,6.4283-11.1378.5615-.9969,1.1344-2.0167,1.7073-3.0136a.5971.5971,0,0,1,.3782-.7677c.7677.023.8364.3208,1.3979.47a82.9549,82.9549,0,0,1,9.8085,3.6209,51.1656,51.1656,0,0,1,3.9532-6.5887c.2636-.3781.5271-.7677.7792-1.1573l-7.1616-48.951a17.3741,17.3741,0,0,0-17.0961-14.77H176.3809C176.3464,92.0763,176.3007,92.2138,176.2663,92.34ZM145.225,57.1735a20.2668,20.2668,0,0,1-6.898,3.048,9.567,9.567,0,0,0-4.3886,2.6813c-2.6928,2.5667-4.4115,6.222-6.0616,9.9-.6875,1.6042-1.5584,4.5834-3.8157,5.5688a.1526.1526,0,0,1-.0916.0344.0458.0458,0,0,1-.0459.023.5047.5047,0,0,1-.2979.08c-1.6157.0459-2.9792,0-3.873.5729a3.887,3.887,0,0,0-1.5584,1.6158c-1.2719,2.3375-.5843,6.0157.8021,8.5366a11.8054,11.8054,0,0,0,1.0084,1.57,10.6685,10.6685,0,0,0,.9968,1.1458,7.54,7.54,0,0,0,6.6346,2.4636.58.58,0,0,1,.5042,1.0084.6291.6291,0,0,1,.2062.4469c-.2177,2.4406-.55,4.7782-.825,6.8178-.5042,3.598-.848,6.9668-1.3636,10.8283a52.5978,52.5978,0,0,0-.8708,7.6429.5541.5541,0,0,1-.0344.2063,10.9974,10.9974,0,0,0,1.2376.5728c6.7032,2.8074,13.3148,3.2085,20.4764,2.773,3.8959-.2177,7.2418-.2406,10.76-1.5125a16.76,16.76,0,0,1-.8822-2.4407,19.0935,19.0935,0,0,1-.4126-4.0219,25.9116,25.9116,0,0,1-4.9272-3.6782,9.777,9.777,0,0,1-2.9219-5.6261c-.08-.0688-.149-.1261-.2292-.1834-.4583-.4011.08-1.2146.6188-.9282a13.7255,13.7255,0,0,0,3.174,1.7876c3.8615,1.6385,9.2127.5156,13.2-1.9251a20.2556,20.2556,0,0,0,6.8408-6.9782,28.2778,28.2778,0,0,0,3.0595-7.2533c.0916-.3781.1832-.7563.2635-1.1458a29.8422,29.8422,0,0,0,.7219-7.471c-.0458-.8708-.1146-1.7531-.1948-2.6354-.0344-.39-.08-.7677-.1261-1.1459a58.7088,58.7088,0,0,0-4.572-16.6951c-1.4666-3.6209-4.0562-7.6429-6.3365-11.344a25.6811,25.6811,0,0,0-9.11-9.4533,27.5362,27.5362,0,0,0-3.7354-1.7188,4.6746,4.6746,0,0,0-.5959-.2291H151.55a.55.55,0,0,0-.08-.0344c-.0115.0114-.023.0344-.0459.0458l-.08.08a.2433.2433,0,0,0-.0458.0687C149.4876,46.5285,153.2231,51.9256,145.225,57.1735ZM86.0187,199.9241c-.0916.2521-.1833.4927-.2635.7449L74.8237,251.2126H96.572c3.7928-11.493,7.6315-22.9743,10.84-34.6391.9281-3.2658,1.776-6.5544,2.5667-9.843a.4289.4289,0,0,1-.1031-.1719c-.149-.8708-.0918-1.7875-.2064-2.6812-.3437-4.7782-.63-9.568-1.1229-14.3462-.4583-7.23-1.1458-14.4377-1.8906-21.6337-.7334-4.4345-1.1458-9.7741-1.4667-14.7242-.275-1.65,1.799-2.0053,2.91-2.6126,1.3636-.5385,3.7814-1.65,4.6866-2.0969a12.9081,12.9081,0,0,1-2.1427-2.6583,3.04,3.04,0,0,1-.023-2.9679c.5386-1.2489,1.1458-2.4635,1.799-3.6553,3.0709-5.523,4.8584-10.8856,7.4825-16.5576-1.2605.2063-2.5209.4012-3.77.6532-9.0752,1.7417-18.1962,3.2657-27.0536,5.9126a.577.577,0,0,0-.6074.1833c-.16.0459-.3093.0917-.47.1375-7.1271,1.8563-14.0137,4.5261-19.2045,9.3961-4.8354,4.6063-8.3074,10.1637-11.8825,16.0534-5.397,8.7772-9.9117,18.0358-14.4836,27.26-2.899,6.21-5.7865,12.4439-8.571,18.7118l5.122,35.0173a17.9544,17.9544,0,0,0,17.6691,15.2628h9.3386c1.8793-4.2855,3.5064-7.9408,5.1335-12.2148,5.3512-12.41,8.5481-25.5755,13.3951-38.18.2291-.424.2635-1.0083.6531-1.3177A.5673.5673,0,0,1,86.0187,199.9241Zm24.7047,3.0136c.0229.16.0343.3208.0458.4813,1.6271-6.9439,3.0938-13.9336,4.698-20.8889,2.12-8.2732,3.3459-16.7409,4.721-25.1631a238.4068,238.4068,0,0,0,4.2052-35.04.2841.2841,0,0,1,.0115-.1032.8722.8722,0,0,1-.275-.3437c-.9625.2062-1.9365.3782-2.922.5385a30.6867,30.6867,0,0,1-1.3062,2.9449c-1.3865,3.1969-2.8761,7.1386-4.5949,10.6679-1.0657,2.4063-2.9449,5.4542-3.7126,7.4137-.2636.94-.3208.676-.08,1.5125a8.6676,8.6676,0,0,0,1.5584,2.1656c.3666.4584,1.1114.8136,1.0656,1.4668-.1833.7677-1.1344.951-1.73,1.3177-1.6615.8365-3.3116,1.4094-4.6751,2.0625-1.5584.9167-1.4667.2636-1.3636,1.6729.2636,2.5209.3094,5.0648.5386,7.5971.2635,2.6011.8708,5.5574,1.0656,8.5824.8479,7.1846,1.3063,14.4034,1.8907,21.6109C110.2535,195.2605,110.5057,199.0992,110.7234,202.9377Zm14.9877-95.0372c.1146-1.0083.2292-1.9594.3552-2.8761-2.4177,1.5584-5.3626,1.8907-8.124,2.4522-4.0907,1.0084-7.5054,3.0709-11.5388,4.8928a45.9989,45.9989,0,0,1-8.8689,3.0136c-6.7377,1.0312-13.567,0-20.3389-.3209A64.32,64.32,0,0,0,56.4671,117.4c-8.422,2.0855-16.6034,5.4085-25.3234,6.1419a33.52,33.52,0,0,1-8.7084-.6991L33.55,198.8585c3.2428-7.23,6.4971-14.4492,10.0377-21.5192a292.2019,292.2019,0,0,1,14.3576-26.32c4.2053-6.3939,8.6282-13.04,15.4-16.9358,5.1563-3.2313,11.0918-4.7667,16.9013-6.3938,11.1034-3.1511,22.539-4.95,33.8944-6.921v-.0229C124.382,116.1621,125.3215,112.4267,125.7111,107.9005Zm1.5355-3.85h-.0115v.0229A.04.04,0,0,1,127.2466,104.05ZM32.5646,81.7865a23.5922,23.5922,0,0,1-6.6689,5.5574C21.381,90.1169,16.3966,92.89,13.44,96.591c-4.2739,5.1333-5.3969,12.4783-2.051,17.8524a17.1171,17.1171,0,0,0,9.66,6.8522c.39.126.7906.2292,1.2031.3322a30.4392,30.4392,0,0,0,10.2669.63c7.54-.8366,16.1335-4.1252,24.0171-6.05a65.1984,65.1984,0,0,1,19.9034-2.3261c6.8751.3094,14.7129,1.3979,21.015.3553a47.8878,47.8878,0,0,0,9.3158-3.3c4.2168-2.0051,8.3763-4.3313,13.0628-4.9959,2.0625-.4812,3.9761-.7563,5.5-1.81a6.3758,6.3758,0,0,0,.8709-.5729.04.04,0,0,1,.0228-.0115l.023-.023c0-.0114.0115-.0114.0229-.0229.275-2.04.55-3.999.7907-6.2563a10.2211,10.2211,0,0,1,.2062-1.6157,7.3652,7.3652,0,0,1-2.1886-.0916,10.01,10.01,0,0,1-5.6147-3.5866,10.2056,10.2056,0,0,1-.8479-1.1458,14.7636,14.7636,0,0,1-2.1428-5.42,8.9486,8.9486,0,0,1,.4469-4.6864,5.7964,5.7964,0,0,1,.6189-1.1459,4.8722,4.8722,0,0,1,1.8218-1.57,9.9935,9.9935,0,0,1,4.2053-.6188,4.9082,4.9082,0,0,0,1.2375-.9855c.9969-1.0656,1.3406-2.5208,2.0969-4.1938a35.379,35.379,0,0,1,5.2481-9.0637,14.21,14.21,0,0,1,4.1593-3.3688c2.0512-.8823,4.4346-1.2833,6.0158-2.1656,3.873-1.9595,6.8866-4.8585,7.1846-8.6513.0916-2.8646-.1376-5.7751.55-8.6053a1.7951,1.7951,0,0,1,.2407-.5729,4.9441,4.9441,0,0,0-1.0542-.424,23.0917,23.0917,0,0,0-6.4168-1.3063,26.9728,26.9728,0,0,0-10.5648.7907A38.2736,38.2736,0,0,0,120.36,43.1827c-7.3564,4.0448-13.9336,9.5335-21.966,12.2835C82.49,61.0122,64.4079,57.8381,49.6951,65A30.6108,30.6108,0,0,0,39.497,72.1384a72.3434,72.3434,0,0,0-5.2824,7.4137c-.2635.3782-.5385.7677-.825,1.1459C33.126,81.0646,32.8511,81.4313,32.5646,81.7865Zm3.3,183.0847a22.1038,22.1038,0,0,1-10.6565-16.0878L5.03,104.0161a22.2363,22.2363,0,0,1,1.8219-12.41l-1.18,1.2375a16.2791,16.2791,0,0,0-4.3543,13.5784L21.4842,251.7511a14.9858,14.9858,0,0,0,11.9971,12.6618Zm229.4918,1.6271a19.2305,19.2305,0,0,0,14.6555-6.795,21.5075,21.5075,0,0,0,5.0073-17.1419l-6.9209-49.65c-2.498,5.8553-5.1793,11.6648-7.9522,17.5086v.0115l2.9562,20.1785a18.9986,18.9986,0,0,1-18.8034,21.7484H56.6505A19.1094,19.1094,0,0,1,37.847,236.11l-4.8584-33.1955-.3095-2.0969v-.0114L21.8738,126.8874a18.3407,18.3407,0,0,1-10.6565-10.7138c-.3781-.4812-.7334-.9969-1.0771-1.5354A16.4684,16.4684,0,0,1,11.2173,97.76c2.9907-4.8469,8.021-7.6772,12.7419-10.5763A25.8083,25.8083,0,0,0,31.98,80.698H25.1968a18.5246,18.5246,0,0,0-13.4983,5.8209c-.2406.2406-.4583.4927-.6875.7447a20.8753,20.8753,0,0,0-4.8469,16.592L26.3426,248.623a20.6742,20.6742,0,0,0,15.0107,17.291,19.0331,19.0331,0,0,0,4.6521.5843Zm-130.4556,72.51a10.7579,10.7579,0,0,0,10.3585-12.6159l-8.9147-50.8988-11.8138.1145Zm52.7323-68.1554-50.1312,4.5948,8.8919,50.75a11.9186,11.9186,0,0,1-11.2983,13.9564l.0115.08H95.77l.1375,9.4991H200.1688Zm-42-207.7921a9.9282,9.9282,0,0,0-4.2626,2.6344c-.2433.3487-.6745.7219-.5777,1.1834a.5779.5779,0,0,0,1.0472.1368c.4669-1.1231,2.6766-2.348,3.7512-2.7209.8314-.38,1.8-.3881,2.6264-.7276a.5664.5664,0,0,0,.1476-.7391c-.2591-.45-.7919-.2243-1.1944-.1536C146.6559,62.791,146.1362,62.8946,145.6336,63.0605Zm15.47-2.413a9.0176,9.0176,0,0,1,5.7145-1.71.5764.5764,0,0,0,.2893-1.0675,8.4958,8.4958,0,0,0-4.6157.7279c-.76.3829-1.7775.6413-2.23,1.4029A.5778.5778,0,0,0,161.1039,60.6475Zm-.9484,23.8547a44.4332,44.4332,0,0,0,6.36,2.5094c.2979.0916.6531.2063.8937-.0573a.6469.6469,0,0,0,.1375-.6531c-.2635-.8594-.6188-1.6959-.951-2.5324-.47-1.0427-.9282-2.0625-1.3636-3.0708-.16-.3782-.3209-.7677-.4813-1.1459a49.2337,49.2337,0,0,1-2.5782-7.8491c-.2406-.6188-.16-2.1428-1.18-1.73a.5622.5622,0,0,0-.2635.6416c.2177.8938.424,1.799.6646,2.6813a45.7908,45.7908,0,0,0,2.1312,6.2564c.149.3895.3094.7677.4813,1.1459.6646,1.5812,1.3406,3.0823,1.9136,4.4574a3.8766,3.8766,0,0,1,.2062.5385c-.2292-.0688-.47-.1261-.699-.2063-1.7187-.5729-3.0135-1.3063-4.9042-2.04A.5714.5714,0,0,0,160.1555,84.5022Zm-9.7856.7448c-2.5437.08-4.1136,2.4063-4.7438,4.6521-.0573.2751-.1834.5959-.275.9053a1.2666,1.2666,0,0,0,.0459,1.1344l.0114.0114a.5108.5108,0,0,0,.7563,0,.7785.7785,0,0,0,.2406-.5728c.0573-.1949.1031-.39.16-.573.5385-1.9021,1.0885-3.2772,2.6126-4.0907a4.0921,4.0921,0,0,1,.8937-.298c.2407-.0229.5271,0,.71-.1947A.5754.5754,0,0,0,150.37,85.247Zm1.3521,3.8844a.55.55,0,0,1,.3209-.6646.5818.5818,0,0,1,.2062-.1031.5733.5733,0,0,1,.4355.0573c.7677.5615,1.5125,1.1459,2.2688,1.7188.3208.2177.6646.4469,1.02.6646.63.401,1.3177.8021,1.9823,1.1458a11.9031,11.9031,0,0,0,3.1855,1.249c.3895.1031.8135-.0344,1.1916.08a.5828.5828,0,0,1,.7677.7677,9.3712,9.3712,0,0,1-2.5437,4.2626,3.3739,3.3739,0,0,1-4.572.55c-2.2229-1.6041-3.174-4.2511-3.7469-6.91-.08-.3781-.16-.7677-.2292-1.1458C151.9054,90.243,151.8137,89.6814,151.722,89.1314Zm1.3178.9969c.0458.2177.08.4469.126.6761.0688.3895.1375.7677.2292,1.1458.08.3438.16.6761.2635.9969.7449,2.7844,2.7387,6.1189,4.9387,5.3168a3.3784,3.3784,0,0,0,1.6959-1.4209,6.8515,6.8515,0,0,0,1.1687-1.5813,8.2153,8.2153,0,0,0,.3209-.8479c0-.0115.0114-.0115.0114-.0229a7.1287,7.1287,0,0,1-3.3344-.94,22.8372,22.8372,0,0,1-2.8188-1.5011c-.5844-.3666-1.1458-.7448-1.6959-1.1458C153.6357,90.5867,153.3377,90.3575,153.04,90.1283Zm-3.2849-17.5676a1.7192,1.7192,0,0,0,0-3.4376A1.7192,1.7192,0,0,0,149.7549,72.5607Zm18.2079-3.72a1.7191,1.7191,0,0,0,0-3.4375A1.7191,1.7191,0,0,0,167.9628,68.8409Zm219.4166,87.2727a1.1461,1.1461,0,0,0,0-2.2917A1.1461,1.1461,0,0,0,387.3794,156.1136ZM192.6977,55.78a.5746.5746,0,0,1,.5729-.573h13.6586V39.0737a.5745.5745,0,0,1,.5729-.5729h8.2387a.5821.5821,0,0,1,.5729.5729V55.2072h8.0669v-22.94a.5745.5745,0,0,1,.5728-.5729h8.25a.5745.5745,0,0,1,.5729.5729v22.94h6.0845V22.3786a.5747.5747,0,0,1,.573-.573h8.25a.5747.5747,0,0,1,.573.573V55.2072h8.7887V7.9179a.5746.5746,0,0,1,.5728-.573.5822.5822,0,0,1,.573.573V55.78a.5746.5746,0,0,1-.573.5729h-65.348A.5746.5746,0,0,1,192.6977,55.78Zm48.3092-.573h7.1043V22.9515h-7.1043Zm-15.4805,0h7.1043V32.84h-7.1043Zm-17.4514,0h7.0929V39.6466H208.075Zm87.2685,39.6077a17.429,17.429,0,0,1-5.546-12.9941A17.6345,17.6345,0,0,1,306.3437,64.69a17.4042,17.4042,0,0,1,13.0169,29.8381,18.44,18.44,0,0,0-5.8095,13.2v1.3063h-.0687v6.2679a6.3423,6.3423,0,0,1-12.6846,0v-7.4137h.0573A18.03,18.03,0,0,0,295.3435,94.8149Zm13.1429,13.246h-.0114l.0114.0115Zm.0115-17.8409a4.1816,4.1816,0,0,1-1.2948.2979c0,1.2031-.0573,2.4063-.08,3.5866-.1948,4.5375-.951,9.7741-1.5469,13.7846h2.899A151.5625,151.5625,0,0,1,308.4979,90.22Zm-17.5545-8.3877a16.2928,16.2928,0,0,0,5.1793,12.1461,19.1632,19.1632,0,0,1,5.8782,13.9107h2.4177c.1032-1.1.321-2.1886.4813-3.2887a105.027,105.027,0,0,0,1.18-14.1742,5.9874,5.9874,0,0,1-4.6521-5.0073c.0458-4.6752,3.9073-5.0647,5.1219-.5959a18.3665,18.3665,0,0,1,.63,4.5376,3.2706,3.2706,0,0,0,1.3864-.4354q.0688-1.1345.1376-2.2344c.126-1.65,1.4552-6.13,3.4719-3.4834a5.5559,5.5559,0,0,1-1.4323,5.3741,6.7339,6.7339,0,0,1-1.123,1.0083c-.103,2.4292-.0573,5.099-.1948,7.2532-.16,3.2886-.0343,6.5887.1032,9.8887a10.3477,10.3477,0,0,0,.0688,1.1574h2.8073v-.16a19.6089,19.6089,0,0,1,6.1532-14.0252A16.2543,16.2543,0,0,0,306.401,65.8362,16.4827,16.4827,0,0,0,290.9434,81.8323ZM311.26,84.6512c-.0574-.55-.0115-.9282-.0917-.9053-.0115-.0343-.0115-.0343-.023-.0458-.0688-.0458-.1375-.0917-.2177-.1375v.0115a9.0294,9.0294,0,0,0-1.1916,4.3656A4.7172,4.7172,0,0,0,311.26,84.6512Zm-7.1158-1.7074c-.5959-.3666-1.1917.0344-1.5355,1.6615a3.7162,3.7162,0,0,0,.9625,3.0021,5.5035,5.5035,0,0,0,2.4751,1.6157C305.8968,86.3585,305.37,83.9751,304.1437,82.9438Zm1.998-24.3506c-.0746-1.8076-.0023-3.6165-.0046-5.425a.5729.5729,0,1,0-1.1458,0c.0023,1.8085-.07,3.6174.0045,5.425A.5732.5732,0,0,0,306.1417,58.5932Zm12.0048,5.0737c1.0466-1.53,2.57-3.1485,3.8968-4.9308a.5574.5574,0,0,0-.1185-.6258c-.7081-.587-1.1575.5318-1.5819.9529-.8068.9962-1.637,1.9732-2.4233,2.9858-.2665.4758-.9053.8948-.82,1.4811A.5779.5779,0,0,0,318.1465,63.6669Zm-23.1787-.1708a.573.573,0,0,0,.6259-.9289c-1.6077-1.9908-2.7256-3.5318-4.3624-5.606-.2137-.2442-.379-.6188-.7529-.6078a.5786.5786,0,0,0-.5524.7252C291.5333,59.1721,293.0187,61.3368,294.9678,63.4961ZM121.23,81.2959a.5727.5727,0,0,0-.3653,1.0574,9.7873,9.7873,0,0,1,3.2023,3.9971.5732.5732,0,0,0,.92-.45,7.7753,7.7753,0,0,0-1.9867-3.1818A4.9875,4.9875,0,0,0,121.23,81.2959Zm85.6645-61.06a.582.582,0,0,1,.47-.8594c1.6615-.9166,3.46-1.6385,5.122-2.59,8.2616-4.1251,16.3513-8.5939,24.5556-12.8336.0114,0,.0114,0,.0229-.0115-.5156-.9739-.9969-1.9594-1.5469-2.91a.5906.5906,0,0,1,.0917-.699c.0114,0,.0114,0,.0229-.0115A.5111.5111,0,0,1,236.1255,0c3.7585.0916,7.5054.4813,11.2638.6073A3.0335,3.0335,0,0,1,248.455.699a.5586.5586,0,0,1,.2062.7448,28.6576,28.6576,0,0,1-1.1917,2.83c-1.2605,2.9562-2.8532,6.222-3.5178,8.1813-.0114.0574-.0343.0917-.0458.149a.5542.5542,0,0,1-.4813.5386.5906.5906,0,0,1-.4125-.1032.5164.5164,0,0,1-.2406-.3781c-.424-.63-.7677-1.3063-1.1344-1.9823a288.3317,288.3317,0,0,1-29.8037,16.6034.4717.4717,0,0,1-.424.0458.5832.5832,0,0,1-.7792-.0458Q208.7741,23.7593,206.8948,20.2358ZM208.19,20.19c.39.6761.71,1.57,1.0771,2.0855.7563,1.3063,1.4209,2.67,2.1084,4.0105,1.9135-1.0657,4.0105-1.8906,5.947-2.9678,8.2272-4.1365,16.019-9.0407,23.9942-13.6127a.5759.5759,0,0,1,1.0312-.1031c.2865.5271.5844,1.0542.8824,1.57.0457-.1146.0916-.2291.16-.39,1.0312-2.6354,2.67-6.0845,3.9761-9.0408-.974-.0229-1.9594-.0688-2.9449-.1145-2.4979-.2177-5.0074-.3438-7.5168-.4469.4927.9166.9511,1.8448,1.4438,2.7614a.568.568,0,0,1-.55.8479C228.0129,10.0262,218.1815,15.32,208.19,20.19ZM378.0985,188.8c1.3607-.5912,3.0511-1.2435,4.71-2.0891a.5794.5794,0,0,0-.0811-1.0791c-.2856-.0835-.5205.1127-.7654.2275-1.6865.82-2.7343,1.2155-4.4422,1.9513A.5733.5733,0,0,0,378.0985,188.8Zm-3.8921,3.897c.5871.3538,1.1162-.4691.6967-.8863-.0119-.0175-.0227-.0332-.0514-.0772-.7213-1.2726-1.343-2.6006-1.9694-3.9218a.573.573,0,1,0-.9894.5783A23.4629,23.4629,0,0,0,374.2064,192.6966Zm7.9638-1.02c.398,1.0564,1.0658,2.51,1.31,3.1159.2446.46.317,1.1369.7992,1.4059a.572.572,0,0,0,.7937-.5236c-.0812-.4563-.1449-.3143-.3217-.7868-.3972-.9246-1.07-2.559-1.5786-3.7109A.573.573,0,0,0,382.17,191.677Zm-12.0748,11.32a.5856.5856,0,0,0,.3647.2993.57.57,0,0,0,.5838-.92c.0348.0281.0514.044.0332.0266-.3265-.7628-.887-2.0613-1.4038-3.4618-.1352-.2907-.1534-.68-.4509-.8575a.5778.5778,0,0,0-.8416.6471C368.9675,200.364,369.5359,201.6964,370.0954,202.9966Zm-3.4622,9.64.0082.0088c-.2839-.5132-.5-1.0624-.7438-1.5957-.3864-.8844-.7822-1.7649-1.16-2.6533a.573.573,0,1,0-.9895.5783c.6162,1.4035,1.2026,2.8227,1.8729,4.2013a.6453.6453,0,0,0,.5533.3592A.5577.5577,0,0,0,366.6332,212.6363Zm6.9316-5.7192a.511.511,0,0,0-.3284.25c-1.0236.6719-2.08,1.2956-3.1369,1.9129a.573.573,0,1,0,.5784.9894,27.9284,27.9284,0,0,0,3.6038-2.2948A.6012.6012,0,0,0,373.5648,206.9171Zm-1.535,13.3822c.095.0011-.2991-.5364-.38-.7988a20.8823,20.8823,0,0,0-1.2957-2.7389.5779.5779,0,0,0-.8417.6472,17.1119,17.1119,0,0,0,1.7964,3.7348.5765.5765,0,0,0,.8144-.7224C372.1053,220.3682,372.0615,220.34,372.03,220.2993Zm10.3952-9.9027a.58.58,0,0,0,.2056-.7838c-.6792-1.48-1.4-2.94-2.1442-4.3886a.5793.5793,0,1,0-1.0708.4215c.7561,1.4659,1.49,2.9444,2.1778,4.4437A.5787.5787,0,0,0,382.425,210.3966Zm-2.7376,6.1789a.5778.5778,0,0,0,.8416.647c1.56-1.0565,3.13-2.104,4.7533-3.0613.17-.045.2346-.1073.26-.1761a.5369.5369,0,0,0,.2462-.8625.57.57,0,0,0-.7426-.1411l.0025-.0056-.0125.01c-.0083.0051-.0187.0058-.0269.0114-1.2519.7094-2.4522,1.5049-3.6557,2.2924C380.8267,215.73,380.0266,215.97,379.6874,216.5755Zm5.1545,5.1208a.5778.5778,0,0,0-.647.8416c.5046,1.1267,1.1045,2.589,1.72,4.0822.0419.105.0849.2095.1218.3164l.006-.0024a.6172.6172,0,0,0,.2573.3448.5778.5778,0,0,0,.8416-.647c-.0132-.0331-.0281-.0655-.0413-.0986l.0036-.01a.5017.5017,0,0,0-.0469-.0935q-.9014-2.249-1.873-4.47A.5769.5769,0,0,0,384.8419,221.6963Zm-3.7787,6.1849a.4886.4886,0,0,0,.4062-.3341c.2486-.5641-.45-1.01-.9248-.6851a29.8585,29.8585,0,0,0-2.9927,1.5935c-.2057.1151-.4431.23-.5012.48a.5778.5778,0,0,0,.8416.647,31.0842,31.0842,0,0,1,3.1775-1.7015Zm.6355,5.1747a.5732.5732,0,0,0-1.1048.3045c.4027.9687.8167,1.9334,1.2628,2.883a.573.573,0,0,0,.9894-.5783C382.3652,234.64,382.0041,233.7863,381.6987,233.0559Zm-2.9364,7.4969c-.008.0053-.0085.0151-.016.0208-.0267.0133-.0518.0292-.0781.043-1.2253.5968-2.4775,1.1428-3.6616,1.82a.5562.5562,0,0,0-.2734.5709.5724.5724,0,0,0,.8518.4185c1.23-.7075,2.54-1.2614,3.8075-1.8956a.5861.5861,0,1,0-.63-.9778Zm8.1941-4.2132c.9934-.6922,2.0172-1.3437,3.0468-1.98-.0048,0-.0081,0-.0128,0,.0177-.0117.031-.029.0476-.0424-.0136.012-.0194.0373-.0351.0456a.4338.4338,0,0,0,.1607-.1475c.0237-.027.0215-.0611.0381-.09a.632.632,0,0,0,.0727-.1732.5607.5607,0,0,0-.2253-.5322.5334.5334,0,0,0-.0575-.0429c-.02-.011-.0275-.0266-.0494-.0367a.4869.4869,0,0,0-.1952-.0349c-.0121,0-.0209-.01-.0333-.01l-.0081.0023a.577.577,0,0,0-.1278.0256.3541.3541,0,0,1,.06-.0061.52.52,0,0,0-.1842.0527.376.376,0,0,1,.04-.02.684.684,0,0,0-.0767.024c-1.0252.6382-2.0483,1.2846-3.0386,1.9764A.5732.5732,0,0,0,386.9564,236.34Zm35.5159-45.5924c.2082.4588.8318.7124,1.141.2058.1665-.182.033-.4957-.0387-.6288-.8035-1.1536-1.6054-2.3113-2.349-3.5047a.5732.5732,0,0,0-.9893.5783C420.9419,188.54,421.7161,189.6385,422.4723,190.7472Zm5.368,8.2252c.0066.0129.0055.0251.0132.038l.0046-.0107c.03.044.0574.0892.0871.133a.5734.5734,0,0,0,.9007-.6944.5356.5356,0,0,0-.0715-.0842c.0018-.0471-.06-.155-.219-.371-.7673-1.0149-1.2893-2.3623-2.2687-3.1555a.578.578,0,0,0-.6472.8417C426.4155,196.7416,427.1044,197.8741,427.84,198.9724Zm9.3429-.5253a.6871.6871,0,0,0,.3835.315.5789.5789,0,0,0,.5637-.9542c-.0119-.0307-.08-.1231-.2067-.319-.5392-.8984-1.0927-1.79-1.5922-2.7109a.573.573,0,1,0-.9894.5784C435.9246,196.4037,436.5327,197.4406,437.1832,198.4471Zm-8.381,6.254a41.2741,41.2741,0,0,0,3.9684-2.3746.5861.5861,0,0,0,.3133-.5154.58.58,0,0,0-.7383-.5506.55.55,0,0,0-.1409.07l.0014-.0011-.0038.0023a.553.553,0,0,0-.093.0557c-.0839.0492-.1679.0983-.25.15-1.2232.8389-2.5368,1.5757-3.7959,2.3222A.573.573,0,0,0,428.8022,204.7011Zm-7.0437,1.5472c.7893,1.2475,1.5459,2.516,2.3515,3.7532a.5726.5726,0,1,0,.9568-.6265c-.7367-1.1432-1.4437-2.3053-2.1627-3.46C422.6063,205.0515,421.3816,205.36,421.7585,206.2483Zm11.3927,2.0031c.7251,1.4415,1.6029,2.7989,2.4213,4.188.0126.024.0332.0427.0476.0659.0058.0107.0059.0216.0125.0321l.0074-.0045a.589.589,0,0,0,.337.2718.573.573,0,0,0,.5653-.9373.4436.4436,0,0,0-.1675-.3176c-.6088-1.02-1.2273-2.0337-1.8146-3.0659-.2426-.3557-.3134-.9237-.7619-1.0741A.5778.5778,0,0,0,433.1512,208.2514Zm8.4208-1.5472a35.231,35.231,0,0,0,3.1309-1.7112.6.6,0,0,0,.3146-.5189.5852.5852,0,0,0-.9586-.4309c-.0691.0439-.1384.0877-.2082.13-.9271.5588-1.8857,1.0639-2.8571,1.5411a.573.573,0,1,0,.5784.9894Zm-8.1878,16.5825c-.1839-.2728-.2779-.6709-.63-.7666a.5778.5778,0,0,0-.647.8416c.7282,1.1978,1.3482,2.4961,2.1713,3.6215a.4966.4966,0,0,0,.4234.1127.5974.5974,0,0,0,.3209-1.01Q434.1923,224.6928,433.3842,223.2867Zm6.4458-1.5835c1.1977-.4851,2.3581-1.0549,3.5344-1.5887a.5868.5868,0,0,0,.3216-.6051.5653.5653,0,0,0-.92-.3549c.01-.0091.0256-.0327.0323-.0355q-.8286.3819-1.6565.7651c-.8531.4846-1.2463.3808-1.9585.9773A.5779.5779,0,0,0,439.83,221.7032Zm7.4871-6.3589a.6105.6105,0,0,0,.5312.338.5788.5788,0,0,0,.5525-.7252.6112.6112,0,0,0-.1559-.2638c.038.047.1383.1881.0366.033-.4186-.6873-.78-1.4082-1.1505-2.1222-.4064-.5715-.5746-1.653-1.186-1.9647a.5779.5779,0,0,0-.6471.8418C445.9319,212.7878,446.574,214.0959,447.3171,215.3443Zm-1.0515,14.4974c-.4463-.8567-.8807-1.72-1.3259-2.5769-.4126-.5795-.5526-1.6169-1.1785-1.95a.578.578,0,0,0-.6473.8418c.743,1.4835,1.4518,3.0025,2.2878,4.4314a.58.58,0,0,0,.9814-.409.5033.5033,0,0,0-.1189-.3385Zm8.5061,5.0475a.6051.6051,0,0,0,1,.322.58.58,0,0,0,.09-.6943c-.6058-1.3054-1-2.2385-1.4425-3.3134-.189-.3633-.21-.8667-.5619-1.1131a.5779.5779,0,0,0-.8417.6471C453.5478,232.1429,454.1578,233.5177,454.7717,234.8892Zm-7.7267,6.1515a.5779.5779,0,0,0,.6471.8418c1.4034-.5733,2.8077-1.1509,4.1707-1.8153a.5934.5934,0,0,0,.0768-1.0448.576.576,0,0,0-.6142.03l.0127-.0086c-1.1447.5854-2.4273,1.1-3.2357,1.4414C447.7563,240.6725,447.2789,240.702,447.045,241.0407Zm12.3316,5.7368a.5787.5787,0,0,0,1.0728-.0925c.0825-.2823-.108-.5171-.2252-.7577-.7688-1.41-1.3234-2.9771-2.1165-4.3484a.573.573,0,0,0-.842.7391C457.9148,243.8289,458.6325,245.3114,459.3766,246.7775Zm-15.4635-1.7766a.58.58,0,0,0,.09-.6943c-.6185-1.2439-1.1785-2.5167-1.7338-3.79a.5733.5733,0,0,0-.9894.5783c.5223,1.2078,1.0629,2.4081,1.6332,3.594A.608.608,0,0,0,443.9131,245.0009Zm10.04,7.1631a.5772.5772,0,0,0,.3424.2633c1.6221.1023-.1074-2.2349-.2628-3.2128a.5734.5734,0,0,0-1.105.3046C453.2358,250.4129,453.5829,251.2939,453.9529,252.164Zm-6.8549-1.2116c-1.3345.6155-3.3846.91-4.5082,1.7066a.578.578,0,0,0,.6471.8419c.9989-.364,2.0094-.6945,3.0174-1.0322.5172-.2345,1.21-.2741,1.5907-.716A.5748.5748,0,0,0,447.098,250.9524Zm-10.0212,3.1252c-.4313-.7415-.2921-1.0485-.8662-1.7113a.5778.5778,0,0,0-.8417.647c.65,1.6028,1.4491,3.1391,2.161,4.7145a.5552.5552,0,0,0,.59.3112.5742.5742,0,0,0,.4088-.87C438.057,256.1324,437.5563,255.11,437.0768,254.0776Zm-.5388-9.58a.6919.6919,0,0,0-.8824-.0005c-.4093.1619-2.41.8222-3.3808,1.0848a.5734.5734,0,0,0,.3046,1.105c1.1813-.3436,2.3621-.6986,3.5111-1.14C436.57,245.4461,436.9352,244.9044,436.538,244.4978Zm-11.7206-2.9749a.5733.5733,0,0,0-.6759-.7733,23.8277,23.8277,0,0,1-3.942,1.7028.5731.5731,0,0,0,.5,1.0025,20.2407,20.2407,0,0,0,2.8416-1.1068C423.97,242.1083,424.5684,241.9758,424.8174,241.5229Zm.0821,9.4907c.6317-.0866.5357-.7846.2639-1.1885-.1727-.4071-.5383-1.2775-.8532-2.0663-.21-.4007-.208-.9665-.5916-1.2453a.5778.5778,0,0,0-.8417.647c.4289,1.2139.9278,2.404,1.4516,3.5795A.5566.5566,0,0,0,424.9,251.0136Zm3.0728,3.34a.5183.5183,0,0,0-.328.1087c-.48.2235-.97.424-1.4539.64-.7666.4659-2.362.7436-2.79,1.4505a.578.578,0,0,0,.8418.6472c1.3354-.5926,2.68-1.1648,4.0127-1.7636a.575.575,0,0,0-.2831-1.0827ZM415.19,250.48a38.2254,38.2254,0,0,0,1.9526,4.5417.5778.5778,0,0,0,1.0016-.3817c-.5347-1.357-1.35-3.0507-1.9518-4.6595A.573.573,0,0,0,415.19,250.48Zm7.3164-29.5189c-.4224-.5474-.6562-1.3655-1.27-1.7088a.5779.5779,0,0,0-.6471.8417,49.2375,49.2375,0,0,1,2.7371,4.701.5564.5564,0,0,0,.5709.2735c.7-.111.5-.8742.1846-1.2855C423.5758,222.8317,423.0633,221.8836,422.506,220.9611Zm6.1444,13.1025a.5751.5751,0,1,0,.9653-.6226c-.0381-.0649-.074-.1313-.1109-.197-.5494-.7959-1.0917-2.2529-1.844-2.766a.5779.5779,0,0,0-.6472.8417C427.58,232.222,428.1362,233.1306,428.65,234.0636Zm10.6327,28.4928a.4914.4914,0,0,0-.069.07c-1.1641.6324-2.48,1.0553-3.5843,1.7559a.497.497,0,0,0-.1127.4234.5725.5725,0,0,0,.8519.4186c1.1677-.5309,2.3331-1.0689,3.4828-1.6383a.6376.6376,0,0,0,.4226-.6647A.6121.6121,0,0,0,439.2831,262.5564Z" fill="#000002"/></g></svg>